<svg xmlns="http://www.w3.org/2000/svg" xmlns:xlink="http://www.w3.org/1999/xlink" id="Camada_1" width="4670.0801" height="423.04001" x="0" y="0" version="1.1" xml:space="preserve"><g id="g316" fill="#FFF" transform="translate(-179.21 -2289.19)"><path id="path4" d="M4151.66 2674.65h-21.93l-4.83 17.5h-15.82l23.25-78.37h18.03l22.45 78.37h-16.86m-14.72-63.34h-.21l-8.3 32.59h15.74z"/><g id="g314"><defs id="defs7"><path id="SVGID_1_" d="M171.89 2289.1899h4733.3301v428.66H171.89z"/></defs><clipPath id="SVGID_2_"><use id="use9" width="100%" height="100%" x="0" y="0" overflow="visible" xlink:href="#SVGID_1_"/></clipPath><path id="path12" fill="#FFF" d="M4235.59 2656.11c0-6.75-2.5-9.2-6.01-9.2-4.69 0-6.52 3.81-6.52 8.19v37.05h-15.81v-36.04c0-7.4-2.9-9.2-5.51-9.2-5.23 0-7.02 5.06-7.02 12.46v32.78h-15.84v-46.26c0-5.6-.1-9.2-.41-12.24h14.43c.22 2.61.4 5.84.4 9.77h.22c2.41-6.4 6.4-10.67 14.71-10.67 7.52 0 11.33 3.94 13.54 9.77 2.31-5.51 6.01-9.77 14.32-9.77 11.52 0 15.33 9.44 15.33 21.11v38.29h-15.83" class="st1" clip-path="url(#SVGID_2_)"/><path id="path14" fill="#FFF" d="M4306.89 2667.57h-30.73c0 6.97 4 13.36 12.91 13.36 5.41 0 10.82-2.23 14.74-4.61l.29 13.38c-5.1 2.14-11.1 3.37-16.51 3.37-18.34 0-26.44-12.45-26.44-30.33 0-15.72 8.21-29.98 23.13-29.98 4.71 0 22.63 0 22.63 30.55m-14.42-5.4c0-7.41-1.72-14.38-8.23-14.38-8.11 0-8.11 11.23-8.11 14.38z" class="st1" clip-path="url(#SVGID_2_)"/><path id="path16" fill="#FFF" d="M4316.21 2645.89c0-5.6-.11-9.19-.39-12.24h14.41c.1 3.49.31 7.07.4 10.57h.22c3.2-6.3 5.41-11.46 14.52-11.46h2.31v16.4c-1.72-.46-3.12-.67-5.31-.67-9.24 0-10.33 8.98-10.33 17.49v26.18h-15.83" class="st1" clip-path="url(#SVGID_2_)"/><path id="path18" fill="#FFF" d="M4355.67 2607.93h15.84v15.74h-15.84m0 9.98h15.84v58.51h-15.84z" class="st1" clip-path="url(#SVGID_2_)"/><path id="path20" fill="#FFF" d="M4419.89 2690.59c-4.61 1.36-9.31 2.47-14.33 2.47-20.15 0-24.66-18.86-24.66-29.54 0-17.96 9.24-30.77 25.87-30.77 5.2 0 7.98 1.47 12.61 2.82l-.8 13.37c-2.91-1.23-5.92-2.47-9.23-2.47-12 0-12 14.81-12 17.06 0 12.36 6.8 16.29 12.82 16.29 3.3 0 6.29-1.35 9.21-2.6" class="st1" clip-path="url(#SVGID_2_)"/><path id="path22" fill="#FFF" d="M4431.1 2636.47c4.11-1.48 11.11-3.71 16.83-3.71 18.33 0 22.53 8.53 22.53 21.56v21.33c0 8.64.11 12.57.4 16.49h-14.42l-.4-8.07h-.2c-.7 3.59-6.81 8.98-14.33 8.98-9.68 0-16.11-7.08-16.11-17.74 0-19.55 20.34-19.65 25.84-19.65h4.8c0-11.24-7.39-11.24-9.71-11.24-4.01 0-8.3 1.01-14.5 5.16m24.21 14.4c-6.31 0-16.23.45-16.23 10.21 0 7.63 5.54 7.63 6.85 7.63 1.37 0 9.39-.23 9.39-14.47v-3.37z" class="st1" clip-path="url(#SVGID_2_)"/><path id="path24" fill="#FFF" d="M4512.34 2648.38c-4.21-1.92-8.12-3.15-12.72-3.15-4.11 0-5.93 2.23-5.93 4.25 0 3.6 2.32 4.85 10.94 8.43 5.42 2.24 10.92 6.07 10.92 17.07 0 13.03-8.72 18.08-19.22 18.08-4.62 0-11.63-.58-17.15-2.8l.4-13.7c3.82 2.58 8.62 4.05 13.05 4.05 7.4 0 7.91-2.93 7.91-5.53 0-2.57-4.1-3.69-10.93-6.84-5.53-2.6-10.92-7.51-10.92-17.96 0-6.29 4.02-17.52 19.53-17.52 6.52 0 11.93 1.36 14.53 2.36" class="st1" clip-path="url(#SVGID_2_)"/><path id="line26" fill="#FFF" d="M4849.2798 2581.8799H4006.76" class="st1" clip-path="url(#SVGID_2_)"/><path id="rect28" fill="#FFF" d="M4006.76 2578.22h842.53003v7.3299999H4006.76z" class="st1" clip-path="url(#SVGID_2_)"/><path id="path30" fill="#FFF" d="M3896.29 2357.91c7.65 8.79 21.04 13.98 28.89 22.73-5.62-25.98-26.48-47.2-51.16-52.26 12.01 8.72 14.6 20.79 22.27 29.53m-296.72 65.9c17-35.56 42.39-28.03 53.13-61.9-6.06 10.4-33.78 14.75-46.65 41.41 6.57-15.85 3.28-40.05 14.38-53.12-33.22 23.56-19.07 61.66-20.86 73.61m30.82 85.28c3.03 13.84-5.92 33.83 8.33 52.92-14.78-15.89-45.99-19.94-58.77-44.1 15.95 59.08 57.44 46.92 76.18 59.74-15.42-21.27-2.83-35.39-25.74-68.56m-4.82 37.09c-9.17-33.02 7.13-44.42-5.26-76.09-1.3 17.83-13.66 26.53-5.32 59.16-14.73-27.64-37.54-37.92-44.13-56.87.45 51.83 43.79 59.52 54.71 73.8m66.56 55.35c-12.74-16.97-4.04-26.55-39.87-57.37 7.6 11.26-.24 25.39 23.92 47.41-23.64-13.42-56.28-7.69-71.99-25.6 27.01 49.68 74.49 29.39 87.94 35.56m173.47-9.95c24.15-22.02 16.32-36.15 23.92-47.41-35.82 30.81-27.12 40.4-39.89 57.37 13.46-6.17 60.95 14.12 87.98-35.55-15.72 17.9-48.36 12.17-72.01 25.59m37.46-29.57c14.26-19.09 5.29-39.08 8.34-52.92-22.89 33.17-10.32 47.29-25.73 68.56 18.74-12.82 60.26-.66 76.18-59.74-12.78 24.16-44 28.21-58.79 44.1m-57.23 41.87c-14.01-3.59-28.45-5.39-39.2-5.64-13.41-.33-25.36 2.11-35.73 5.82-10.37-3.71-22.35-6.15-35.75-5.82-10.74.25-25.18 2.04-39.19 5.64-21.56 5.53-40.2 9.78-56.41 1.89 15.53 13.28 33.72 18.02 59.98 15.29 21.85-2.24 39.47-12.74 60.06-12.61.3 0 .55.01.81.03-21.7 10.53-47.62 25.36-47.62 25.36l9.92 1.3s24.15-20.21 48.19-25.46c24.05 5.25 20.85 25.46 20.85 25.46l9.93-1.3s1.41-14.84-20.28-25.36c.26-.02.52-.03.8-.03 20.6-.13 38.22 10.37 60.07 12.61 26.28 2.73 44.44-2.01 59.99-15.29-16.22 7.9-34.87 3.64-56.42-1.89m-224.03-169.59c-8.91 16.39-22.72 20.15-21.26 54-7.45-30.07-25.27-41.25-25.04-60.46-12.39 50.12 20.71 56.09 29.22 77.09-1.24-30.12 18.75-36.2 17.08-70.63m12.42-38.72c-3.11 4.18-5.28 5.94-13.54 12.48-11.25 8.92-20.24 20.62-24.03 37.69.85-18.37-10.95-44.77-3.09-64.05-30.44 41.29 1.74 66.03 2.88 80.97 7.86-28.77 25.99-29.01 37.78-67.09m310.93 50.17c-3.79-17.07-12.8-28.77-24.04-37.69-8.25-6.54-10.43-8.31-13.53-12.48 11.79 38.08 29.91 38.32 37.77 67.09 1.14-14.94 33.31-39.68 2.88-80.97 7.85 19.28-3.94 45.68-3.08 64.05m25.8 26.64c-6.62 18.95-29.43 29.23-44.17 56.87 8.38-32.63-4.01-41.33-5.31-59.16-12.4 31.67 3.91 43.07-5.27 76.09 10.95-14.28 54.26-21.97 54.75-73.8m-50.97-38.09c-1.69 34.43 18.32 40.52 17.08 70.63 8.49-21.01 41.6-26.97 29.19-77.09.26 19.21-17.57 30.39-25.02 60.46 1.47-33.85-12.33-37.61-21.25-54m-274.48-76.38c7.67-8.74 10.26-20.81 22.29-29.52-24.68 5.05-45.56 26.28-51.17 52.26 7.84-8.76 21.22-13.95 28.88-22.74m243.58 4c10.74 33.87 36.14 26.34 53.13 61.9-1.8-11.95 12.37-50.05-20.87-73.61 11.11 13.07 7.82 37.27 14.39 53.12-12.88-26.67-40.6-31.01-46.65-41.41m-86.17 19.23c-6.37-2.53-13.16-4.33-20.22-5.3-.03 1.45-.03 2.9-.08 4.35 6.51.92 12.76 2.59 18.66 4.95.79-1.21 1.33-2.51 1.64-4m-5.15-41.94l1.38-1.18-2.57-1.04-6.82-.14-1.75 1.18-4.02-.32-.04.93c2.54.19 5.02.4 6.99.72l3.3-.29zm-13.04 140.62c0-1.11-1.55-2.2-3.81-3.24h-.39c-.03.88-.13 5.31-.17 7.47 2.79-1.19 4.37-2.51 4.37-4.23m-78.62-82.88c.13-.88.34-1.6.56-2.39-.84.19-1.81.29-2.76.27zm64.95 191.82c76.31 0 138.42-59.66 138.42-133.02 0-68.82-54.64-125.58-124.39-132.34-.06.24-.13.51-.18.75-.27 1.3-.54 2.45-.72 3.51 31.24 2.92 59.36 16.21 80.61 36.25l-15.26 14.68.56-2.57-1.99-.86-2.75-.15.59-1.71-1.86-6-3.8-4-11.94-6.07-1.01 1.07-2.16.6c4.1 5.8 6.3 12.5 6.3 19.29 0 .87-.01 1.76-.06 2.61l5.9 7.14-2.77.62 1.86 2.64-5.24 5.02-2.09-3.82c-.99 2.67-2.33 5.15-3.94 7.47.38.37.77.7 1.15 1.05l-16.08 15.43c-.97-.88-1.97-1.73-3.03-2.56-1.54.69-3.11 1.33-4.69 1.93.45.31.88.64 1.35 1l-.82.78-1.88 1.03-.68 1.81-1.19-1.14-3.37 1.08.92 1.45 2.34-.62 1.52.11.13-.78 1.17-.57.34-.67 2.13-.58 1.65-.05c.3.27.64.55.96.82l-6.4 6.13-.47-.66-6.67 1.07-1.47 1.44-1.49.14 4.15-3.79-1.48-.71-3.86 4.95 1.14-.12-.07 1.85 1.4.52.31 1.98-2.34-.48-2.42.44-5.84-2.89s-.34 15.09-.5 22.68c13.81 4.48 28.49 10.92 28.49 27.86 0 7.44-3.34 13.44-9.93 17.88l.05.01c-.1.07-.21.12-.32.18l-.03-.01c-.13.09-.29.19-.45.29-5.57 3.56-12.76 5.45-18.98 7.32-.04 0-.18 11.85-.18 11.85 9.9 4.73 21.92 11.62 20.8 31.31-.11 4.85-2.1 6.18-3.76 6.63-5.79 1.38-11.8 2.29-17.9 2.72-.05 1.53-.08 2.99-.09 4.34 26.67-1.76 50.78-12.59 69.01-29.29l16.07 15.44c-24.07 22.3-56.76 35.97-92.74 35.97-35.78 0-68.32-13.55-92.39-35.58l16.1-15.46c18.03 16.37 41.78 27.04 68.04 28.89-.03-1.32-.06-2.8-.08-4.33-24.99-1.87-47.56-12.02-64.79-27.63l4.3-4.14 5.89.66 3.13-3.23 8.22.27 1.22-2.73-.29-1.16c11.89 8.67 26.28 14.39 41.92 15.94-.03-1.68-.06-3.15-.11-4.34-17.24-1.86-32.88-9.02-44.99-19.79l16.08-15.46c3.91 3.33 8.3 6.19 13.05 8.41.36-1.47.9-2.83 1.62-4.08-4.16-1.98-8.02-4.46-11.49-7.4l16.14-15.49c2.56 1.97 5.46 3.54 8.6 4.62-.04-1.54-.05-3.16-.07-4.67-1.94-.79-3.7-1.81-5.36-3.02l4.55-4.38c-1.6-.47-3.2-.93-4.81-1.48l-3.04 2.93c-1.54-1.66-2.84-3.5-3.84-5.51-2.78-1.18-5.48-2.53-7.98-4.1-9.92-6.25-14.93-15.08-14.93-26.23 0-8.55 2.48-15.01 6.51-20.01l-16.06-15.4c11.56-10.63 26.44-17.92 42.96-20.33-.03-1.5-.05-2.95-.08-4.36-17.73 2.45-33.68 10.25-46.02 21.63l-2.73-2.62c-.61 1.02-1.31 2.37-2.13 4.03l1.72 1.65c-13.84 14.13-22.4 33.02-22.76 53.81h-22.76c.36-26.82 11.49-51.18 29.4-69.25l7.23 6.93c.33 0 .65 0 1.03-.04 1.27-.08 2.7-.47 4.1-1.11l-9.18-8.86c4.84-4.52 10.12-8.59 15.83-12.16.44-1.48.85-2.75 1.11-3.22.27-.54 1.74-2.37 3.46-4.5-8.62 4.59-16.56 10.26-23.59 16.8l-16.09-15.45c21.08-19.72 48.88-32.83 79.76-35.85-.1-.52-.19-.91-.19-.91-.22-1.03-.45-2.14-.67-3.32-69.56 6.95-123.98 63.64-123.98 132.31-.03 73.38 62.07 133.04 138.41 133.04m29.86-91.91l-.02-.08.05.07c-.02 0-.02.01-.03.01m67.04-129.88c22.62 22.82 36.66 53.57 37.01 87.41h-22.73c-.24-16.73-4.48-32.6-11.9-46.66l.22-.41 1.56.79.38-1.13-4.08-6.86-4.8-6.42-5.66-4.53c-1.93-2.32-3.96-4.57-6.09-6.75zm-28.99 28.03l5.47.22 1.3 1.51-.64 2.22 7.57 4.55 1.52-.18 9.69 10.69 3.96-1.36c6.18 12.71 9.7 26.84 9.89 41.73h-22.75c-.09-5.7-.84-11.25-2.1-16.62l1.02-1.35 1.42-6.86-1.08-7.35-2.74-8.47-6.35-8.91 1.56.77.77-.74-5.1-3.31-.33 1.09 5.09 6.99 2.89 5.74 2.06 5.7.64 3.8 1.06 6.45-1.92.16s-2.19-3.96-2.89-5.6l1.04-1.43-1.95-2.69v-2.68l-1.38-1.67-1.73.2c-.64-1.08-1.27-2.2-1.95-3.26l1.24.61.32-.31-.66-1.37 1.5-.81-.68-.82-2.19.82.8-3.31-1.29-.72-1.17 2.64c-2.48-3.57-5.26-6.95-8.29-10.1zm-4.55 51.22l4.08-2.14 4.16-.61.93-1.94 2.33-1.37.86-1.86.75-3.21c.32 1.13.62 2.27.89 3.42l-2.19 6.33-.11 2.14 3.22-4.11c.68 3.73 1.07 7.58 1.13 11.49h-19.92l-.47-1.66 2.29-1.78.46-1.08 1.04-.69 2.67-.27.28-1.17zm-27.32-15.02l2.04-.45-.07-.47-2.03-1.32.67-4.13 2.44-2.31c1.51 1.64 2.94 3.42 4.24 5.25l-.86 2.53-2.23-1.51-1.68.45.81 1.51h.85l-.92 2.21-.66-.88zm8.72 72.6l-4.91-1.35-1.48.54-2.79-2.04-2.6-.9c1.3-.91 2.56-1.84 3.75-2.84l4.04 2.75 3.09 1.57 1.56 1.49zm-2.49-84.34l16.09-15.48c3.77 3.93 7.1 8.24 9.96 12.86l-2.01.55.11 3.42 6.03 3.66c1.5 3.16 2.75 6.41 3.76 9.79l-1.03 1.48-2.19 1.33-.55 3.22-1.48.77-1.25 1.43-1.26-.44-2.23-.09 1.3-1.71.93-4.36 1.47-.88-4.34-3.99-3.23 1.05-.73 2.94-2.05 2.14-2.12-1.69-.75-1.82 1.22-.7.65 1.18 1-.35-.42-1.95-1.43-.11-.1.8-.93.18-4.98-5.61-1.69-1.25.64-.64 1.51-.55-1.37-.52s-1.8.4-1.97.4l.98 1.2-2.54-.05c-1.52-2.17-3.19-4.25-5-6.21m8.2 82.3l-2.18-2.09 1.68-2.07 2.1-4.13-.81-1.17 1.38-3.03-.14-2.75-.84-2.84-2-.68-.73 1.61-1.18-.3c1.71-2.63 3.54-5.1 4.77-8l2.03-.84 1.14-1.46.58.6 1.37-1.61-1.09-1.34.99-.26 1.87.71 3.51.08 2.12-1.05 5.56-1.41-1.04-1.79-.37-2.14 2.98 1.24 1.12-.61-.55-2.23-3.66 1.32-4.04-.79-3.05-5.98h17.4c-.77 19.21-8.99 36.66-21.95 49.7l-2.4-2.29 1.02-3.09-1.86-6.74zm3.07 42.64l2.13-4.42-.83-1.96 3.16-2.65v-1.62l-2.68-1.61 2.2-4.25 3.33-4.19-3.33-3.47h-2.49l-1.56-2.39c1.34-1.08 2.66-2.17 3.94-3.29l16.09 15.42c-6.04 5.54-12.7 10.38-19.96 14.43m20.06-20.43l1.75-1.92-1.67-8.45-1.17-.44.71-1.42-3.78-1.14-.76 3-.36 3.85-.8.71-6.94-6.7c13.8-13.81 22.53-32.32 23.29-52.73h22.78c-.79 26.46-12.07 50.44-29.97 68.22zm6.25 6.03c18.72-18.59 30.51-43.65 31.3-71.26h22.74c-.79 33.64-15.14 64.17-37.95 86.71zm-136.91-21.18c-1.65-1.65-3.23-3.35-4.72-5.13l.69-5.52-2.39-5.31-.58-8.32-2.7-5.01.59-3.16-3.26-5.98-2.84-1.34 1.16-3.21-1.2-2.52 1.19-2.88h3.1l1.09-1.72h5.33l.83 1.48-1.01 5.2-.64.88 2 4.19-1.34.68-.92-1.1-.37.42.91 2.46 1.55 2.92.73-.08.43-2.58-.76-.96-.09-1.76-.2-3.63 1.09-6.41-1.06-1.71h3.82c.74 13.38 6.58 25.49 15.65 34.63zm-15.06-42.74l-2.13 3.22h-3.69l-.28-.19c-.65-3.38-1.04-6.88-1.16-10.37h6.84l-1.65 5.25zm7.51-15.01l.43-4.33 2.67-1.52 4.83.8.72.84c-.43 2.46-.65 4.97-.72 7.51h-5.46zm23.08 16.35l1.13-.56 2.98 2.15-1.28 1 3.33 2.15-.19-2.28 1.76-2.87 1.89 1.91 1.9 2.63-3.44.74 1.57 2.99 2.39-1.22-.3-.95 1.78-1.15 1.08-4.76c1.3 2.81 3.06 5.41 5.2 7.67l-16.08 15.44c-7.65-7.74-12.79-17.83-14.09-29.02l3.3 3.38 3.1-.07zm-16.46-63.81l16.06 15.44c-3.36 3.56-6.23 7.52-8.52 11.82l-1.13-.06-2.25.69-.77-.06-2.41 2.12 3.02-.47 2.77-.67c-.19.34-.35.67-.49 1.04l-2.4 1.41h-1.14l-3.54 2.56-3.4-.26-4.95 8.84 1 1.78-2.71 2.86-.42 3.72h-10.12c.31-19.58 8.38-37.39 21.4-50.76m-20.8 116.6l5.12 2.87 1.04.68-3.7 3.59c-1.75-1.75-3.38-3.52-5-5.34zm-5.09-61.47c.08 2.09.28 4.2.52 6.29l-2.78.6-.58 2.73-5.82 7.09.15 9.75-5.95 1.89-3.25.02c-3-8.97-4.76-18.5-5.05-28.36h22.76zm-22.45 28.24l-1.36-.25-1.28-1.36-6.36-.56 1.99 2.6-5.93-1.08 1.55-1.36-1.43-1.37-4.29 1.78-1.51 2.73.57 6.2 4.91 11.31 2.37 3.55 1.35.48-3.72-6.78-.82-3.43.83-.86-.48-1.88 2.19.27 3.44 4.98.85.34-.1-3.64 1.41.77.29 1.99 3.61.92 1.52-1.03.51.33-.05 2.66 1.58 1.88 1.94.42 4.23 6.87 2.55.68.8-3.21c4.43 7.05 9.69 13.57 15.68 19.43l-16.09 15.47c-23.06-22.59-37.54-53.24-38.35-87.1h22.75c.3 9.77 1.98 19.26 4.85 28.25m9.79-120.38l16.07 15.44c-18.73 18.88-30.33 44.35-30.72 72.34h-22.74c.39-34.02 14.53-64.93 37.39-87.78m164.69-7.97l-1.4-2.12-2.97-1.44-2.32 1.7 2.98 1.51 3.32 2.31zm-13.81 61.69l.1 1.69 3.93-1.14 1.21-2.32-2.72-3.42 1.47-2.07 3.66 2.51.67-.52-.71-.53-.83-1.51 1.5-.82-1.48-1.84-3.46 1.67-1.2 2-.67 1.8 1.52 2.45-.56 1.18zm-164.48 98.04l.28-.97-2.04-4.28-2.42-.87zm93.01-82.16c0 3.69 2.32 6.26 6.56 8.48 0 0-.02-.61-.04-1.63l-2.65-2.52 1.4-2.48 1.14-.32c-.07-4.26-.18-9.06-.2-9.73l-.21.02c-3.85 2.07-6 4.6-6 8.18" class="st1" clip-path="url(#SVGID_2_)"/><path id="path32" fill="#FFF" d="M3779.33 2530.96c7.14 3.47 13.74 8.26 16.48 17.36 1.2-15.05-7.59-21.58-16.28-26 .01.02-.2 8.64-.2 8.64" class="st1" clip-path="url(#SVGID_2_)"/><path id="path34" fill="#FFF" d="M3826.77 2378.18c0-13.68-10.33-28.87-35.62-34.21-1.85-.4-4.71-.68-7.69-.86-.06 2.05-.19 6.77-.19 6.77-.04 1.5-.15 6.99-.18 8.16 2.31.19 4.06.5 4.85.65 14.69 3.37 19.97 11.47 19.97 19.5 0 12.99-11.55 17.87-25.75 21.57-1.54.4-3.14.79-4.71 1.17-4.29 1.03-8.75 2.02-13.12 3.15-1.55.41-3.11.84-4.66 1.31-15.74 4.6-29.26 11.88-29.26 30.57 0 18.51 15.45 25.43 30.49 29.88-.07-5.31-.2-10.69-.32-16.05-6.66-3-11.32-6.93-11.32-13.57 0-6.49 4.24-10.41 10.78-13.25 1.44-.64 3.01-1.19 4.65-1.74 3.75-1.24 7.98-2.27 12.38-3.3 1.55-.34 3.14-.72 4.73-1.08 21.2-4.96 44.97-11.32 44.97-38.67" class="st1" clip-path="url(#SVGID_2_)"/><path id="path36" fill="#FFF" d="M3750.55 2508.72c.05 7.48 5.75 11.56 11.47 14.66-.01-1.28-.22-12.83-.22-13.04.12-2.31 2.44-3.69 4.31-4.55 2.77-1.25 5.57-2.15 9.11-3.34 1.7-.56 3.18-1.13 4.8-1.59 11.51-3.33 24.82-7.58 24.82-21.04 0-13.48-11.42-19-23.89-23.14-.09 4.31-.23 10.56-.33 14.89 5.29 2 8.77 4.41 8.77 8.25 0 4.81-5.37 7.61-9.17 9-1.57.62-3.96 1.36-4.65 1.55-3.05.91-6.33 1.99-9.42 3.07-1.62.61-3.2 1.22-4.64 1.94-5.4 2.64-11 6.53-10.96 13.34" class="st1" clip-path="url(#SVGID_2_)"/><path id="path38" fill="#FFF" d="M3758.35 2345.26c-7.68 2.09-12.19 4.87-13.88 5.44-4.96 1.57-11.97 1.86-19.19 9.4-1.27 1.35-4.43 5.12-6.63 8.24-2.17 3.02-2.29 7.87-3.88 10.48-2.31 3.76-1.78 5.92-1.78 5.92l.07.12c-.08.48-.54 2.46-2.67 4.71-2.4 2.6-5.58 4.03-9.37 3.44 3.28 1.57 7.84-.65 7.84-.65s-.87 2.4-1.74 6.29c3.7-8.04 7.08-10.97 8.17-11.78 1.58.35 4.86.19 10.97-3.17 6.9-3.8 17.28-10.03 20.2-13.96 3.18-4.23 7.53-7.05 12.26-8.85-.13-5.93-.29-11.19-.37-15.63m-29.14 25.08l-3.55.74 4.25-6.73 4.99.19z" class="st1" clip-path="url(#SVGID_2_)"/><path id="path40" fill="#FFF" d="M3772.58 2507.81c-.65.21-2.38.94-3.48 1.3-1.15.38-2.61.97-2.61 1.35 0 .09 1.09 57.98 1.09 59.26 0 11.9 6.33 11.97 6.33 0 0-.85 1.28-62.73 1.28-62.73s-1.54.44-2.61.82" class="st1" clip-path="url(#SVGID_2_)"/><path id="path42" fill="#FFF" d="M3766.05 2488.7c1.97-.64 3.93-1.23 5.76-1.78 1.39-.39 2.66-.77 3.82-1.14.08-3.64 1.14-54.04 1.37-63.17-4.73 1.12-8.82 2.18-12.22 3.37.17 6.87 1.16 57.2 1.27 62.72" class="st1" clip-path="url(#SVGID_2_)"/><path id="path44" fill="#FFF" d="M3771.32 2295.8c-17.73 0-10.2 25.27-8.81 33.52.07.39 1.45 57.14 1.72 70.16 2.7-.68 5.38-1.33 7.98-1.93 1.84-.45 3.63-.88 5.35-1.29.28-12.54 1.57-66.68 1.61-67.04 1.05-8.83 10.36-33.42-7.85-33.42" class="st1" clip-path="url(#SVGID_2_)"/><path id="path46" fill="#FFF" d="M4031.51 2326.96c16.89 0 32.4 14.11 32.4 46.92s-15.51 46.92-32.4 46.92c-16.91 0-32.42-14.11-32.42-46.92.01-32.81 15.52-46.92 32.42-46.92m0 81.03c9.44 0 17.02-9.03 17.02-34.12 0-25.09-7.58-34.11-17.02-34.11s-17.04 9.02-17.04 34.11 7.61 34.12 17.04 34.12" class="st1" clip-path="url(#SVGID_2_)"/><path id="path48" fill="#FFF" d="M4073.95 2363.28c0-4.17-.12-8.09-.47-11.1h13.07c.11 4.08.46 8.25.46 12.28h.24c1.77-5.22 6.29-13.33 15.28-13.33.93 0 1.62.27 2.43.4v15.18c-1.28-.41-2.56-.67-4.07-.67-5.96 0-12.49 4.06-12.49 16.6v36.85h-14.45" class="st1" clip-path="url(#SVGID_2_)"/><path id="path50" fill="#FFF" d="M4112.36 2429.94c3.38 2.1 10.17 5.76 17.75 5.76 13.63 0 15.82-10.59 15.82-21.18v-6.39h-.21c-2.35 5.21-6.42 11.36-15.87 11.36-8.4 0-20.97-6.28-20.97-33.46 0-18.56 5.95-34.88 21.66-34.88 8.75 0 12.82 5.61 15.85 11.48h.49c0-3.52.35-6.93.47-10.46h13.05c-.23 3.53-.48 7.07-.48 10.61v49.65c0 21.04-5.71 36.08-27.72 36.08-9.56 0-17.15-2.73-20.65-4.18m21.69-36.74c9.09 0 12.69-7.31 12.69-22.58 0-14.13-4.76-21.73-11.65-21.59-7.57.15-10.48 8-10.48 21.69 0 15.83 4.55 22.48 9.44 22.48" class="st1" clip-path="url(#SVGID_2_)"/><path id="path52" fill="#FFF" d="M4174.28 2356.11c4.08-2.08 9.77-4.96 19.01-4.96 18.65 0 22.94 10.17 22.94 27.04v29.4c0 4.83.46 9.29.8 11.9H4204c-.69-2.61-.81-5.86-.81-9.15h-.27c-3.59 5.49-8.13 10.19-16.76 10.19-9.32 0-17.97-7.19-17.97-19.73 0-18.3 13.31-22.87 31.6-22.87h2.92v-2.49c0-6.66-2.92-12.81-11.2-12.81-7.2 0-13.62 3.93-16.4 6.55m27.6 17.37h-1.28c-12.35 0-19.69 2.89-19.69 12.68 0 6.14 3.59 10.33 9.19 10.33 8.65 0 11.78-7.17 11.78-19.2z" class="st1" clip-path="url(#SVGID_2_)"/><path id="path54" fill="#FFF" d="M4227.88 2363.28c0-4.17-.12-8.09-.47-11.1h13.53c.11 3.41.47 6.94.47 10.33h.33-.09c2.11-4.05 6.17-11.37 15.97-11.37 13.62 0 17.71 11.37 17.71 24.97v43.39h-14.47v-40.37c0-10.33-2.3-14.67-8.27-14.67-7.55 0-10.26 7.2-10.26 15.83v39.21h-14.45" class="st1" clip-path="url(#SVGID_2_)"/><path id="path56" fill="#FFF" d="M4287.24 2323.57h14.93v15.95h-14.93m.21 12.65h14.46v67.32h-14.46z" class="st1" clip-path="url(#SVGID_2_)"/><path id="polyline58" fill="#FFF" d="M4312.48 2405.52l25.66-41.05h-24.83v-12.28h39.3v13.85l-25.18 41.17h25.97v12.29h-40.92" class="st1" clip-path="url(#SVGID_2_)"/><path id="path60" fill="#FFF" d="M4365.5 2356.11c4.09-2.08 9.76-4.96 18.99-4.96 18.66 0 22.96 10.17 22.96 27.04v29.4c0 4.83.46 9.29.82 11.9h-13.06c-.69-2.61-.81-5.86-.81-9.15h-.26c-3.61 5.49-8.15 10.19-16.77 10.19-9.32 0-17.96-7.19-17.96-19.73 0-18.3 13.29-22.87 31.59-22.87h2.93v-2.49c0-6.66-2.93-12.81-11.2-12.81-7.2 0-13.64 3.93-16.42 6.55m27.63 17.37h-1.3c-12.34 0-19.67 2.89-19.67 12.68 0 6.14 3.59 10.33 9.19 10.33 8.63 0 11.78-7.17 11.78-19.2z" class="st1" clip-path="url(#SVGID_2_)"/><path id="path62" fill="#FFF" d="M4457.1 2417.8c-3.39 1.45-8.41 2.73-14.23 2.73h-.7l-2.09 7.06c1.15-.39 2.58-.77 4.55-.77 6.42 0 10.14 4.05 10.14 9.67 0 8.25-7.22 12.05-12.93 12.05-4.9 0-9.92-1.33-12.24-2.63l1.87-5.22c2.31.9 4.66 1.82 8.13 1.82 3.88 0 6.08-2.2 6.08-5.35 0-3.01-2.2-4.84-5.35-4.84-2.1 0-3.52.4-4.56.92l-2.09-2.22 3.47-10.97c-15.83-2.87-22.48-17.14-22.48-34.13 0-19.2 8.84-34.77 29-34.77 4.54 0 9.91 1.56 12.6 2.77l-.8 12.8c-2.57-1.45-6.18-3.27-10.15-3.27-10.95 0-15.72 8.24-15.72 22.6 0 12.54 5.36 22.22 16.43 22.22 3.47 0 8.28-1.83 10.24-3.27" class="st1" clip-path="url(#SVGID_2_)"/><path id="path64" fill="#FFF" d="M4469.94 2356.11c4.08-2.08 9.78-4.96 19-4.96 18.66 0 22.95 10.17 22.95 27.04v29.4c0 4.83.47 9.29.81 11.9h-13.04c-.69-2.61-.81-5.86-.81-9.15h-.26c-3.59 5.49-8.16 10.19-16.77 10.19-9.33 0-17.97-7.19-17.97-19.73 0-18.3 13.3-22.87 31.6-22.87h2.92v-2.49c0-6.66-2.92-12.81-11.19-12.81-7.2 0-13.62 3.93-16.42 6.55m1.38-25.87c0-4.58 2.21-15.04 10.97-15.28 5.35 0 9.89 4.42 13.4 4.42 2.34 0 3.37-2.48 3.37-5.09h7.23c0 3.79-2.22 15.28-10.86 15.28-4.53 0-8.85-4.45-13.04-4.45-2.9 0-4.32 2.36-4.32 5.12zm26.23 43.24h-1.27c-12.35 0-19.69 2.89-19.69 12.68 0 6.14 3.6 10.33 9.18 10.33 8.65 0 11.78-7.17 11.78-19.2z" class="st1" clip-path="url(#SVGID_2_)"/><path id="path66" fill="#FFF" d="M4548.39 2351.15c12.22 0 26.33 7.19 26.33 34.62 0 28.25-14.11 34.77-26.33 34.77-12.24 0-26.48-6.52-26.48-34.77-.01-27.43 14.24-34.62 26.48-34.62m0 57.9c9.3 0 11.4-12.02 11.4-23.28 0-11.24-2.1-23.15-11.4-23.15s-11.54 11.91-11.54 23.15c0 11.26 2.24 23.28 11.54 23.28" class="st1" clip-path="url(#SVGID_2_)"/><path id="polyline68" fill="#FFF" d="M4070.3 2468.97h-.21l-20.42 76.05h-10.59l-19.48-76.05h-.25v76.05h-13.51v-91.21h22.26l16.78 68.09h.24l17.13-68.09h21.57v91.21h-13.52" class="st1" clip-path="url(#SVGID_2_)"/><path id="path70" fill="#FFF" d="M4142.88 2533.92c0 4.19.13 8.09.48 11.09h-13.51c-.14-3.39-.49-6.91-.49-10.3l-.34-.15.09.15c-2.79 4.97-6.53 11.36-15.96 11.36-13.62 0-17.71-11.36-17.71-24.96v-43.4h14.46v40.39c0 10.34 2.57 14.64 8.62 14.64 7.68 0 9.9-7.83 9.9-16.46v-38.56h14.45" class="st1" clip-path="url(#SVGID_2_)"/><path id="path72" fill="#FFF" d="M4155.33 2488.83c0-4.18-.12-8.08-.47-11.11h13.52c.12 3.42.49 6.94.49 10.33h.34-.11c2.1-4.03 6.18-11.37 15.97-11.37 13.63 0 17.71 11.37 17.71 24.98v43.36h-14.46v-40.36c0-10.34-2.31-14.65-8.28-14.65-7.55 0-10.25 7.2-10.25 15.81v39.2h-14.46" class="st1" clip-path="url(#SVGID_2_)"/><path id="path74" fill="#FFF" d="M4263.97 2447.01v86.52c0 4.84.12 9.04.47 11.5h-13.52c-.22-1.96-.47-5.88-.47-10.46h-.34c-2.33 5.77-6.67 11.5-15.97 11.5-14.93 0-21.11-15.95-21.11-34.62 0-21.96 7.82-34.77 20.74-34.77 8.64 0 13.41 5.51 15.49 10.72h.24v-40.39m-11.41 87.16c8.51 0 11.42-10.31 11.42-22.97 0-13.09-3.25-22.62-11.18-22.62-8.04 0-10.84 8.75-10.84 22.21 0 15.53 2.2 23.38 10.6 23.38" class="st1" clip-path="url(#SVGID_2_)"/><path id="path76" fill="#FFF" d="M4275.56 2449.11h14.93v15.93h-14.93m.25 12.68h14.46V2545h-14.46z" class="st1" clip-path="url(#SVGID_2_)"/><path id="path78" fill="#FFF" d="M4306.49 2481.65c4.07-2.09 9.76-4.96 18.99-4.96 18.66 0 22.95 10.17 22.95 27.04v29.41c0 4.82.46 9.28.8 11.87h-13.03c-.69-2.59-.82-5.85-.82-9.12h-.25c-3.6 5.48-8.16 10.17-16.78 10.17-9.31 0-17.96-7.17-17.96-19.73 0-18.27 13.29-22.87 31.6-22.87h2.92v-2.48c0-6.67-2.92-12.79-11.21-12.79-7.19 0-13.63 3.91-16.41 6.52m27.63 17.39h-1.29c-12.34 0-19.69 2.88-19.69 12.68 0 6.15 3.61 10.33 9.2 10.33 8.64 0 11.78-7.18 11.78-19.23z" class="st1" clip-path="url(#SVGID_2_)"/><path id="rect80" fill="#FFF" d="M4362.0801 2447.01h14.45v98.010002h-14.45z" class="st1" clip-path="url(#SVGID_2_)"/><path id="path82" fill="#FFF" d="M4471.62 2447.01v86.52c0 4.84.12 9.04.49 11.5h-13.52c-.22-1.96-.47-5.88-.47-10.46h-.36c-2.32 5.77-6.66 11.5-15.96 11.5-14.93 0-21.11-15.95-21.11-34.62 0-21.96 7.81-34.77 20.73-34.77 8.64 0 13.42 5.51 15.52 10.72h.22v-40.39m-11.39 87.16c8.48 0 11.4-10.31 11.4-22.97 0-13.09-3.27-22.62-11.18-22.62-8.04 0-10.84 8.75-10.84 22.21 0 15.53 2.19 23.38 10.62 23.38" class="st1" clip-path="url(#SVGID_2_)"/><path id="path84" fill="#FFF" d="M4486.68 2481.65c4.07-2.09 9.76-4.96 18.99-4.96 18.65 0 22.95 10.17 22.95 27.04v29.41c0 4.82.47 9.28.81 11.87h-13.05c-.69-2.59-.81-5.85-.81-9.12h-.26c-3.6 5.48-8.15 10.17-16.78 10.17-9.3 0-17.95-7.17-17.95-19.73 0-18.27 13.3-22.87 31.6-22.87h2.92v-2.48c0-6.67-2.92-12.79-11.2-12.79-7.21 0-13.63 3.91-16.41 6.52m27.62 17.39h-1.29c-12.34 0-19.68 2.88-19.68 12.68 0 6.15 3.6 10.33 9.19 10.33 8.62 0 11.78-7.18 11.78-19.23z" class="st1" clip-path="url(#SVGID_2_)"/><path id="path86" fill="#FFF" d="M4571.05 2527.4c2.92 2.09 9.31 5.6 17.25 5.6 6.53 0 12.35-4.04 12.35-13.19 0-6.52-3.35-9.41-10.6-13.83l-7.6-4.71c-8.01-4.97-13.26-12.17-13.26-23.91 0-16.32 11.99-24.83 25.63-24.83 8.65 0 14.69 2.48 17.03 3.25l-.71 13.98c-3.59-1.57-8.4-3.92-15.27-3.92-7.46 0-11.3 4.46-11.3 10.72 0 6.8 4.06 9.41 8.61 12.28l8.75 5.48c9.56 6 14.11 11.79 14.11 24.6 0 18.54-11.76 27.43-27.28 27.43-8.15 0-14.46-1.33-18.53-4.06" class="st1" clip-path="url(#SVGID_2_)"/><path id="path88" fill="#FFF" d="M4629.49 2481.65c4.07-2.09 9.77-4.96 18.99-4.96 18.66 0 22.96 10.17 22.96 27.04v29.41c0 4.82.47 9.28.8 11.87h-13.03c-.7-2.59-.82-5.85-.82-9.12h-.25c-3.61 5.48-8.17 10.17-16.78 10.17-9.32 0-17.95-7.17-17.95-19.73 0-18.27 13.28-22.87 31.59-22.87h2.92v-2.48c0-6.67-2.92-12.79-11.2-12.79-7.19 0-13.63 3.91-16.41 6.52m27.61 17.39h-1.29c-12.34 0-19.69 2.88-19.69 12.68 0 6.15 3.61 10.33 9.2 10.33 8.64 0 11.78-7.18 11.78-19.23z" class="st1" clip-path="url(#SVGID_2_)"/><path id="path90" fill="#FFF" d="M4728.88 2533.93c0 4.18.12 8.09.45 11.09h-13.5c-.12-3.39-.48-6.92-.48-10.3l-.34-.15.08.15c-2.78 4.97-6.51 11.35-15.95 11.35-13.63 0-17.71-11.35-17.71-24.95v-43.4h14.45v40.39c0 10.34 2.57 14.63 8.62 14.63 7.7 0 9.92-7.83 9.92-16.47v-38.54h14.45m-23.07-26.27h13.52l-11.89 18.81h-9.08z" class="st1" clip-path="url(#SVGID_2_)"/><path id="path92" fill="#FFF" d="M4790.63 2447.01v86.52c0 4.84.12 9.04.47 11.5h-13.53c-.21-1.96-.46-5.88-.46-10.46h-.35c-2.32 5.77-6.65 11.5-15.97 11.5-14.92 0-21.11-15.95-21.11-34.62 0-21.96 7.83-34.77 20.74-34.77 8.65 0 13.41 5.51 15.51 10.72h.24v-40.39m-11.41 87.16c8.5 0 11.42-10.31 11.42-22.97 0-13.09-3.26-22.62-11.19-22.62-8.04 0-10.83 8.75-10.83 22.21 0 15.53 2.2 23.38 10.6 23.38" class="st1" clip-path="url(#SVGID_2_)"/><path id="path94" fill="#FFF" d="M4846.25 2541.77c-3.03 1.44-9.33 4.31-17.93 4.31-19.36 0-27.75-15.53-27.75-33.71 0-20.13 9.44-35.68 24.7-35.68 12.95 0 24.01 8.49 24.01 35.93v3.16h-34.74c0 11.5 4.08 18.43 15.27 18.43 8.86 0 13.07-3.01 15.73-5.25m-10.24-23.39c0-11.89-3.5-17.91-10.03-17.91-7.55 0-10.73 9.02-10.73 17.91z" class="st1" clip-path="url(#SVGID_2_)"/><path id="polygon96" fill="#FFF" d="M3583.32 2661.86h-9.86v9.23h9.34v5.06h-9.34v10.21h10.28v5.07h-15.57v-34.63h15.15z" class="st1" clip-path="url(#SVGID_2_)"/><path id="path98" fill="#FFF" d="M3587.42 2684.74c1.03.79 3.3 2.13 6.11 2.13 2.33 0 4.39-1.53 4.39-5.01 0-2.49-1.2-3.57-3.75-5.26l-2.7-1.79c-2.85-1.88-4.69-4.61-4.69-9.09 0-6.19 4.24-9.42 9.09-9.42 3.04 0 5.19.93 6 1.24l-.23 5.31c-1.28-.61-2.98-1.48-5.41-1.48-2.66 0-4.03 1.67-4.03 4.06 0 2.57 1.47 3.57 3.07 4.65l3.11 2.08c3.37 2.29 4.98 4.49 4.98 9.34 0 7.05-4.16 10.42-9.65 10.42-2.89 0-5.13-.5-6.56-1.55z" class="st1" clip-path="url(#SVGID_2_)"/><path id="path100" fill="#FFF" d="M3625.75 2690.69c-1.07.69-3.63 1.24-6.25 1.24-8.75 0-13.25-7.68-13.25-17.81 0-10.11 4.5-17.81 13.09-17.81 2.92 0 5.34.93 6.41 1.45l-.29 5.7c-1.09-.65-2.8-1.89-5.45-1.89-4.4 0-8.14 3.56-8.14 12.55 0 8.98 3.74 12.56 8.14 12.56 2.56 0 4.25-.74 5.45-1.8z" class="st1" clip-path="url(#SVGID_2_)"/><path id="path102" fill="#FFF" d="M3629.1 2656.79h8.99c5.13 0 8.58 2.79 8.58 9.13 0 4.51-2.35 7.55-5.56 8.15v.14c1.06.21 2.25.77 3.17 4.03l3.75 13.2h-5.6l-2.85-11.26c-.71-2.73-2.06-3.62-4.02-3.62h-1.2v14.88h-5.27v-34.65zm7.44 15.1c2.79 0 4.7-1.74 4.7-5.26 0-3.99-1.74-4.96-4.7-4.96h-2.16v10.22z" class="st1" clip-path="url(#SVGID_2_)"/><path id="rect104" fill="#FFF" d="M3651.3701 2656.8h5.27v34.610001h-5.27z" class="st1" clip-path="url(#SVGID_2_)"/><path id="polygon106" fill="#FFF" d="M3659.62 2656.81h18.12v5.06h-6.41v29.56h-5.27v-29.56h-6.44z" class="st1" clip-path="url(#SVGID_2_)"/><path id="path108" fill="#FFF" d="M3689.18 2656.29c5.99 0 11.48 5.36 11.48 17.82s-5.49 17.82-11.48 17.82-11.46-5.36-11.46-17.82 5.46-17.82 11.46-17.82m0 30.78c3.35 0 6.02-3.43 6.02-12.96 0-9.53-2.67-12.94-6.02-12.94-3.34 0-6.01 3.41-6.01 12.94-.01 9.53 2.66 12.96 6.01 12.96" class="st1" clip-path="url(#SVGID_2_)"/><path id="path110" fill="#FFF" d="M3704.39 2656.79h8.99c5.13 0 8.58 2.79 8.58 9.13 0 4.51-2.35 7.55-5.56 8.15v.14c1.06.21 2.25.77 3.17 4.03l3.75 13.2h-5.6l-2.85-11.26c-.71-2.73-2.06-3.62-4.02-3.62h-1.2v14.88h-5.27v-34.65zm7.43 15.1c2.79 0 4.71-1.74 4.71-5.26 0-3.99-1.74-4.96-4.71-4.96h-2.16v10.22z" class="st1" clip-path="url(#SVGID_2_)"/><path id="rect112" fill="#FFF" d="M3726.51 2656.8h5.29v34.610001h-5.29z" class="st1" clip-path="url(#SVGID_2_)"/><path id="path114" fill="#FFF" d="M3747.24 2656.29c5.99 0 11.48 5.36 11.48 17.82s-5.49 17.82-11.48 17.82-11.46-5.36-11.46-17.82 5.47-17.82 11.46-17.82m0 30.78c3.35 0 6.02-3.43 6.02-12.96 0-9.53-2.67-12.94-6.02-12.94-3.34 0-6.01 3.41-6.01 12.94s2.67 12.96 6.01 12.96" class="st1" clip-path="url(#SVGID_2_)"/><path id="path116" fill="#FFF" d="M3772.12 2656.79h8.99c5.13 0 8.58 2.79 8.58 9.13 0 4.51-2.35 7.55-5.57 8.15v.14c1.06.21 2.26.77 3.18 4.03l3.75 13.2h-5.6l-2.85-11.26c-.72-2.73-2.06-3.62-4.02-3.62h-1.2v14.88h-5.27v-34.65zm7.43 15.1c2.79 0 4.7-1.74 4.7-5.26 0-3.99-1.74-4.96-4.7-4.96h-2.16v10.22z" class="st1" clip-path="url(#SVGID_2_)"/><path id="polygon118" fill="#FFF" d="M3809.43 2661.86h-9.86v9.23h9.34v5.06h-9.34v10.21h10.28v5.07h-15.57v-34.63h15.15z" class="st1" clip-path="url(#SVGID_2_)"/><path id="path120" fill="#FFF" d="M3825.38 2672.03h9.32v18.11c-1.48.94-4.04 1.79-7.8 1.79-9.23 0-14.14-7.54-14.14-17.81s4.91-17.81 14.14-17.81c3.3 0 5.91.89 7.03 1.48l-.29 5.72c-1.7-1.24-3.99-2.13-6.65-2.13-5.61 0-8.63 5.55-8.63 12.75 0 7.79 2.95 12.75 8.35 12.75 1.24 0 2.34-.3 3.03-.64v-9.34h-4.36z" class="st1" clip-path="url(#SVGID_2_)"/><path id="rect122" fill="#FFF" d="M3839.6699 2656.8h5.27v34.610001h-5.27z" class="st1" clip-path="url(#SVGID_2_)"/><path id="path124" fill="#FFF" d="M3860.4 2656.29c5.99 0 11.47 5.36 11.47 17.82s-5.48 17.82-11.47 17.82-11.47-5.36-11.47-17.82 5.47-17.82 11.47-17.82m0 30.78c3.35 0 6.02-3.43 6.02-12.96 0-9.53-2.67-12.94-6.02-12.94-3.35 0-6.02 3.41-6.02 12.94-.01 9.53 2.66 12.96 6.02 12.96" class="st1" clip-path="url(#SVGID_2_)"/><path id="polygon126" fill="#FFF" d="M3891.64 2683.99h.05v-27.19h4.81v34.63h-6.32l-9.55-26.98h-.08v26.98h-4.78v-34.63h6.28z" class="st1" clip-path="url(#SVGID_2_)"/><path id="path128" fill="#FFF" d="M3916.06 2683.1h-9.9l-2.06 8.34h-5.28l9.68-34.63h5.78l9.28 34.63h-5.46zm-1.09-4.87l-3.64-16.17h-.08l-3.96 16.17z" class="st1" clip-path="url(#SVGID_2_)"/><path id="polygon130" fill="#FFF" d="M3930.86 2686.36h9.49v5.07h-14.76v-34.63h5.27z" class="st1" clip-path="url(#SVGID_2_)"/><path id="path132" fill="#FFF" d="M3952.71 2656.81h8.26c5.93 0 9.05 3.96 9.05 10.52 0 6.55-3.12 10.57-9.05 10.57H3958v13.53h-5.29zm7.26 16.21c3.3 0 4.75-1.92 4.75-5.7 0-3.78-1.45-5.68-4.75-5.68H3958v11.37h1.97z" class="st1" clip-path="url(#SVGID_2_)"/><path id="path134" fill="#FFF" d="M3984.74 2683.1h-9.91l-2.06 8.34h-5.28l9.68-34.63h5.78l9.28 34.63h-5.46zm-1.1-4.87l-3.63-16.17h-.09l-3.96 16.17z" class="st1" clip-path="url(#SVGID_2_)"/><path id="path136" fill="#FFF" d="M3994.12 2656.79h9c5.14 0 8.59 2.79 8.59 9.13 0 4.51-2.36 7.55-5.57 8.15v.14c1.06.21 2.26.77 3.17 4.03l3.76 13.2h-5.6l-2.86-11.26c-.71-2.73-2.05-3.62-4.02-3.62h-1.19v14.88h-5.29v-34.65zm7.43 15.1c2.81 0 4.72-1.74 4.72-5.26 0-3.99-1.74-4.96-4.72-4.96h-2.14v10.22z" class="st1" clip-path="url(#SVGID_2_)"/><path id="path138" fill="#FFF" d="M4030.75 2683.1h-9.9l-2.06 8.34h-5.29l9.68-34.63h5.79l9.28 34.63h-5.46zm-1.12-4.87l-3.62-16.17h-.09l-3.95 16.17z" class="st1" clip-path="url(#SVGID_2_)"/><path id="path140" fill="#FFF" d="M4062.42 2683.1h-9.91l-2.06 8.34h-5.28l9.68-34.63h5.78l9.28 34.63h-5.45zm-1.11-4.87l-3.62-16.17h-.09l-3.96 16.17z" class="st1" clip-path="url(#SVGID_2_)"/><path id="path142" fill="#FFF" d="M4071.85 2684.74c1.03.79 3.3 2.13 6.1 2.13 2.33 0 4.4-1.53 4.4-5.01 0-2.49-1.2-3.57-3.75-5.26l-2.7-1.79c-2.85-1.88-4.69-4.61-4.69-9.09 0-6.19 4.24-9.42 9.08-9.42 3.05 0 5.19.93 6.01 1.24l-.23 5.31c-1.28-.61-2.98-1.48-5.41-1.48-2.66 0-4.03 1.67-4.03 4.06 0 2.57 1.47 3.57 3.06 4.65l3.12 2.08c3.36 2.29 4.97 4.49 4.97 9.34 0 7.05-4.15 10.42-9.64 10.42-2.9 0-5.14-.5-6.57-1.55z" class="st1" clip-path="url(#SVGID_2_)"/><path id="polyline144" fill="#FFF" d="M4274.45 2627.78l8.82-21.27h13.26l-13.26 21.27" class="st1" clip-path="url(#SVGID_2_)"/><path id="polyline146" fill="#FFF" d="M3687.02 2654.04l4.4-10.63h6.63l-6.63 10.63" class="st1" clip-path="url(#SVGID_2_)"/><path id="path148" fill="#FFF" d="M2696.04 2313.35c20.35 0 39.02 16.15 39.02 53.7 0 37.56-18.67 53.7-39.02 53.7s-39.02-16.15-39.02-53.7c0-37.54 18.67-53.7 39.02-53.7m0 92.75c11.37 0 20.48-10.32 20.48-39.05 0-28.72-9.11-39.05-20.48-39.05-11.37 0-20.49 10.33-20.49 39.05 0 28.73 9.12 39.05 20.49 39.05" class="st1" clip-path="url(#SVGID_2_)"/><path id="path150" fill="#FFF" d="M2747.82 2354.94c0-4.79-.14-9.28-.56-12.71h15.71c.15 4.64.57 9.43.57 14.07h.28c2.11-6 7.59-15.26 18.39-15.26 1.12 0 1.96.3 2.95.44v17.37c-1.54-.46-3.09-.75-4.9-.75-7.16 0-15.02 4.62-15.02 18.99v42.18h-17.41" class="st1" clip-path="url(#SVGID_2_)"/><path id="path152" fill="#FFF" d="M2795.43 2431.24c4.06 2.39 12.2 6.58 21.32 6.58 16.42 0 19.08-12.12 19.08-24.24v-7.31h-.28c-2.81 5.98-7.73 13-19.08 13-10.11 0-25.24-7.17-25.24-38.28 0-21.26 7.14-39.95 26.09-39.95 10.51 0 15.43 6.44 19.08 13.17h.55c0-4.05.44-7.93.59-11.98h15.71c-.28 4.05-.56 8.08-.56 12.12v56.85c0 24.08-6.88 41.3-33.41 41.3-11.49 0-20.61-3.15-24.83-4.8m26.1-42.04c10.93 0 15.28-8.38 15.28-25.88 0-16.16-5.75-24.84-14.03-24.69-9.12.15-12.62 9.13-12.62 24.85 0 18.07 5.46 25.72 11.37 25.72" class="st1" clip-path="url(#SVGID_2_)"/><path id="path154" fill="#FFF" d="M2869.95 2346.71c4.91-2.39 11.77-5.68 22.86-5.68 22.45 0 27.66 11.67 27.66 30.97v33.66c0 5.52.55 10.61.96 13.6h-15.71c-.84-3-.97-6.74-.97-10.48h-.3c-4.35 6.3-9.81 11.68-20.19 11.68-11.24 0-21.62-8.23-21.62-22.59 0-20.95 16.02-26.19 38.04-26.19h3.51v-2.84c0-7.63-3.51-14.67-13.47-14.67-8.7 0-16.43 4.49-19.82 7.47m33.28 19.93h-1.55c-14.88 0-23.72 3.28-23.72 14.53 0 7.03 4.34 11.81 11.08 11.81 10.39 0 14.18-8.24 14.18-22v-4.34z" class="st1" clip-path="url(#SVGID_2_)"/><path id="path156" fill="#FFF" d="M2934.48 2354.94c0-4.79-.15-9.28-.57-12.71h16.28c.15 3.88.57 7.92.57 11.82h.44-.16c2.53-4.63 7.44-13.01 19.21-13.01 16.43 0 21.34 13.01 21.34 28.57v49.66h-17.42v-46.22c0-11.81-2.79-16.74-9.96-16.74-9.12 0-12.34 8.21-12.34 18.09v44.87h-17.4" class="st1" clip-path="url(#SVGID_2_)"/><path id="path158" fill="#FFF" d="M3006.61 2309.45h17.96v18.28h-17.96m.29 14.5h17.42v77.03h-17.42z" class="st1" clip-path="url(#SVGID_2_)"/><path id="polyline160" fill="#FFF" d="M3035.66 2403.26l30.88-46.96h-29.88v-14.06h47.28v15.84l-30.31 47.12h31.28v14.06h-49.25" class="st1" clip-path="url(#SVGID_2_)"/><path id="path162" fill="#FFF" d="M3098.11 2346.71c4.91-2.39 11.78-5.68 22.86-5.68 22.45 0 27.66 11.67 27.66 30.97v33.66c0 5.52.55 10.61.97 13.6h-15.72c-.84-3-.96-6.74-.96-10.48h-.3c-4.35 6.3-9.81 11.68-20.2 11.68-11.23 0-21.61-8.23-21.61-22.59 0-20.95 16.01-26.19 38.03-26.19h3.51v-2.84c0-7.63-3.51-14.67-13.48-14.67-8.69 0-16.41 4.49-19.79 7.47m33.27 19.93h-1.54c-14.87 0-23.72 3.28-23.72 14.53 0 7.03 4.34 11.81 11.07 11.81 10.39 0 14.18-8.24 14.18-22v-4.34z" class="st1" clip-path="url(#SVGID_2_)"/><path id="path164" fill="#FFF" d="M3211.78 2417.31c-4.09 1.65-10.12 3.15-17.13 3.15h-.85l-2.51 8.08c1.39-.45 3.09-.89 5.47-.89 7.73 0 12.22 4.63 12.22 11.06 0 9.43-8.71 13.77-15.59 13.77-5.88 0-11.93-1.5-14.73-3l2.23-5.98c2.82 1.05 5.64 2.1 9.83 2.1 4.63 0 7.29-2.56 7.29-6.15 0-3.43-2.66-5.53-6.45-5.53-2.53 0-4.21.46-5.48 1.04l-2.52-2.54 4.21-12.56c-19.08-3.28-27.09-19.6-27.09-39.06 0-21.98 10.67-39.77 34.94-39.77 5.48 0 11.93 1.79 15.16 3.13l-.97 14.67c-3.1-1.64-7.44-3.74-12.23-3.74-13.18 0-18.93 9.42-18.93 25.89 0 14.36 6.45 25.41 19.78 25.41 4.22 0 9.96-2.08 12.35-3.73" class="st1" clip-path="url(#SVGID_2_)"/><path id="path166" fill="#FFF" d="M3223.85 2346.71c4.91-2.39 11.78-5.68 22.86-5.68 22.46 0 27.66 11.67 27.66 30.97v33.66c0 5.52.55 10.61.97 13.6h-15.72c-.84-3-.96-6.74-.96-10.48h-.3c-4.35 6.3-9.81 11.68-20.2 11.68-11.23 0-21.61-8.23-21.61-22.59 0-20.95 16.02-26.19 38.03-26.19h3.51v-2.84c0-7.63-3.51-14.67-13.47-14.67-8.7 0-16.42 4.49-19.8 7.47m1.69-29.58c0-5.26 2.66-17.22 13.18-17.51 6.48 0 11.94 5.09 16.14 5.09 2.83 0 4.08-2.83 4.08-5.83h8.71c0 4.33-2.68 17.5-13.08 17.5-5.46 0-10.65-5.1-15.7-5.1-3.51 0-5.19 2.7-5.19 5.85zm31.57 49.51h-1.54c-14.87 0-23.73 3.28-23.73 14.53 0 7.03 4.35 11.81 11.09 11.81 10.38 0 14.17-8.24 14.17-22v-4.34z" class="st1" clip-path="url(#SVGID_2_)"/><path id="path168" fill="#FFF" d="M3318.28 2341.03c14.73 0 31.71 8.23 31.71 39.63 0 32.31-16.99 39.8-31.71 39.8-14.74 0-31.85-7.49-31.85-39.8 0-31.41 17.11-39.63 31.85-39.63m0 66.27c11.22 0 13.75-13.77 13.75-26.64 0-12.85-2.53-26.46-13.75-26.46-11.23 0-13.89 13.61-13.89 26.46 0 12.87 2.66 26.64 13.89 26.64" class="st1" clip-path="url(#SVGID_2_)"/><path id="path170" fill="#FFF" d="M2660.13 2446.06h28.05c20.2 0 30.75 11.98 30.75 31.72 0 19.75-10.55 31.86-30.75 31.86h-10.1v40.83h-17.95m24.69-55.48c11.22 0 16.13-5.83 16.13-17.2s-4.91-17.06-16.13-17.06h-6.74v34.25h6.74z" class="st1" clip-path="url(#SVGID_2_)"/><path id="path172" fill="#FFF" d="M2724.97 2477.93c4.91-2.4 11.78-5.68 22.86-5.68 22.45 0 27.65 11.66 27.65 30.96v33.67c0 5.54.56 10.61.97 13.6h-15.72c-.83-3-.96-6.73-.96-10.46h-.29c-4.35 6.27-9.82 11.65-20.2 11.65-11.23 0-21.61-8.22-21.61-22.58 0-20.95 16-26.17 38.03-26.17h3.51v-2.86c0-7.63-3.51-14.65-13.48-14.65-8.7 0-16.42 4.47-19.8 7.45m33.27 19.92h-1.54c-14.87 0-23.73 3.3-23.73 14.53 0 7.03 4.36 11.81 11.08 11.81 10.39 0 14.18-8.24 14.18-22v-4.34z" class="st1" clip-path="url(#SVGID_2_)"/><path id="path174" fill="#FFF" d="M2789.51 2486.17c0-4.79-.15-9.3-.58-12.72h16.28c.15 3.88.57 7.93.57 11.81h.43-.15c2.53-4.63 7.44-13 19.21-13 16.43 0 21.34 13 21.34 28.57v49.66h-17.41v-46.23c0-11.81-2.79-16.75-9.95-16.75-9.12 0-12.35 8.24-12.35 18.11v44.87h-17.39" class="st1" clip-path="url(#SVGID_2_)"/><path id="rect176" fill="#FFF" d="M2858.27 2500.3799h32.43v15.26h-32.43z" class="st1" clip-path="url(#SVGID_2_)"/><path id="path178" fill="#FFF" d="M2953.97 2525.37h-33.69l-7.02 25.12h-17.95l32.84-104.42h19.65l31.57 104.42h-18.53m-10.66-39.8l-12.34-48.77h-.29l-13.47 48.77z" class="st1" clip-path="url(#SVGID_2_)"/><path id="path180" fill="#FFF" d="M2985.54 2486.01c0-5.55-.27-9.71-.57-12.57h17.4c.15 4.05.57 8.08.57 12.13h.28c2.68-5.96 8.28-13.33 18.24-13.33 12.22 0 16.14 8.08 18.24 12.28 3.52-5.4 8.71-12.28 19.38-12.28 15.71 0 20.77 11.98 20.77 30.68v47.56h-17.41v-48.61c0-9.59-2.81-14.37-9.28-14.37-7.7 0-11.77 7.78-11.77 16.32v46.66h-17.41v-48.61c0-9.59-2.8-14.37-9.27-14.37-7.71 0-11.78 7.78-11.78 16.32v46.66h-17.4" class="st1" clip-path="url(#SVGID_2_)"/><path id="path182" fill="#FFF" d="M3146.06 2546.73c-3.64 1.67-11.21 4.94-21.61 4.94-23.27 0-33.37-17.79-33.37-38.58 0-23.05 11.35-40.85 29.74-40.85 15.59 0 28.91 9.72 28.91 41.13v3.6h-41.82c0 13.17 4.93 21.1 18.38 21.1 10.67 0 15.72-3.44 18.95-5.99m-12.35-26.77c0-13.62-4.22-20.49-12.08-20.49-9.14 0-12.91 10.31-12.91 20.49z" class="st1" clip-path="url(#SVGID_2_)"/><path id="path184" fill="#FFF" d="M3161.66 2486.17c0-4.79-.16-9.3-.58-12.72h15.72c.14 4.64.58 9.42.58 14.05h.27c2.1-5.98 7.58-15.24 18.38-15.24 1.13 0 1.97.29 2.97.44v17.36c-1.57-.44-3.1-.75-4.91-.75-7.16 0-15.03 4.65-15.03 19.01v42.17h-17.39" class="st1" clip-path="url(#SVGID_2_)"/><path id="path186" fill="#FFF" d="M3209.8 2440.68h17.95v18.27h-17.95m.26 14.49h17.4v77.05h-17.4z" class="st1" clip-path="url(#SVGID_2_)"/><path id="path188" fill="#FFF" d="M3291.88 2548.54c-4.07 1.65-10.11 3.14-17.15 3.14-23.83 0-33.94-17.79-33.94-39.64 0-21.99 10.67-39.77 34.95-39.77 5.46 0 11.92 1.79 15.14 3.14l-.96 14.65c-3.12-1.64-7.44-3.73-12.24-3.73-13.18 0-18.93 9.43-18.93 25.88 0 14.35 6.45 25.44 19.78 25.44 4.22 0 9.97-2.11 12.35-3.75" class="st1" clip-path="url(#SVGID_2_)"/><path id="path190" fill="#FFF" d="M3303.94 2477.93c4.92-2.4 11.79-5.68 22.87-5.68 22.46 0 27.66 11.66 27.66 30.96v33.67c0 5.54.55 10.61.97 13.6h-15.71c-.85-3-.98-6.73-.98-10.46h-.29c-4.35 6.27-9.81 11.65-20.2 11.65-11.23 0-21.61-8.22-21.61-22.58 0-20.95 16.01-26.17 38.03-26.17h3.51v-2.86c0-7.63-3.51-14.65-13.48-14.65-8.7 0-16.42 4.47-19.79 7.45m33.26 19.92h-1.54c-14.87 0-23.72 3.3-23.72 14.53 0 7.03 4.35 11.81 11.07 11.81 10.4 0 14.18-8.24 14.18-22v-4.34z" class="st1" clip-path="url(#SVGID_2_)"/><path id="path192" fill="#FFF" d="M3368.5 2486.17c0-4.79-.16-9.3-.58-12.72h16.3c.14 3.88.56 7.93.56 11.81h.43-.15c2.52-4.63 7.43-13 19.2-13 16.44 0 21.35 13 21.35 28.57v49.66h-17.41v-46.23c0-11.81-2.81-16.75-9.96-16.75-9.12 0-12.35 8.24-12.35 18.11v44.87h-17.4" class="st1" clip-path="url(#SVGID_2_)"/><path id="path194" fill="#FFF" d="M3442.73 2477.93c4.91-2.4 11.78-5.68 22.86-5.68 22.46 0 27.66 11.66 27.66 30.96v33.67c0 5.54.55 10.61.97 13.6h-15.73c-.83-3-.95-6.73-.95-10.46h-.3c-4.35 6.27-9.81 11.65-20.2 11.65-11.23 0-21.61-8.22-21.61-22.58 0-20.95 16.02-26.17 38.03-26.17h3.51v-2.86c0-7.63-3.51-14.65-13.48-14.65-8.69 0-16.41 4.47-19.81 7.45m33.28 19.92h-1.54c-14.88 0-23.73 3.3-23.73 14.53 0 7.03 4.36 11.81 11.09 11.81 10.38 0 14.17-8.24 14.17-22v-4.34z" class="st1" clip-path="url(#SVGID_2_)"/><path id="path196" fill="#FFF" d="M2717.8 2569.5v99.05c0 5.52.13 10.3.55 13.15h-16.26c-.3-2.24-.58-6.73-.58-11.96h-.42c-2.8 6.58-8.01 13.16-19.21 13.16-17.97 0-25.41-18.26-25.41-39.64 0-25.13 9.41-39.8 25.01-39.8 10.35 0 16.13 6.3 18.65 12.27h.28v-46.23m-13.77 99.78c10.24 0 13.75-11.81 13.75-26.32 0-14.96-3.94-25.88-13.48-25.88-9.68 0-13.05 10.01-13.05 25.43.01 17.8 2.66 26.77 12.78 26.77" class="st1" clip-path="url(#SVGID_2_)"/><path id="path198" fill="#FFF" d="M2735.2 2609.16c4.9-2.39 11.77-5.7 22.85-5.7 22.47 0 27.67 11.68 27.67 30.98v33.65c0 5.54.55 10.63.96 13.62h-15.72c-.84-3-.96-6.74-.96-10.48h-.3c-4.34 6.29-9.81 11.67-20.19 11.67-11.24 0-21.62-8.24-21.62-22.59 0-20.95 16.02-26.17 38.03-26.17h3.5v-2.85c0-7.63-3.5-14.67-13.47-14.67-8.7 0-16.41 4.48-19.8 7.48m33.28 19.92h-1.54c-14.87 0-23.72 3.27-23.72 14.5 0 7.05 4.36 11.82 11.08 11.82 10.39 0 14.17-8.24 14.17-21.98v-4.34z" class="st1" clip-path="url(#SVGID_2_)"/><path id="path200" fill="#FFF" d="M2835.39 2661.5c3.51 2.39 11.22 6.45 20.77 6.45 7.85 0 14.87-4.65 14.87-15.11 0-7.48-4.08-10.77-12.76-15.87l-9.13-5.4c-9.69-5.67-16.03-13.88-16.03-27.34 0-18.72 14.49-28.44 30.89-28.44 10.4 0 17.69 2.85 20.48 3.73l-.83 16.03c-4.36-1.8-10.1-4.5-18.39-4.5-8.98 0-13.59 5.1-13.59 12.28 0 7.77 4.9 10.78 10.39 14.04l10.5 6.29c11.52 6.88 16.99 13.46 16.99 28.12 0 21.25-14.18 31.43-32.84 31.43-9.82 0-17.4-1.5-22.32-4.62" class="st1" clip-path="url(#SVGID_2_)"/><path id="path202" fill="#FFF" d="M2905.69 2609.16c4.92-2.39 11.78-5.7 22.87-5.7 22.45 0 27.65 11.68 27.65 30.98v33.65c0 5.54.56 10.63.97 13.62h-15.72c-.83-3-.96-6.74-.96-10.48h-.29c-4.35 6.29-9.81 11.67-20.21 11.67-11.22 0-21.61-8.24-21.61-22.59 0-20.95 16.02-26.17 38.04-26.17h3.51v-2.85c0-7.63-3.51-14.67-13.48-14.67-8.7 0-16.42 4.48-19.8 7.48m33.27 19.92h-1.54c-14.88 0-23.73 3.27-23.73 14.5 0 7.05 4.36 11.82 11.08 11.82 10.38 0 14.18-8.24 14.18-21.98v-4.34z" class="st1" clip-path="url(#SVGID_2_)"/><path id="path204" fill="#FFF" d="M3027.36 2668.99c0 4.78.13 9.26.54 12.72h-16.25c-.16-3.9-.58-7.94-.58-11.83l-.42-.14.14.14c-3.36 5.7-7.85 13.02-19.22 13.02-16.41 0-21.31-13.02-21.31-28.58v-49.67h17.4v46.21c0 11.83 3.07 16.78 10.38 16.78 9.25 0 11.93-8.98 11.93-18.84v-44.15h17.41m-27.8-30.06h16.26l-14.32 21.55h-10.92z" class="st1" clip-path="url(#SVGID_2_)"/><path id="path206" fill="#FFF" d="M3100.33 2569.5v99.05c0 5.52.12 10.3.57 13.15h-16.28c-.31-2.24-.57-6.73-.57-11.96h-.43c-2.8 6.58-8 13.16-19.2 13.16-17.98 0-25.41-18.26-25.41-39.64 0-25.13 9.39-39.8 24.99-39.8 10.36 0 16.13 6.3 18.65 12.27h.3v-46.23m-13.78 99.78c10.23 0 13.76-11.81 13.76-26.32 0-14.96-3.95-25.88-13.49-25.88-9.69 0-13.05 10.01-13.05 25.43.01 17.8 2.66 26.77 12.78 26.77" class="st1" clip-path="url(#SVGID_2_)"/><path id="path208" fill="#FFF" d="M3167.24 2677.97c-3.64 1.64-11.21 4.94-21.61 4.94-23.28 0-33.38-17.82-33.38-38.61 0-23.03 11.36-40.85 29.74-40.85 15.59 0 28.91 9.73 28.91 41.15v3.59h-41.82c0 13.17 4.92 21.09 18.39 21.09 10.66 0 15.72-3.43 18.94-5.99m-12.35-26.76c0-13.61-4.21-20.48-12.08-20.48-9.13 0-12.91 10.32-12.91 20.48z" class="st1" clip-path="url(#SVGID_2_)"/><path id="path210" fill="#FFF" d="M2408.57 2705.87c-116.91 0-212.02-93.48-212.02-208.34 0-114.88 95.1-208.34 212.02-208.34 116.9 0 212.01 93.46 212.01 208.34 0 114.86-95.1 208.34-212.01 208.34m0-407.14c-111.57 0-202.31 89.17-202.31 198.8 0 109.61 90.75 198.78 202.31 198.78s202.31-89.17 202.31-198.78c.01-109.63-90.74-198.8-202.31-198.8" class="st1" clip-path="url(#SVGID_2_)"/><path id="path212" fill="#FFF" d="M2408.57 2648.61c-87.05 0-157.85-67.77-157.85-151.09 0-83.3 70.8-151.06 157.85-151.06s157.86 67.76 157.86 151.06c0 83.32-70.81 151.09-157.86 151.09m0-291.51c-81.07 0-147.03 62.99-147.03 140.42 0 77.44 65.96 140.44 147.03 140.44 81.07 0 147.04-63 147.04-140.44 0-77.43-65.96-140.42-147.04-140.42" class="st1" clip-path="url(#SVGID_2_)"/><path id="polyline214" fill="#FFF" d="M2241.11 2425.04l2.77 10.2h10.13l-7.36 5.72 2.74 8.93-8.71-7.05-8.53 7.69 3.43-9.57-8.73-5.68 10.13.21" class="st1" clip-path="url(#SVGID_2_)"/><path id="path216" fill="#FFF" d="M2250.45 2451.41l-9.75-7.86-8.18 7.37-.88-.57 3.29-9.17-9.94-6.48 11.62.24 4.59-11.62 3.1 11.37h11.27l-8.3 6.46m-18.57-5.3l7.53 4.9-2.86 7.95 7.28-6.56 7.72 6.21-2.34-7.59 6.43-5h-8.99l-2.46-9.01-3.65 9.27z" class="st1" clip-path="url(#SVGID_2_)"/><path id="polyline218" fill="#FFF" d="M2564.5 2569.58l2.77 10.19h10.13l-7.35 5.73 2.75 8.95-8.76-7.06-8.51 7.68 3.44-9.57-8.76-5.69 10.16.21" class="st1" clip-path="url(#SVGID_2_)"/><path id="path220" fill="#FFF" d="M2573.85 2595.97l-9.77-7.89-8.2 7.39-.87-.58 3.32-9.17-9.97-6.48 11.63.24 4.61-11.61 3.08 11.37h11.26l-8.31 6.46m-18.55-5.31l7.55 4.91-2.86 7.94 7.24-6.56 7.76 6.23-2.36-7.59 6.44-5.02h-9l-2.46-9.02-3.68 9.3z" class="st1" clip-path="url(#SVGID_2_)"/><path id="polyline222" fill="#FFF" d="M2251.93 2567.3l2.78 10.2h10.13l-7.36 5.72 2.75 8.94-8.73-7.05-8.54 7.66 3.46-9.55-8.74-5.69 10.13.23" class="st1" clip-path="url(#SVGID_2_)"/><path id="path224" fill="#FFF" d="M2261.27 2593.69l-9.75-7.88-8.19 7.38-.87-.59 3.3-9.17-9.93-6.47 11.61.25 4.59-11.63 3.1 11.38h11.27l-8.31 6.44m-18.56-5.3l7.53 4.9-2.86 7.96 7.26-6.55 7.74 6.23-2.34-7.62 6.43-4.99h-9.01l-2.44-9.02-3.65 9.29z" class="st1" clip-path="url(#SVGID_2_)"/><path id="polyline226" fill="#FFF" d="M2577.06 2417.69l3.7 10.21h9.22l-7.37 5.71 2.74 8.96-8.29-7.57-8.95 8.21 3.43-9.6-8.75-5.68 10.15.22" class="st1" clip-path="url(#SVGID_2_)"/><path id="path228" fill="#FFF" d="M2586.45 2444.29l-9.39-8.55-8.6 7.86-.87-.57 3.31-9.19-9.96-6.46 11.63.24 4.53-11.44 4.04 11.21h10.4l-8.31 6.42m-18.59-5.29l7.55 4.89-2.86 7.93 7.72-7.06 7.2 6.56-2.29-7.41 6.45-4.99h-8.05l-3.33-9.22-3.75 9.49z" class="st1" clip-path="url(#SVGID_2_)"/><path id="path230" fill="#FFF" d="M2421.04 2497.47c.84-.03 1.73-.04 2.53 0" class="st1" clip-path="url(#SVGID_2_)"/><path id="polyline232" fill="#FFF" d="M2301.17 2615.9l4.44 3.99-21.12 22.44-4.75-4.31 5.76-24.37-.07-.06-15.06 15.99-4.43-4 21.13-22.43 5 4.54-5.68 23.76.09.06" class="st1" clip-path="url(#SVGID_2_)"/><path id="path234" fill="#FFF" d="M2416.47 2338.03l-6.89-.67 14.24-29.03 7.53.72 7.96 31.19-7.09-.69-1.39-6.4-11.56-1.11m2.28-5.04l7.99.76-2.67-12.27h-.08z" class="st1" clip-path="url(#SVGID_2_)"/><path id="polyline236" fill="#FFF" d="M2458.77 2339.47l14.85 4.66-1.81 5.14-21.09-6.58 9.95-28.48 6.25 1.95" class="st1" clip-path="url(#SVGID_2_)"/><path id="path238" fill="#FFF" d="M2506.6 2357.99c-4.49 6.64-10.55 6.88-17.16 2.77-2.38-1.48-5.58-4.3-6.2-8.25-.37-2.42.47-4.79 2.08-7.38l11.34-16.7 5.58 3.47-11.1 16.37c-2.36 3.5-1.31 6.36 1.2 7.95 3.78 2.36 6.5 1.56 8.57-1.51l11.25-16.61 5.56 3.51" class="st1" clip-path="url(#SVGID_2_)"/><path id="polyline240" fill="#FFF" d="M2520.81 2381.94l-5.08-3.99 16.61-19.04-7.3-5.76 3.56-4.11 19.69 15.57-3.58 4.11-7.29-5.8" class="st1" clip-path="url(#SVGID_2_)"/><path id="path242" fill="#FFF" d="M2381.73 2330.99c.33 1.68 1.72 4.72 7.38 3.92 3.05-.45 6.34-1.65 5.81-4.83-.41-2.34-2.83-2.65-6.24-2.93l-3.46-.27c-5.18-.4-10.19-.79-11.32-7.4-.57-3.34.31-9.52 10.36-10.99 9.49-1.36 13.04 4.3 13.7 7.98l-6.19.89c-.41-1.33-1.47-4.42-7.11-3.59-2.48.36-5.25 1.66-4.78 4.37.41 2.34 2.47 2.57 3.8 2.68l7.85.69c4.4.4 8.55 1.51 9.48 6.9 1.51 9.04-7.84 11.21-10.56 11.61-11.29 1.64-14.31-4.4-14.93-8.13" class="st1" clip-path="url(#SVGID_2_)"/><path id="path244" fill="#FFF" d="M2310.77 2331.83c3.67-1.87 14.14-5.21 20.95 7.41 6.8 12.58-2.04 19-5.71 20.85-3.68 1.85-14.16 5.19-20.96-7.41-6.78-12.6 2.05-19.01 5.72-20.85m12.69 23.5c3.14-1.57 6.52-5.67 2.48-13.17-4.06-7.52-9.49-7.17-12.62-5.59-3.11 1.58-6.5 5.68-2.46 13.18 4.04 7.52 9.47 7.17 12.6 5.58" class="st1" clip-path="url(#SVGID_2_)"/><path id="path246" fill="#FFF" d="M2265.6 2368.34l10.9-11.07c5.76-5.83 11.17-2.88 13.1-1.11 2.46 2.28 3.36 5.44 1.97 8.31 2.57-1.06 4.22-1.41 8.4 2.44 3.25 2.98 4.06 3.73 5.41 3.11l.59.53-5.01 5.06c-1.36-.65-2.68-1.53-4.97-3.62-3.04-2.83-4.41-3.73-7.74-.34l-4.65 4.74 8.71 8.04-4.41 4.48m-2.79-21.39c2.35-2.36 2.66-4.32.46-6.34-1.19-1.09-3.44-2.16-6.08.55l-5.64 5.68 5.95 5.51z" class="st1" clip-path="url(#SVGID_2_)"/><path id="polyline248" fill="#FFF" d="M2493.68 2633.73l5.3-2.84 15.19 26.12-5.71 3.08-21.93-12.65-.09.06 10.81 18.63-5.31 2.87-15.16-26.16 5.99-3.22 21.41 12.37.07-.05" class="st1" clip-path="url(#SVGID_2_)"/><path id="path250" fill="#FFF" d="M2505.03 2625.36l10.89-8.15c8.32-6.21 15.57-.66 19.2 3.86 4.14 5.1 7.97 14.01-.19 20.11l-10.68 7.98m1.73-7.89l5.03-3.74c4.21-3.13 2.31-8.28-.86-12.18-5.67-7.04-9.59-5-11.8-3.35l-4.96 3.7z" class="st1" clip-path="url(#SVGID_2_)"/><path id="polyline252" fill="#FFF" d="M2557.25 2620.97l-4.33 4.76-23.45-19.87 4.3-4.74" class="st1" clip-path="url(#SVGID_2_)"/><path id="polyline254" fill="#FFF" d="M2567.29 2396.85l-10.07-12.77-5.23 3.85 9.26 11.69-4.42 3.22-9.24-11.7-6.47 4.7 10.52 13.32-4.41 3.23-14.38-18.23 24.91-18.21 13.93 17.68" class="st1" clip-path="url(#SVGID_2_)"/><path id="path256" fill="#FFF" d="M2321.93 2631.49c3.38 2.3 11.28 9.72 2.94 21.33-8.35 11.61-18.29 7.01-21.68 4.71-3.39-2.28-11.29-9.7-2.94-21.32 8.35-11.6 18.29-7 21.68-4.72m-15.59 21.68c2.89 1.95 8.19 2.98 13.18-3.96 4.99-6.93 2.15-11.4-.75-13.35-2.89-1.95-8.19-2.96-13.16 3.95-4.99 6.94-2.15 11.42.73 13.36" class="st1" clip-path="url(#SVGID_2_)"/><path id="polyline258" fill="#FFF" d="M2355.1 2647.84l6.27 2.35-21.21 24.58-5.75-2.15 1.61-31.85 6.48 2.39-2.4 23.71.07.03" class="st1" clip-path="url(#SVGID_2_)"/><path id="polyline260" fill="#FFF" d="M2365.7 2682.1l-6.34-1.61 8.06-28.93 6.34 1.61" class="st1" clip-path="url(#SVGID_2_)"/><path id="polyline262" fill="#FFF" d="M2439.8 2684.4l-6.11.42-1.78-25.16h-.09l-4.05 25.53-6.42.44-7.49-24.78h-.09l1.76 25.18-6.07.4-2.14-30.1 9.55-.65 7.34 23.36h.09l3.91-24.11 9.48-.63" class="st1" clip-path="url(#SVGID_2_)"/><path id="path264" fill="#FFF" d="M2476.07 2665.68c2.06 7.74-1.87 12.25-9.52 14.13-2.8.68-7.13 1.04-10.6-1.19-2.13-1.4-3.42-3.64-4.28-6.56l-5.19-19.48 6.47-1.59 5.07 19.06c1.09 4.1 4.03 5.32 7.02 4.58 4.32-1.07 5.57-3.55 4.61-7.11l-5.16-19.39 6.48-1.58" class="st1" clip-path="url(#SVGID_2_)"/><path id="path266" fill="#FFF" d="M2268.78 2412.43l-3.65 5.27-25.85-17.03 8-11.53c3.42-4.88 8.67-5.72 13.74-2.37 2.34 1.55 7.37 6.71 2.66 13.49l-4.21 6.04m-1.07-7.84c2.73-3.93-.15-5.8-1.3-6.58-2.52-1.68-4.52-.99-6.79 2.27l-2.91 4.18 7.58 5.02z" class="st1" clip-path="url(#SVGID_2_)"/><path id="path268" fill="#FFF" d="M2439.5 2616.24c2.27 5.17-3.64 3.88-5.94 5.73h-1.92c.37-2.95 3.64-7.75 7.86-5.73" class="st1" clip-path="url(#SVGID_2_)"/><path id="path270" fill="#FFF" d="M2405.82 2524.21v2.03h-8.03c-.77-4.43 6.15-5.15 8.03-2.03" class="st1" clip-path="url(#SVGID_2_)"/><path id="polyline272" fill="#FFF" d="M2419.8 2471.51l3.87-4.65 10.33-.84 4.71-.88-2.14 4.27-5.6 2.1.86-2.1-6.44-.43-3.45 2.53" class="st1" clip-path="url(#SVGID_2_)"/><path id="polyline274" fill="#FFF" d="M2445.19 2465.6l3.43-.43 3.86 1.7-2.13 2.54-3.88.85-1.75 2.11-2.15-1.69-3.4.85-.44-1.7 3-.83-1.28-1.71 1.28-1.26" class="st1" clip-path="url(#SVGID_2_)"/><path id="polyline276" fill="#FFF" d="M2455.81 2469.59l2.15-1.7 3.85.42-.83 2.13-5.62 1.25" class="st1" clip-path="url(#SVGID_2_)"/><path id="polyline278" fill="#FFF" d="M2425.39 2474.48l4.3-.41-.87 2.53h-4.28" class="st1" clip-path="url(#SVGID_2_)"/><path id="polyline280" fill="#FFF" d="M2454.64 2473.85l2.55-1.93 1.38 1.35-1.66 1.41" class="st1" clip-path="url(#SVGID_2_)"/><path id="polyline282" fill="#FFF" d="M2452.42 2477.96l2.16 2.54 1.73-.83-1.32-4.25" class="st1" clip-path="url(#SVGID_2_)"/><path id="polyline284" fill="#FFF" d="M2460.28 2479.57l1.28-1.71-3.88-2.11" class="st1" clip-path="url(#SVGID_2_)"/><path id="line286" fill="#FFF" d="M2460.28 2479.5701l1.2801-1.71" class="st1" clip-path="url(#SVGID_2_)"/><path id="polyline288" fill="#FFF" d="M2464.6 2477.67l1.51.6-.6 6.22-2.09-5.64" class="st1" clip-path="url(#SVGID_2_)"/><path id="path290" fill="#FFF" d="M2395.88 2382.59c1.53-1.68.4-8.86-2.09-9.6-2.89 4.43 5.91 6.45 0 9.6m15.88 23.03c-.36-3.45-1.23-10.77 2.03-15.34l1.96-1.98c-.75.59-1.43 1.24-1.96 1.98l-3.96-3.83 1.93-2.02c-2.9.93-3.85-2.39-5.94-3.68-2.68 7.18 14.53 16.41-1.92 17.15-1.15-1.1-2.68-2.03-2.11-3.89h-1.91v2.04h1.91c-1.11.93-2.09 2.4-3.82 1.85-.18 2.2.4 4.61-2.09 5.73h4.01c1.14 1.09 2.68 2 1.91 3.86 2.68.75 6.7-1.65 8.05 1.86-.59-1.7.93-2.62 1.91-3.73m21.09 91.85c4.25-2.6 6.63-4.34 12.75-5.71-.59 1.85.93 2.77 1.91 3.86 4.36-4.92 7.06-.87 10.34 1.85 1.62 1.38 3.36 2.39 5.53 1.86.13-.62.41-1.22.77-1.86h2.11c2.96 7.1 14.12 11.29 15.09 19.22 6.87 3.31 16.44.52 21.79 7.52 13.96 15.31-16.79 20.85-11.85 36.55-2.48 10.12-10.32 11.8-19.89 13.28-3.07 7.72-9.18 10.88-15.87 15.3-9.94-.38-11.29 6.85-19.9 9.59-3.05 9.97-11.49 12.73-13.95 23.05 1.54 3.13 6.86 1.29 5.91 5.7-6.88.2-15.68-3.86-15.85-11.42 2.66-21.39 18.54-37.63 19.88-59.39-10.72-7.74-12.44-22.49-11.86-36.32 6.89-3.48 5.37-10.34 7.83-15.32l-3.83-3.85c-4 5.73-6.69-2.96-12.02 0-.38-1.45-1.09-2.71-2-3.9-2.2-2.76-5.55-5.02-7.97-7.73-7.82-2.4-16.62-2.95-23.69-7.57-9.01-.72-3.84-10.69-11.88-13.44-1.14 1.1-2.67 2.01-2.09 3.86-12.8-3.32-7.66-17.15-13.78-24.92 1.36-5.43 1.59-10.5.43-15.32-.79-3.29-2.27-6.47-4.44-9.56-12.62-13.65-26.59 9.96-41.69 1.84 5.55-.37 10.13-2.97 13.76-7.55-1.15-1.85-4.59-2.96-3.84-5.74l1.93-2.01-1.93-1.86 1.93-1.86c-1.17-1.09-2.69-2-1.93-3.87 7.46-5.89 17.62-14.02 29.65-13.46 9.19-3.32 21.61 7.37 29.85-3.87-4.2-.18-8.6-6.28-4.03-9.4 2.87.36 5.93-4.61 8.06 0 2.46-1.3 1.89-3.69 1.89-5.91 6.52-3.5 13.59 7.38 15.89-1.85h4.01c-.57 1.85.96 2.77 1.91 3.89l2.11-2.04 1.92 2.04c5.35-5.17 8.78 5.34 15.88 1.84 5.35 3.32 8.6 10.7 9.94 17.33-2.1 0-4.59-.56-5.94 1.85l8.04 7.76c2.48-1.31 1.92-3.7 1.92-5.92 9.56 4.81 15.29 14.59 19.9 23.08-10.34 1.65-19.71 6.08-25.82 15.27 6.3 15.51-20.27 15.14-8.03 30.64l-3.94 3.91c-.45-3.58-1.63-6.81-3.92-9.64-10.31 6.47-28.3-6.46-25.79 13.48 2.66 2.2 2.49 5.53 5.92 7.56 4.97 2.2 6.71-3.87 9.93-5.72v-1.85h7.86c4.19 7.02-8.81 15.31 4 17.14 0 2.21.59 4.63-1.93 5.73 1.01 2.67 2.71 3.62 4.7 3.86 1.44.23 3.02.1 4.58 0h2.53c1.58.14 3 .59 4.07 1.86 1.17-.67 2.21-1.28 3.14-1.86" class="st1" clip-path="url(#SVGID_2_)"/><path id="path292" fill="#FFF" d="M2577.4 2459.6c1.51-.25 3.65-.42 6.81-.42 2.94 0 5.05.49 6.46 1.59 1.42 1 2.32 2.82 2.32 4.88 0 2.02-.67 3.83-1.94 4.97-1.7 1.45-4.09 2.08-6.84 2.08-.55 0-1.02-.03-1.36-.05v6.85h-5.45m5.44-10.98c.31.02.66.06 1.25.06 2.17 0 3.5-1.09 3.5-2.82 0-1.49-1.03-2.51-3.11-2.51-.83 0-1.37.07-1.65.11v5.16z" class="st1" clip-path="url(#SVGID_2_)"/><path id="path294" fill="#FFF" d="M2586.31 2502.85l-1.16 4.68h-5.69l5.95-20.19h7.3l6.13 20.19h-5.93l-1.32-4.68m-.74-4.01l-.94-3.62c-.31-1.14-.69-2.79-1-3.99h-.06c-.3 1.2-.63 2.86-.92 4.02l-.88 3.59z" class="st1" clip-path="url(#SVGID_2_)"/><path id="polyline296" fill="#FFF" d="M2581.89 2516.15v7.46h6.66v-7.46h5.48v20.18h-5.48v-7.99h-6.66v7.99h-5.52v-20.18" class="st1" clip-path="url(#SVGID_2_)"/><path id="path298" fill="#FFF" d="M2589.15 2554.63c0 6.5-3.94 10.63-10.28 10.63-6.35 0-9.88-4.68-9.88-10.31 0-5.86 3.95-10.53 10.21-10.53 6.61-.01 9.95 4.82 9.95 10.21m-14.32.23c0 3.78 1.68 6.1 4.34 6.1 2.62 0 4.18-2.54 4.18-6.15 0-3.47-1.59-6.13-4.23-6.13-2.61 0-4.29 2.47-4.29 6.18" class="st1" clip-path="url(#SVGID_2_)"/><path id="path300" fill="#FFF" d="M2242.61 2479.96c0 6.5-3.96 10.63-10.28 10.63-6.36 0-9.86-4.7-9.86-10.3 0-5.87 3.94-10.54 10.19-10.54 6.62 0 9.95 4.82 9.95 10.21m-14.35.23c0 3.77 1.69 6.1 4.34 6.1 2.64 0 4.21-2.54 4.21-6.15 0-3.47-1.59-6.11-4.25-6.11-2.61 0-4.3 2.46-4.3 6.16" class="st1" clip-path="url(#SVGID_2_)"/><path id="path302" fill="#FFF" d="M2222.48 2502.57c1.47-.26 3.64-.42 6.78-.42 2.96 0 5.04.49 6.47 1.58 1.41 1.01 2.34 2.82 2.34 4.87 0 2.04-.68 3.84-1.97 4.99-1.68 1.45-4.07 2.07-6.84 2.07-.53 0-1.02-.02-1.34-.04v6.86h-5.44m5.44-10.99c.3.02.64.06 1.24.06 2.15 0 3.5-1.09 3.5-2.82 0-1.5-1.02-2.52-3.1-2.52-.83 0-1.4.07-1.65.12v5.16z" class="st1" clip-path="url(#SVGID_2_)"/><path id="path304" fill="#FFF" d="M2231.3 2545.4c1.24.62 3.29 1.28 5.34 1.28 1.89 0 2.79-.67 2.79-1.68 0-.98-.9-1.54-3.2-2.33-3.49-1.19-5.78-3.08-5.78-6.08 0-3.55 3.04-6.31 8.21-6.31 2.47 0 4.22.45 5.58 1.05l-1.15 4.32c-.89-.39-2.39-.96-4.48-.96-1.67 0-2.58.6-2.58 1.5 0 1.01 1.08 1.44 3.68 2.4 3.68 1.31 5.35 3.25 5.35 6.07 0 3.46-2.77 6.47-8.76 6.47-2.47 0-4.87-.66-6.03-1.27" class="st1" clip-path="url(#SVGID_2_)"/><path id="path306" fill="#FFF" d="M429.75 2712.23c-157.96 0-250.54-71.11-250.54-208.7 0-135.27 92.58-208.67 250.54-208.67 157.96 0 252.47 73.4 252.47 208.67.01 137.59-94.51 208.7-252.47 208.7m0-97.13c68.62 0 70.56-68.21 71.21-111.58-.65-37.56-5.18-111.56-71.21-111.56-64.08 0-69.27 74-69.27 111.56 0 43.37 7.12 111.58 69.27 111.58" class="st1" clip-path="url(#SVGID_2_)"/><path id="path308" fill="#FFF" d="M726.93 2301.77h298.44c70.56 0 165.74 30.07 165.74 138.75 0 105.21-75.74 148.58-166.38 148.58h-124.3v116.18h-173.5zm168.97 193.67h38.19c41.43 0 83.51-6.94 83.51-52.03 0-42.79-42.08-47.98-84.16-47.98H895.9z" class="st1" clip-path="url(#SVGID_2_)"/><path id="path310" fill="#FFF" d="M1310.91 2301.78h238.88l161.2 403.5h-181.91l-29.79-87.29h-146.31l-27.83 87.29H1152.3zm66.03 219.09h100.34l-49.2-132.38h-1.3z" class="st1" clip-path="url(#SVGID_2_)"/><path id="path312" fill="#FFF" d="M2099.45 2412.19c-38.85-12.14-84.8-20.23-134-20.23-27.2 0-74.45.6-74.45 26.6 0 52.59 237.59 2.89 237.59 158.39 0 108.1-119.77 135.27-220.11 135.27-66.68 0-121.71-5.79-186.45-19.08v-104.63c46.61 17.35 103.59 26.58 155.38 26.58 40.78 0 77.68-7.51 77.68-27.76 0-54.34-237.59-5.2-237.59-161.86 0-110.99 129.49-130.65 232.42-130.65 48.54 0 102.28 5.2 149.54 13.87v103.5z" class="st1" clip-path="url(#SVGID_2_)"/></g></g></svg>
