<?xml version="1.0" encoding="UTF-8" standalone="no"?>
<svg
   xmlns:dc="http://purl.org/dc/elements/1.1/"
   xmlns:cc="http://creativecommons.org/ns#"
   xmlns:rdf="http://www.w3.org/1999/02/22-rdf-syntax-ns#"
   xmlns:svg="http://www.w3.org/2000/svg"
   xmlns="http://www.w3.org/2000/svg"
   xmlns:xlink="http://www.w3.org/1999/xlink"
   xmlns:sodipodi="http://sodipodi.sourceforge.net/DTD/sodipodi-0.dtd"
   xmlns:inkscape="http://www.inkscape.org/namespaces/inkscape"
   version="1.1"
   id="Camada_1"
   x="0px"
   y="0px"
   viewBox="0 0 4670.0801 423.04001"
   xml:space="preserve"
   sodipodi:docname="logo_paho_white.svg"
   inkscape:version="1.0.2 (e86c870879, 2021-01-15)"
   width="4670.0801"
   height="423.04001"><metadata
   id="metadata323"><rdf:RDF><cc:Work
       rdf:about=""><dc:format>image/svg+xml</dc:format><dc:type
         rdf:resource="http://purl.org/dc/dcmitype/StillImage" /><dc:title></dc:title></cc:Work></rdf:RDF></metadata><defs
   id="defs321" /><sodipodi:namedview
   pagecolor="#ffffff"
   bordercolor="#666666"
   borderopacity="1"
   objecttolerance="10"
   gridtolerance="10"
   guidetolerance="10"
   inkscape:pageopacity="0"
   inkscape:pageshadow="2"
   inkscape:window-width="1920"
   inkscape:window-height="1024"
   id="namedview319"
   showgrid="false"
   inkscape:zoom="0.1678"
   inkscape:cx="1971.1152"
   inkscape:cy="210.81"
   inkscape:window-x="0"
   inkscape:window-y="28"
   inkscape:window-maximized="1"
   inkscape:current-layer="Camada_1"
   inkscape:document-rotation="0"
   fit-margin-top="0"
   fit-margin-left="0"
   fit-margin-right="0"
   fit-margin-bottom="0" />
<style
   type="text/css"
   id="style2">
	.st0{fill:#FFFFFF;}
	.st1{clip-path:url(#SVGID_2_);fill:#FFFFFF;}
</style>
<g
   id="g316"
   style="fill:#ffffff"
   transform="translate(-179.21,-2289.19)">
	<path
   class="st0"
   d="m 4151.66,2674.65 h -21.93 l -4.83,17.5 h -15.82 l 23.25,-78.37 h 18.03 l 22.45,78.37 h -16.86 m -14.72,-63.34 h -0.21 l -8.3,32.59 h 15.74 z"
   id="path4"
   style="fill:#ffffff" />
	<g
   id="g314"
   style="fill:#ffffff">
		<defs
   id="defs7">
			<rect
   id="SVGID_1_"
   x="171.89"
   y="2289.1899"
   width="4733.3301"
   height="428.66" />
		</defs>
		<clipPath
   id="SVGID_2_">
			<use
   xlink:href="#SVGID_1_"
   style="overflow:visible"
   id="use9"
   x="0"
   y="0"
   width="100%"
   height="100%" />
		</clipPath>
		<path
   class="st1"
   d="m 4235.59,2656.11 c 0,-6.75 -2.5,-9.2 -6.01,-9.2 -4.69,0 -6.52,3.81 -6.52,8.19 v 37.05 h -15.81 v -36.04 c 0,-7.4 -2.9,-9.2 -5.51,-9.2 -5.23,0 -7.02,5.06 -7.02,12.46 v 32.78 h -15.84 v -46.26 c 0,-5.6 -0.1,-9.2 -0.41,-12.24 h 14.43 c 0.22,2.61 0.4,5.84 0.4,9.77 h 0.22 c 2.41,-6.4 6.4,-10.67 14.71,-10.67 7.52,0 11.33,3.94 13.54,9.77 2.31,-5.51 6.01,-9.77 14.32,-9.77 11.52,0 15.33,9.44 15.33,21.11 v 38.29 h -15.83"
   clip-path="url(#SVGID_2_)"
   id="path12"
   style="fill:#ffffff" />
		<path
   class="st1"
   d="m 4306.89,2667.57 h -30.73 c 0,6.97 4,13.36 12.91,13.36 5.41,0 10.82,-2.23 14.74,-4.61 l 0.29,13.38 c -5.1,2.14 -11.1,3.37 -16.51,3.37 -18.34,0 -26.44,-12.45 -26.44,-30.33 0,-15.72 8.21,-29.98 23.13,-29.98 4.71,0 22.63,0 22.63,30.55 m -14.42,-5.4 c 0,-7.41 -1.72,-14.38 -8.23,-14.38 -8.11,0 -8.11,11.23 -8.11,14.38 z"
   clip-path="url(#SVGID_2_)"
   id="path14"
   style="fill:#ffffff" />
		<path
   class="st1"
   d="m 4316.21,2645.89 c 0,-5.6 -0.11,-9.19 -0.39,-12.24 h 14.41 c 0.1,3.49 0.31,7.07 0.4,10.57 h 0.22 c 3.2,-6.3 5.41,-11.46 14.52,-11.46 h 2.31 v 16.4 c -1.72,-0.46 -3.12,-0.67 -5.31,-0.67 -9.24,0 -10.33,8.98 -10.33,17.49 v 26.18 h -15.83"
   clip-path="url(#SVGID_2_)"
   id="path16"
   style="fill:#ffffff" />
		<path
   class="st1"
   d="m 4355.67,2607.93 h 15.84 v 15.74 h -15.84 m 0,9.98 h 15.84 v 58.51 h -15.84 z"
   clip-path="url(#SVGID_2_)"
   id="path18"
   style="fill:#ffffff" />
		<path
   class="st1"
   d="m 4419.89,2690.59 c -4.61,1.36 -9.31,2.47 -14.33,2.47 -20.15,0 -24.66,-18.86 -24.66,-29.54 0,-17.96 9.24,-30.77 25.87,-30.77 5.2,0 7.98,1.47 12.61,2.82 l -0.8,13.37 c -2.91,-1.23 -5.92,-2.47 -9.23,-2.47 -12,0 -12,14.81 -12,17.06 0,12.36 6.8,16.29 12.82,16.29 3.3,0 6.29,-1.35 9.21,-2.6"
   clip-path="url(#SVGID_2_)"
   id="path20"
   style="fill:#ffffff" />
		<path
   class="st1"
   d="m 4431.1,2636.47 c 4.11,-1.48 11.11,-3.71 16.83,-3.71 18.33,0 22.53,8.53 22.53,21.56 v 21.33 c 0,8.64 0.11,12.57 0.4,16.49 h -14.42 l -0.4,-8.07 h -0.2 c -0.7,3.59 -6.81,8.98 -14.33,8.98 -9.68,0 -16.11,-7.08 -16.11,-17.74 0,-19.55 20.34,-19.65 25.84,-19.65 h 4.8 c 0,-11.24 -7.39,-11.24 -9.71,-11.24 -4.01,0 -8.3,1.01 -14.5,5.16 m 24.21,14.4 c -6.31,0 -16.23,0.45 -16.23,10.21 0,7.63 5.54,7.63 6.85,7.63 1.37,0 9.39,-0.23 9.39,-14.47 v -3.37 z"
   clip-path="url(#SVGID_2_)"
   id="path22"
   style="fill:#ffffff" />
		<path
   class="st1"
   d="m 4512.34,2648.38 c -4.21,-1.92 -8.12,-3.15 -12.72,-3.15 -4.11,0 -5.93,2.23 -5.93,4.25 0,3.6 2.32,4.85 10.94,8.43 5.42,2.24 10.92,6.07 10.92,17.07 0,13.03 -8.72,18.08 -19.22,18.08 -4.62,0 -11.63,-0.58 -17.15,-2.8 l 0.4,-13.7 c 3.82,2.58 8.62,4.05 13.05,4.05 7.4,0 7.91,-2.93 7.91,-5.53 0,-2.57 -4.1,-3.69 -10.93,-6.84 -5.53,-2.6 -10.92,-7.51 -10.92,-17.96 0,-6.29 4.02,-17.52 19.53,-17.52 6.52,0 11.93,1.36 14.53,2.36"
   clip-path="url(#SVGID_2_)"
   id="path24"
   style="fill:#ffffff" />
		<line
   class="st1"
   x1="4849.2798"
   y1="2581.8799"
   x2="4006.76"
   y2="2581.8799"
   clip-path="url(#SVGID_2_)"
   id="line26"
   style="fill:#ffffff" />
		<rect
   x="4006.76"
   y="2578.22"
   class="st1"
   width="842.53003"
   height="7.3299999"
   clip-path="url(#SVGID_2_)"
   id="rect28"
   style="fill:#ffffff" />
		<path
   class="st1"
   d="m 3896.29,2357.91 c 7.65,8.79 21.04,13.98 28.89,22.73 -5.62,-25.98 -26.48,-47.2 -51.16,-52.26 12.01,8.72 14.6,20.79 22.27,29.53 m -296.72,65.9 c 17,-35.56 42.39,-28.03 53.13,-61.9 -6.06,10.4 -33.78,14.75 -46.65,41.41 6.57,-15.85 3.28,-40.05 14.38,-53.12 -33.22,23.56 -19.07,61.66 -20.86,73.61 m 30.82,85.28 c 3.03,13.84 -5.92,33.83 8.33,52.92 -14.78,-15.89 -45.99,-19.94 -58.77,-44.1 15.95,59.08 57.44,46.92 76.18,59.74 -15.42,-21.27 -2.83,-35.39 -25.74,-68.56 m -4.82,37.09 c -9.17,-33.02 7.13,-44.42 -5.26,-76.09 -1.3,17.83 -13.66,26.53 -5.32,59.16 -14.73,-27.64 -37.54,-37.92 -44.13,-56.87 0.45,51.83 43.79,59.52 54.71,73.8 m 66.56,55.35 c -12.74,-16.97 -4.04,-26.55 -39.87,-57.37 7.6,11.26 -0.24,25.39 23.92,47.41 -23.64,-13.42 -56.28,-7.69 -71.99,-25.6 27.01,49.68 74.49,29.39 87.94,35.56 m 173.47,-9.95 c 24.15,-22.02 16.32,-36.15 23.92,-47.41 -35.82,30.81 -27.12,40.4 -39.89,57.37 13.46,-6.17 60.95,14.12 87.98,-35.55 -15.72,17.9 -48.36,12.17 -72.01,25.59 m 37.46,-29.57 c 14.26,-19.09 5.29,-39.08 8.34,-52.92 -22.89,33.17 -10.32,47.29 -25.73,68.56 18.74,-12.82 60.26,-0.66 76.18,-59.74 -12.78,24.16 -44,28.21 -58.79,44.1 m -57.23,41.87 c -14.01,-3.59 -28.45,-5.39 -39.2,-5.64 -13.41,-0.33 -25.36,2.11 -35.73,5.82 -10.37,-3.71 -22.35,-6.15 -35.75,-5.82 -10.74,0.25 -25.18,2.04 -39.19,5.64 -21.56,5.53 -40.2,9.78 -56.41,1.89 15.53,13.28 33.72,18.02 59.98,15.29 21.85,-2.24 39.47,-12.74 60.06,-12.61 0.3,0 0.55,0.01 0.81,0.03 -21.7,10.53 -47.62,25.36 -47.62,25.36 l 9.92,1.3 c 0,0 24.15,-20.21 48.19,-25.46 24.05,5.25 20.85,25.46 20.85,25.46 l 9.93,-1.3 c 0,0 1.41,-14.84 -20.28,-25.36 0.26,-0.02 0.52,-0.03 0.8,-0.03 20.6,-0.13 38.22,10.37 60.07,12.61 26.28,2.73 44.44,-2.01 59.99,-15.29 -16.22,7.9 -34.87,3.64 -56.42,-1.89 M 3621.8,2434.29 c -8.91,16.39 -22.72,20.15 -21.26,54 -7.45,-30.07 -25.27,-41.25 -25.04,-60.46 -12.39,50.12 20.71,56.09 29.22,77.09 -1.24,-30.12 18.75,-36.2 17.08,-70.63 m 12.42,-38.72 c -3.11,4.18 -5.28,5.94 -13.54,12.48 -11.25,8.92 -20.24,20.62 -24.03,37.69 0.85,-18.37 -10.95,-44.77 -3.09,-64.05 -30.44,41.29 1.74,66.03 2.88,80.97 7.86,-28.77 25.99,-29.01 37.78,-67.09 m 310.93,50.17 c -3.79,-17.07 -12.8,-28.77 -24.04,-37.69 -8.25,-6.54 -10.43,-8.31 -13.53,-12.48 11.79,38.08 29.91,38.32 37.77,67.09 1.14,-14.94 33.31,-39.68 2.88,-80.97 7.85,19.28 -3.94,45.68 -3.08,64.05 m 25.8,26.64 c -6.62,18.95 -29.43,29.23 -44.17,56.87 8.38,-32.63 -4.01,-41.33 -5.31,-59.16 -12.4,31.67 3.91,43.07 -5.27,76.09 10.95,-14.28 54.26,-21.97 54.75,-73.8 m -50.97,-38.09 c -1.69,34.43 18.32,40.52 17.08,70.63 8.49,-21.01 41.6,-26.97 29.19,-77.09 0.26,19.21 -17.57,30.39 -25.02,60.46 1.47,-33.85 -12.33,-37.61 -21.25,-54 m -274.48,-76.38 c 7.67,-8.74 10.26,-20.81 22.29,-29.52 -24.68,5.05 -45.56,26.28 -51.17,52.26 7.84,-8.76 21.22,-13.95 28.88,-22.74 m 243.58,4 c 10.74,33.87 36.14,26.34 53.13,61.9 -1.8,-11.95 12.37,-50.05 -20.87,-73.61 11.11,13.07 7.82,37.27 14.39,53.12 -12.88,-26.67 -40.6,-31.01 -46.65,-41.41 m -86.17,19.23 c -6.37,-2.53 -13.16,-4.33 -20.22,-5.3 -0.03,1.45 -0.03,2.9 -0.08,4.35 6.51,0.92 12.76,2.59 18.66,4.95 0.79,-1.21 1.33,-2.51 1.64,-4 m -5.15,-41.94 1.38,-1.18 -2.57,-1.04 -6.82,-0.14 -1.75,1.18 -4.02,-0.32 -0.04,0.93 c 2.54,0.19 5.02,0.4 6.99,0.72 l 3.3,-0.29 z m -13.04,140.62 c 0,-1.11 -1.55,-2.2 -3.81,-3.24 h -0.39 c -0.03,0.88 -0.13,5.31 -0.17,7.47 2.79,-1.19 4.37,-2.51 4.37,-4.23 m -78.62,-82.88 c 0.13,-0.88 0.34,-1.6 0.56,-2.39 -0.84,0.19 -1.81,0.29 -2.76,0.27 z m 64.95,191.82 c 76.31,0 138.42,-59.66 138.42,-133.02 0,-68.82 -54.64,-125.58 -124.39,-132.34 -0.06,0.24 -0.13,0.51 -0.18,0.75 -0.27,1.3 -0.54,2.45 -0.72,3.51 31.24,2.92 59.36,16.21 80.61,36.25 l -15.26,14.68 0.56,-2.57 -1.99,-0.86 -2.75,-0.15 0.59,-1.71 -1.86,-6 -3.8,-4 -11.94,-6.07 -1.01,1.07 -2.16,0.6 c 4.1,5.8 6.3,12.5 6.3,19.29 0,0.87 -0.01,1.76 -0.06,2.61 l 5.9,7.14 -2.77,0.62 1.86,2.64 -5.24,5.02 -2.09,-3.82 c -0.99,2.67 -2.33,5.15 -3.94,7.47 0.38,0.37 0.77,0.7 1.15,1.05 l -16.08,15.43 c -0.97,-0.88 -1.97,-1.73 -3.03,-2.56 -1.54,0.69 -3.11,1.33 -4.69,1.93 0.45,0.31 0.88,0.64 1.35,1 l -0.82,0.78 -1.88,1.03 -0.68,1.81 -1.19,-1.14 -3.37,1.08 0.92,1.45 2.34,-0.62 1.52,0.11 0.13,-0.78 1.17,-0.57 0.34,-0.67 2.13,-0.58 1.65,-0.05 c 0.3,0.27 0.64,0.55 0.96,0.82 l -6.4,6.13 -0.47,-0.66 -6.67,1.07 -1.47,1.44 -1.49,0.14 4.15,-3.79 -1.48,-0.71 -3.86,4.95 1.14,-0.12 -0.07,1.85 1.4,0.52 0.31,1.98 -2.34,-0.48 -2.42,0.44 -5.84,-2.89 c 0,0 -0.34,15.09 -0.5,22.68 13.81,4.48 28.49,10.92 28.49,27.86 0,7.44 -3.34,13.44 -9.93,17.88 l 0.05,0.01 c -0.1,0.07 -0.21,0.12 -0.32,0.18 l -0.03,-0.01 c -0.13,0.09 -0.29,0.19 -0.45,0.29 -5.57,3.56 -12.76,5.45 -18.98,7.32 -0.04,0 -0.18,11.85 -0.18,11.85 9.9,4.73 21.92,11.62 20.8,31.31 -0.11,4.85 -2.1,6.18 -3.76,6.63 -5.79,1.38 -11.8,2.29 -17.9,2.72 -0.05,1.53 -0.08,2.99 -0.09,4.34 26.67,-1.76 50.78,-12.59 69.01,-29.29 l 16.07,15.44 c -24.07,22.3 -56.76,35.97 -92.74,35.97 -35.78,0 -68.32,-13.55 -92.39,-35.58 l 16.1,-15.46 c 18.03,16.37 41.78,27.04 68.04,28.89 -0.03,-1.32 -0.06,-2.8 -0.08,-4.33 -24.99,-1.87 -47.56,-12.02 -64.79,-27.63 l 4.3,-4.14 5.89,0.66 3.13,-3.23 8.22,0.27 1.22,-2.73 -0.29,-1.16 c 11.89,8.67 26.28,14.39 41.92,15.94 -0.03,-1.68 -0.06,-3.15 -0.11,-4.34 -17.24,-1.86 -32.88,-9.02 -44.99,-19.79 l 16.08,-15.46 c 3.91,3.33 8.3,6.19 13.05,8.41 0.36,-1.47 0.9,-2.83 1.62,-4.08 -4.16,-1.98 -8.02,-4.46 -11.49,-7.4 l 16.14,-15.49 c 2.56,1.97 5.46,3.54 8.6,4.62 -0.04,-1.54 -0.05,-3.16 -0.07,-4.67 -1.94,-0.79 -3.7,-1.81 -5.36,-3.02 l 4.55,-4.38 c -1.6,-0.47 -3.2,-0.93 -4.81,-1.48 l -3.04,2.93 c -1.54,-1.66 -2.84,-3.5 -3.84,-5.51 -2.78,-1.18 -5.48,-2.53 -7.98,-4.1 -9.92,-6.25 -14.93,-15.08 -14.93,-26.23 0,-8.55 2.48,-15.01 6.51,-20.01 l -16.06,-15.4 c 11.56,-10.63 26.44,-17.92 42.96,-20.33 -0.03,-1.5 -0.05,-2.95 -0.08,-4.36 -17.73,2.45 -33.68,10.25 -46.02,21.63 l -2.73,-2.62 c -0.61,1.02 -1.31,2.37 -2.13,4.03 l 1.72,1.65 c -13.84,14.13 -22.4,33.02 -22.76,53.81 h -22.76 c 0.36,-26.82 11.49,-51.18 29.4,-69.25 l 7.23,6.93 c 0.33,0 0.65,0 1.03,-0.04 1.27,-0.08 2.7,-0.47 4.1,-1.11 l -9.18,-8.86 c 4.84,-4.52 10.12,-8.59 15.83,-12.16 0.44,-1.48 0.85,-2.75 1.11,-3.22 0.27,-0.54 1.74,-2.37 3.46,-4.5 -8.62,4.59 -16.56,10.26 -23.59,16.8 l -16.09,-15.45 c 21.08,-19.72 48.88,-32.83 79.76,-35.85 -0.1,-0.52 -0.19,-0.91 -0.19,-0.91 -0.22,-1.03 -0.45,-2.14 -0.67,-3.32 -69.56,6.95 -123.98,63.64 -123.98,132.31 -0.03,73.38 62.07,133.04 138.41,133.04 m 29.86,-91.91 -0.02,-0.08 0.05,0.07 c -0.02,0 -0.02,0.01 -0.03,0.01 m 67.04,-129.88 c 22.62,22.82 36.66,53.57 37.01,87.41 h -22.73 c -0.24,-16.73 -4.48,-32.6 -11.9,-46.66 l 0.22,-0.41 1.56,0.79 0.38,-1.13 -4.08,-6.86 -4.8,-6.42 -5.66,-4.53 c -1.93,-2.32 -3.96,-4.57 -6.09,-6.75 z m -28.99,28.03 5.47,0.22 1.3,1.51 -0.64,2.22 7.57,4.55 1.52,-0.18 9.69,10.69 3.96,-1.36 c 6.18,12.71 9.7,26.84 9.89,41.73 h -22.75 c -0.09,-5.7 -0.84,-11.25 -2.1,-16.62 l 1.02,-1.35 1.42,-6.86 -1.08,-7.35 -2.74,-8.47 -6.35,-8.91 1.56,0.77 0.77,-0.74 -5.1,-3.31 -0.33,1.09 5.09,6.99 2.89,5.74 2.06,5.7 0.64,3.8 1.06,6.45 -1.92,0.16 c 0,0 -2.19,-3.96 -2.89,-5.6 l 1.04,-1.43 -1.95,-2.69 v -2.68 l -1.38,-1.67 -1.73,0.2 c -0.64,-1.08 -1.27,-2.2 -1.95,-3.26 l 1.24,0.61 0.32,-0.31 -0.66,-1.37 1.5,-0.81 -0.68,-0.82 -2.19,0.82 0.8,-3.31 -1.29,-0.72 -1.17,2.64 c -2.48,-3.57 -5.26,-6.95 -8.29,-10.1 z m -4.55,51.22 4.08,-2.14 4.16,-0.61 0.93,-1.94 2.33,-1.37 0.86,-1.86 0.75,-3.21 c 0.32,1.13 0.62,2.27 0.89,3.42 l -2.19,6.33 -0.11,2.14 3.22,-4.11 c 0.68,3.73 1.07,7.58 1.13,11.49 h -19.92 l -0.47,-1.66 2.29,-1.78 0.46,-1.08 1.04,-0.69 2.67,-0.27 0.28,-1.17 z m -27.32,-15.02 2.04,-0.45 -0.07,-0.47 -2.03,-1.32 0.67,-4.13 2.44,-2.31 c 1.51,1.64 2.94,3.42 4.24,5.25 l -0.86,2.53 -2.23,-1.51 -1.68,0.45 0.81,1.51 h 0.85 l -0.92,2.21 -0.66,-0.88 z m 8.72,72.6 -4.91,-1.35 -1.48,0.54 -2.79,-2.04 -2.6,-0.9 c 1.3,-0.91 2.56,-1.84 3.75,-2.84 l 4.04,2.75 3.09,1.57 1.56,1.49 z m -2.49,-84.34 16.09,-15.48 c 3.77,3.93 7.1,8.24 9.96,12.86 l -2.01,0.55 0.11,3.42 6.03,3.66 c 1.5,3.16 2.75,6.41 3.76,9.79 l -1.03,1.48 -2.19,1.33 -0.55,3.22 -1.48,0.77 -1.25,1.43 -1.26,-0.44 -2.23,-0.09 1.3,-1.71 0.93,-4.36 1.47,-0.88 -4.34,-3.99 -3.23,1.05 -0.73,2.94 -2.05,2.14 -2.12,-1.69 -0.75,-1.82 1.22,-0.7 0.65,1.18 1,-0.35 -0.42,-1.95 -1.43,-0.11 -0.1,0.8 -0.93,0.18 -4.98,-5.61 -1.69,-1.25 0.64,-0.64 1.51,-0.55 -1.37,-0.52 c 0,0 -1.8,0.4 -1.97,0.4 l 0.98,1.2 -2.54,-0.05 c -1.52,-2.17 -3.19,-4.25 -5,-6.21 m 8.2,82.3 -2.18,-2.09 1.68,-2.07 2.1,-4.13 -0.81,-1.17 1.38,-3.03 -0.14,-2.75 -0.84,-2.84 -2,-0.68 -0.73,1.61 -1.18,-0.3 c 1.71,-2.63 3.54,-5.1 4.77,-8 l 2.03,-0.84 1.14,-1.46 0.58,0.6 1.37,-1.61 -1.09,-1.34 0.99,-0.26 1.87,0.71 3.51,0.08 2.12,-1.05 5.56,-1.41 -1.04,-1.79 -0.37,-2.14 2.98,1.24 1.12,-0.61 -0.55,-2.23 -3.66,1.32 -4.04,-0.79 -3.05,-5.98 h 17.4 c -0.77,19.21 -8.99,36.66 -21.95,49.7 l -2.4,-2.29 1.02,-3.09 -1.86,-6.74 z m 3.07,42.64 2.13,-4.42 -0.83,-1.96 3.16,-2.65 v -1.62 l -2.68,-1.61 2.2,-4.25 3.33,-4.19 -3.33,-3.47 h -2.49 l -1.56,-2.39 c 1.34,-1.08 2.66,-2.17 3.94,-3.29 l 16.09,15.42 c -6.04,5.54 -12.7,10.38 -19.96,14.43 m 20.06,-20.43 1.75,-1.92 -1.67,-8.45 -1.17,-0.44 0.71,-1.42 -3.78,-1.14 -0.76,3 -0.36,3.85 -0.8,0.71 -6.94,-6.7 c 13.8,-13.81 22.53,-32.32 23.29,-52.73 h 22.78 c -0.79,26.46 -12.07,50.44 -29.97,68.22 z m 6.25,6.03 c 18.72,-18.59 30.51,-43.65 31.3,-71.26 h 22.74 c -0.79,33.64 -15.14,64.17 -37.95,86.71 z m -136.91,-21.18 c -1.65,-1.65 -3.23,-3.35 -4.72,-5.13 l 0.69,-5.52 -2.39,-5.31 -0.58,-8.32 -2.7,-5.01 0.59,-3.16 -3.26,-5.98 -2.84,-1.34 1.16,-3.21 -1.2,-2.52 1.19,-2.88 h 3.1 l 1.09,-1.72 h 5.33 l 0.83,1.48 -1.01,5.2 -0.64,0.88 2,4.19 -1.34,0.68 -0.92,-1.1 -0.37,0.42 0.91,2.46 1.55,2.92 0.73,-0.08 0.43,-2.58 -0.76,-0.96 -0.09,-1.76 -0.2,-3.63 1.09,-6.41 -1.06,-1.71 h 3.82 c 0.74,13.38 6.58,25.49 15.65,34.63 z m -15.06,-42.74 -2.13,3.22 h -3.69 l -0.28,-0.19 c -0.65,-3.38 -1.04,-6.88 -1.16,-10.37 h 6.84 l -1.65,5.25 z m 7.51,-15.01 0.43,-4.33 2.67,-1.52 4.83,0.8 0.72,0.84 c -0.43,2.46 -0.65,4.97 -0.72,7.51 h -5.46 z m 23.08,16.35 1.13,-0.56 2.98,2.15 -1.28,1 3.33,2.15 -0.19,-2.28 1.76,-2.87 1.89,1.91 1.9,2.63 -3.44,0.74 1.57,2.99 2.39,-1.22 -0.3,-0.95 1.78,-1.15 1.08,-4.76 c 1.3,2.81 3.06,5.41 5.2,7.67 l -16.08,15.44 c -7.65,-7.74 -12.79,-17.83 -14.09,-29.02 l 3.3,3.38 3.1,-0.07 z m -16.46,-63.81 16.06,15.44 c -3.36,3.56 -6.23,7.52 -8.52,11.82 l -1.13,-0.06 -2.25,0.69 -0.77,-0.06 -2.41,2.12 3.02,-0.47 2.77,-0.67 c -0.19,0.34 -0.35,0.67 -0.49,1.04 l -2.4,1.41 h -1.14 l -3.54,2.56 -3.4,-0.26 -4.95,8.84 1,1.78 -2.71,2.86 -0.42,3.72 h -10.12 c 0.31,-19.58 8.38,-37.39 21.4,-50.76 m -20.8,116.6 5.12,2.87 1.04,0.68 -3.7,3.59 c -1.75,-1.75 -3.38,-3.52 -5,-5.34 z m -5.09,-61.47 c 0.08,2.09 0.28,4.2 0.52,6.29 l -2.78,0.6 -0.58,2.73 -5.82,7.09 0.15,9.75 -5.95,1.89 -3.25,0.02 c -3,-8.97 -4.76,-18.5 -5.05,-28.36 h 22.76 z m -22.45,28.24 -1.36,-0.25 -1.28,-1.36 -6.36,-0.56 1.99,2.6 -5.93,-1.08 1.55,-1.36 -1.43,-1.37 -4.29,1.78 -1.51,2.73 0.57,6.2 4.91,11.31 2.37,3.55 1.35,0.48 -3.72,-6.78 -0.82,-3.43 0.83,-0.86 -0.48,-1.88 2.19,0.27 3.44,4.98 0.85,0.34 -0.1,-3.64 1.41,0.77 0.29,1.99 3.61,0.92 1.52,-1.03 0.51,0.33 -0.05,2.66 1.58,1.88 1.94,0.42 4.23,6.87 2.55,0.68 0.8,-3.21 c 4.43,7.05 9.69,13.57 15.68,19.43 l -16.09,15.47 c -23.06,-22.59 -37.54,-53.24 -38.35,-87.1 h 22.75 c 0.3,9.77 1.98,19.26 4.85,28.25 m 9.79,-120.38 16.07,15.44 c -18.73,18.88 -30.33,44.35 -30.72,72.34 h -22.74 c 0.39,-34.02 14.53,-64.93 37.39,-87.78 m 164.69,-7.97 -1.4,-2.12 -2.97,-1.44 -2.32,1.7 2.98,1.51 3.32,2.31 z m -13.81,61.69 0.1,1.69 3.93,-1.14 1.21,-2.32 -2.72,-3.42 1.47,-2.07 3.66,2.51 0.67,-0.52 -0.71,-0.53 -0.83,-1.51 1.5,-0.82 -1.48,-1.84 -3.46,1.67 -1.2,2 -0.67,1.8 1.52,2.45 -0.56,1.18 z m -164.48,98.04 0.28,-0.97 -2.04,-4.28 -2.42,-0.87 z m 93.01,-82.16 c 0,3.69 2.32,6.26 6.56,8.48 0,0 -0.02,-0.61 -0.04,-1.63 l -2.65,-2.52 1.4,-2.48 1.14,-0.32 c -0.07,-4.26 -0.18,-9.06 -0.2,-9.73 l -0.21,0.02 c -3.85,2.07 -6,4.6 -6,8.18"
   clip-path="url(#SVGID_2_)"
   id="path30"
   style="fill:#ffffff" />
		<path
   class="st1"
   d="m 3779.33,2530.96 c 7.14,3.47 13.74,8.26 16.48,17.36 1.2,-15.05 -7.59,-21.58 -16.28,-26 0.01,0.02 -0.2,8.64 -0.2,8.64"
   clip-path="url(#SVGID_2_)"
   id="path32"
   style="fill:#ffffff" />
		<path
   class="st1"
   d="m 3826.77,2378.18 c 0,-13.68 -10.33,-28.87 -35.62,-34.21 -1.85,-0.4 -4.71,-0.68 -7.69,-0.86 -0.06,2.05 -0.19,6.77 -0.19,6.77 -0.04,1.5 -0.15,6.99 -0.18,8.16 2.31,0.19 4.06,0.5 4.85,0.65 14.69,3.37 19.97,11.47 19.97,19.5 0,12.99 -11.55,17.87 -25.75,21.57 -1.54,0.4 -3.14,0.79 -4.71,1.17 -4.29,1.03 -8.75,2.02 -13.12,3.15 -1.55,0.41 -3.11,0.84 -4.66,1.31 -15.74,4.6 -29.26,11.88 -29.26,30.57 0,18.51 15.45,25.43 30.49,29.88 -0.07,-5.31 -0.2,-10.69 -0.32,-16.05 -6.66,-3 -11.32,-6.93 -11.32,-13.57 0,-6.49 4.24,-10.41 10.78,-13.25 1.44,-0.64 3.01,-1.19 4.65,-1.74 3.75,-1.24 7.98,-2.27 12.38,-3.3 1.55,-0.34 3.14,-0.72 4.73,-1.08 21.2,-4.96 44.97,-11.32 44.97,-38.67"
   clip-path="url(#SVGID_2_)"
   id="path34"
   style="fill:#ffffff" />
		<path
   class="st1"
   d="m 3750.55,2508.72 c 0.05,7.48 5.75,11.56 11.47,14.66 -0.01,-1.28 -0.22,-12.83 -0.22,-13.04 0.12,-2.31 2.44,-3.69 4.31,-4.55 2.77,-1.25 5.57,-2.15 9.11,-3.34 1.7,-0.56 3.18,-1.13 4.8,-1.59 11.51,-3.33 24.82,-7.58 24.82,-21.04 0,-13.48 -11.42,-19 -23.89,-23.14 -0.09,4.31 -0.23,10.56 -0.33,14.89 5.29,2 8.77,4.41 8.77,8.25 0,4.81 -5.37,7.61 -9.17,9 -1.57,0.62 -3.96,1.36 -4.65,1.55 -3.05,0.91 -6.33,1.99 -9.42,3.07 -1.62,0.61 -3.2,1.22 -4.64,1.94 -5.4,2.64 -11,6.53 -10.96,13.34"
   clip-path="url(#SVGID_2_)"
   id="path36"
   style="fill:#ffffff" />
		<path
   class="st1"
   d="m 3758.35,2345.26 c -7.68,2.09 -12.19,4.87 -13.88,5.44 -4.96,1.57 -11.97,1.86 -19.19,9.4 -1.27,1.35 -4.43,5.12 -6.63,8.24 -2.17,3.02 -2.29,7.87 -3.88,10.48 -2.31,3.76 -1.78,5.92 -1.78,5.92 l 0.07,0.12 c -0.08,0.48 -0.54,2.46 -2.67,4.71 -2.4,2.6 -5.58,4.03 -9.37,3.44 3.28,1.57 7.84,-0.65 7.84,-0.65 0,0 -0.87,2.4 -1.74,6.29 3.7,-8.04 7.08,-10.97 8.17,-11.78 1.58,0.35 4.86,0.19 10.97,-3.17 6.9,-3.8 17.28,-10.03 20.2,-13.96 3.18,-4.23 7.53,-7.05 12.26,-8.85 -0.13,-5.93 -0.29,-11.19 -0.37,-15.63 m -29.14,25.08 -3.55,0.74 4.25,-6.73 4.99,0.19 z"
   clip-path="url(#SVGID_2_)"
   id="path38"
   style="fill:#ffffff" />
		<path
   class="st1"
   d="m 3772.58,2507.81 c -0.65,0.21 -2.38,0.94 -3.48,1.3 -1.15,0.38 -2.61,0.97 -2.61,1.35 0,0.09 1.09,57.98 1.09,59.26 0,11.9 6.33,11.97 6.33,0 0,-0.85 1.28,-62.73 1.28,-62.73 0,0 -1.54,0.44 -2.61,0.82"
   clip-path="url(#SVGID_2_)"
   id="path40"
   style="fill:#ffffff" />
		<path
   class="st1"
   d="m 3766.05,2488.7 c 1.97,-0.64 3.93,-1.23 5.76,-1.78 1.39,-0.39 2.66,-0.77 3.82,-1.14 0.08,-3.64 1.14,-54.04 1.37,-63.17 -4.73,1.12 -8.82,2.18 -12.22,3.37 0.17,6.87 1.16,57.2 1.27,62.72"
   clip-path="url(#SVGID_2_)"
   id="path42"
   style="fill:#ffffff" />
		<path
   class="st1"
   d="m 3771.32,2295.8 c -17.73,0 -10.2,25.27 -8.81,33.52 0.07,0.39 1.45,57.14 1.72,70.16 2.7,-0.68 5.38,-1.33 7.98,-1.93 1.84,-0.45 3.63,-0.88 5.35,-1.29 0.28,-12.54 1.57,-66.68 1.61,-67.04 1.05,-8.83 10.36,-33.42 -7.85,-33.42"
   clip-path="url(#SVGID_2_)"
   id="path44"
   style="fill:#ffffff" />
		<path
   class="st1"
   d="m 4031.51,2326.96 c 16.89,0 32.4,14.11 32.4,46.92 0,32.81 -15.51,46.92 -32.4,46.92 -16.91,0 -32.42,-14.11 -32.42,-46.92 0.01,-32.81 15.52,-46.92 32.42,-46.92 m 0,81.03 c 9.44,0 17.02,-9.03 17.02,-34.12 0,-25.09 -7.58,-34.11 -17.02,-34.11 -9.44,0 -17.04,9.02 -17.04,34.11 0,25.09 7.61,34.12 17.04,34.12"
   clip-path="url(#SVGID_2_)"
   id="path46"
   style="fill:#ffffff" />
		<path
   class="st1"
   d="m 4073.95,2363.28 c 0,-4.17 -0.12,-8.09 -0.47,-11.1 h 13.07 c 0.11,4.08 0.46,8.25 0.46,12.28 h 0.24 c 1.77,-5.22 6.29,-13.33 15.28,-13.33 0.93,0 1.62,0.27 2.43,0.4 v 15.18 c -1.28,-0.41 -2.56,-0.67 -4.07,-0.67 -5.96,0 -12.49,4.06 -12.49,16.6 v 36.85 h -14.45"
   clip-path="url(#SVGID_2_)"
   id="path48"
   style="fill:#ffffff" />
		<path
   class="st1"
   d="m 4112.36,2429.94 c 3.38,2.1 10.17,5.76 17.75,5.76 13.63,0 15.82,-10.59 15.82,-21.18 v -6.39 h -0.21 c -2.35,5.21 -6.42,11.36 -15.87,11.36 -8.4,0 -20.97,-6.28 -20.97,-33.46 0,-18.56 5.95,-34.88 21.66,-34.88 8.75,0 12.82,5.61 15.85,11.48 h 0.49 c 0,-3.52 0.35,-6.93 0.47,-10.46 h 13.05 c -0.23,3.53 -0.48,7.07 -0.48,10.61 v 49.65 c 0,21.04 -5.71,36.08 -27.72,36.08 -9.56,0 -17.15,-2.73 -20.65,-4.18 m 21.69,-36.74 c 9.09,0 12.69,-7.31 12.69,-22.58 0,-14.13 -4.76,-21.73 -11.65,-21.59 -7.57,0.15 -10.48,8 -10.48,21.69 0,15.83 4.55,22.48 9.44,22.48"
   clip-path="url(#SVGID_2_)"
   id="path50"
   style="fill:#ffffff" />
		<path
   class="st1"
   d="m 4174.28,2356.11 c 4.08,-2.08 9.77,-4.96 19.01,-4.96 18.65,0 22.94,10.17 22.94,27.04 v 29.4 c 0,4.83 0.46,9.29 0.8,11.9 H 4204 c -0.69,-2.61 -0.81,-5.86 -0.81,-9.15 h -0.27 c -3.59,5.49 -8.13,10.19 -16.76,10.19 -9.32,0 -17.97,-7.19 -17.97,-19.73 0,-18.3 13.31,-22.87 31.6,-22.87 h 2.92 v -2.49 c 0,-6.66 -2.92,-12.81 -11.2,-12.81 -7.2,0 -13.62,3.93 -16.4,6.55 m 27.6,17.37 h -1.28 c -12.35,0 -19.69,2.89 -19.69,12.68 0,6.14 3.59,10.33 9.19,10.33 8.65,0 11.78,-7.17 11.78,-19.2 z"
   clip-path="url(#SVGID_2_)"
   id="path52"
   style="fill:#ffffff" />
		<path
   class="st1"
   d="m 4227.88,2363.28 c 0,-4.17 -0.12,-8.09 -0.47,-11.1 h 13.53 c 0.11,3.41 0.47,6.94 0.47,10.33 h 0.33 -0.09 c 2.11,-4.05 6.17,-11.37 15.97,-11.37 13.62,0 17.71,11.37 17.71,24.97 v 43.39 h -14.47 v -40.37 c 0,-10.33 -2.3,-14.67 -8.27,-14.67 -7.55,0 -10.26,7.2 -10.26,15.83 v 39.21 h -14.45"
   clip-path="url(#SVGID_2_)"
   id="path54"
   style="fill:#ffffff" />
		<path
   class="st1"
   d="m 4287.24,2323.57 h 14.93 v 15.95 h -14.93 m 0.21,12.65 h 14.46 v 67.32 h -14.46 z"
   clip-path="url(#SVGID_2_)"
   id="path56"
   style="fill:#ffffff" />
		<polyline
   class="st1"
   points="4312.48,2405.52 4338.14,2364.47 4313.31,2364.47 4313.31,2352.19 4352.61,2352.19 4352.61,2366.04    4327.43,2407.21 4353.4,2407.21 4353.4,2419.5 4312.48,2419.5   "
   clip-path="url(#SVGID_2_)"
   id="polyline58"
   style="fill:#ffffff" />
		<path
   class="st1"
   d="m 4365.5,2356.11 c 4.09,-2.08 9.76,-4.96 18.99,-4.96 18.66,0 22.96,10.17 22.96,27.04 v 29.4 c 0,4.83 0.46,9.29 0.82,11.9 h -13.06 c -0.69,-2.61 -0.81,-5.86 -0.81,-9.15 h -0.26 c -3.61,5.49 -8.15,10.19 -16.77,10.19 -9.32,0 -17.96,-7.19 -17.96,-19.73 0,-18.3 13.29,-22.87 31.59,-22.87 h 2.93 v -2.49 c 0,-6.66 -2.93,-12.81 -11.2,-12.81 -7.2,0 -13.64,3.93 -16.42,6.55 m 27.63,17.37 h -1.3 c -12.34,0 -19.67,2.89 -19.67,12.68 0,6.14 3.59,10.33 9.19,10.33 8.63,0 11.78,-7.17 11.78,-19.2 z"
   clip-path="url(#SVGID_2_)"
   id="path60"
   style="fill:#ffffff" />
		<path
   class="st1"
   d="m 4457.1,2417.8 c -3.39,1.45 -8.41,2.73 -14.23,2.73 h -0.7 l -2.09,7.06 c 1.15,-0.39 2.58,-0.77 4.55,-0.77 6.42,0 10.14,4.05 10.14,9.67 0,8.25 -7.22,12.05 -12.93,12.05 -4.9,0 -9.92,-1.33 -12.24,-2.63 l 1.87,-5.22 c 2.31,0.9 4.66,1.82 8.13,1.82 3.88,0 6.08,-2.2 6.08,-5.35 0,-3.01 -2.2,-4.84 -5.35,-4.84 -2.1,0 -3.52,0.4 -4.56,0.92 l -2.09,-2.22 3.47,-10.97 c -15.83,-2.87 -22.48,-17.14 -22.48,-34.13 0,-19.2 8.84,-34.77 29,-34.77 4.54,0 9.91,1.56 12.6,2.77 l -0.8,12.8 c -2.57,-1.45 -6.18,-3.27 -10.15,-3.27 -10.95,0 -15.72,8.24 -15.72,22.6 0,12.54 5.36,22.22 16.43,22.22 3.47,0 8.28,-1.83 10.24,-3.27"
   clip-path="url(#SVGID_2_)"
   id="path62"
   style="fill:#ffffff" />
		<path
   class="st1"
   d="m 4469.94,2356.11 c 4.08,-2.08 9.78,-4.96 19,-4.96 18.66,0 22.95,10.17 22.95,27.04 v 29.4 c 0,4.83 0.47,9.29 0.81,11.9 h -13.04 c -0.69,-2.61 -0.81,-5.86 -0.81,-9.15 h -0.26 c -3.59,5.49 -8.16,10.19 -16.77,10.19 -9.33,0 -17.97,-7.19 -17.97,-19.73 0,-18.3 13.3,-22.87 31.6,-22.87 h 2.92 v -2.49 c 0,-6.66 -2.92,-12.81 -11.19,-12.81 -7.2,0 -13.62,3.93 -16.42,6.55 m 1.38,-25.87 c 0,-4.58 2.21,-15.04 10.97,-15.28 5.35,0 9.89,4.42 13.4,4.42 2.34,0 3.37,-2.48 3.37,-5.09 h 7.23 c 0,3.79 -2.22,15.28 -10.86,15.28 -4.53,0 -8.85,-4.45 -13.04,-4.45 -2.9,0 -4.32,2.36 -4.32,5.12 z m 26.23,43.24 h -1.27 c -12.35,0 -19.69,2.89 -19.69,12.68 0,6.14 3.6,10.33 9.18,10.33 8.65,0 11.78,-7.17 11.78,-19.2 z"
   clip-path="url(#SVGID_2_)"
   id="path64"
   style="fill:#ffffff" />
		<path
   class="st1"
   d="m 4548.39,2351.15 c 12.22,0 26.33,7.19 26.33,34.62 0,28.25 -14.11,34.77 -26.33,34.77 -12.24,0 -26.48,-6.52 -26.48,-34.77 -0.01,-27.43 14.24,-34.62 26.48,-34.62 m 0,57.9 c 9.3,0 11.4,-12.02 11.4,-23.28 0,-11.24 -2.1,-23.15 -11.4,-23.15 -9.3,0 -11.54,11.91 -11.54,23.15 0,11.26 2.24,23.28 11.54,23.28"
   clip-path="url(#SVGID_2_)"
   id="path66"
   style="fill:#ffffff" />
		<polyline
   class="st1"
   points="4070.3,2468.97 4070.09,2468.97 4049.67,2545.02 4039.08,2545.02 4019.6,2468.97 4019.35,2468.97    4019.35,2545.02 4005.84,2545.02 4005.84,2453.81 4028.1,2453.81 4044.88,2521.9 4045.12,2521.9 4062.25,2453.81 4083.82,2453.81    4083.82,2545.02 4070.3,2545.02   "
   clip-path="url(#SVGID_2_)"
   id="polyline68"
   style="fill:#ffffff" />
		<path
   class="st1"
   d="m 4142.88,2533.92 c 0,4.19 0.13,8.09 0.48,11.09 h -13.51 c -0.14,-3.39 -0.49,-6.91 -0.49,-10.3 l -0.34,-0.15 0.09,0.15 c -2.79,4.97 -6.53,11.36 -15.96,11.36 -13.62,0 -17.71,-11.36 -17.71,-24.96 v -43.4 h 14.46 v 40.39 c 0,10.34 2.57,14.64 8.62,14.64 7.68,0 9.9,-7.83 9.9,-16.46 v -38.56 h 14.45"
   clip-path="url(#SVGID_2_)"
   id="path70"
   style="fill:#ffffff" />
		<path
   class="st1"
   d="m 4155.33,2488.83 c 0,-4.18 -0.12,-8.08 -0.47,-11.11 h 13.52 c 0.12,3.42 0.49,6.94 0.49,10.33 h 0.34 -0.11 c 2.1,-4.03 6.18,-11.37 15.97,-11.37 13.63,0 17.71,11.37 17.71,24.98 v 43.36 h -14.46 v -40.36 c 0,-10.34 -2.31,-14.65 -8.28,-14.65 -7.55,0 -10.25,7.2 -10.25,15.81 v 39.2 h -14.46"
   clip-path="url(#SVGID_2_)"
   id="path72"
   style="fill:#ffffff" />
		<path
   class="st1"
   d="m 4263.97,2447.01 v 86.52 c 0,4.84 0.12,9.04 0.47,11.5 h -13.52 c -0.22,-1.96 -0.47,-5.88 -0.47,-10.46 h -0.34 c -2.33,5.77 -6.67,11.5 -15.97,11.5 -14.93,0 -21.11,-15.95 -21.11,-34.62 0,-21.96 7.82,-34.77 20.74,-34.77 8.64,0 13.41,5.51 15.49,10.72 h 0.24 v -40.39 m -11.41,87.16 c 8.51,0 11.42,-10.31 11.42,-22.97 0,-13.09 -3.25,-22.62 -11.18,-22.62 -8.04,0 -10.84,8.75 -10.84,22.21 0,15.53 2.2,23.38 10.6,23.38"
   clip-path="url(#SVGID_2_)"
   id="path74"
   style="fill:#ffffff" />
		<path
   class="st1"
   d="m 4275.56,2449.11 h 14.93 v 15.93 h -14.93 m 0.25,12.68 h 14.46 V 2545 h -14.46 z"
   clip-path="url(#SVGID_2_)"
   id="path76"
   style="fill:#ffffff" />
		<path
   class="st1"
   d="m 4306.49,2481.65 c 4.07,-2.09 9.76,-4.96 18.99,-4.96 18.66,0 22.95,10.17 22.95,27.04 v 29.41 c 0,4.82 0.46,9.28 0.8,11.87 h -13.03 c -0.69,-2.59 -0.82,-5.85 -0.82,-9.12 h -0.25 c -3.6,5.48 -8.16,10.17 -16.78,10.17 -9.31,0 -17.96,-7.17 -17.96,-19.73 0,-18.27 13.29,-22.87 31.6,-22.87 h 2.92 v -2.48 c 0,-6.67 -2.92,-12.79 -11.21,-12.79 -7.19,0 -13.63,3.91 -16.41,6.52 m 27.63,17.39 h -1.29 c -12.34,0 -19.69,2.88 -19.69,12.68 0,6.15 3.61,10.33 9.2,10.33 8.64,0 11.78,-7.18 11.78,-19.23 z"
   clip-path="url(#SVGID_2_)"
   id="path78"
   style="fill:#ffffff" />
		<rect
   x="4362.0801"
   y="2447.01"
   class="st1"
   width="14.45"
   height="98.010002"
   clip-path="url(#SVGID_2_)"
   id="rect80"
   style="fill:#ffffff" />
		<path
   class="st1"
   d="m 4471.62,2447.01 v 86.52 c 0,4.84 0.12,9.04 0.49,11.5 h -13.52 c -0.22,-1.96 -0.47,-5.88 -0.47,-10.46 h -0.36 c -2.32,5.77 -6.66,11.5 -15.96,11.5 -14.93,0 -21.11,-15.95 -21.11,-34.62 0,-21.96 7.81,-34.77 20.73,-34.77 8.64,0 13.42,5.51 15.52,10.72 h 0.22 v -40.39 m -11.39,87.16 c 8.48,0 11.4,-10.31 11.4,-22.97 0,-13.09 -3.27,-22.62 -11.18,-22.62 -8.04,0 -10.84,8.75 -10.84,22.21 0,15.53 2.19,23.38 10.62,23.38"
   clip-path="url(#SVGID_2_)"
   id="path82"
   style="fill:#ffffff" />
		<path
   class="st1"
   d="m 4486.68,2481.65 c 4.07,-2.09 9.76,-4.96 18.99,-4.96 18.65,0 22.95,10.17 22.95,27.04 v 29.41 c 0,4.82 0.47,9.28 0.81,11.87 h -13.05 c -0.69,-2.59 -0.81,-5.85 -0.81,-9.12 h -0.26 c -3.6,5.48 -8.15,10.17 -16.78,10.17 -9.3,0 -17.95,-7.17 -17.95,-19.73 0,-18.27 13.3,-22.87 31.6,-22.87 h 2.92 v -2.48 c 0,-6.67 -2.92,-12.79 -11.2,-12.79 -7.21,0 -13.63,3.91 -16.41,6.52 m 27.62,17.39 h -1.29 c -12.34,0 -19.68,2.88 -19.68,12.68 0,6.15 3.6,10.33 9.19,10.33 8.62,0 11.78,-7.18 11.78,-19.23 z"
   clip-path="url(#SVGID_2_)"
   id="path84"
   style="fill:#ffffff" />
		<path
   class="st1"
   d="m 4571.05,2527.4 c 2.92,2.09 9.31,5.6 17.25,5.6 6.53,0 12.35,-4.04 12.35,-13.19 0,-6.52 -3.35,-9.41 -10.6,-13.83 l -7.6,-4.71 c -8.01,-4.97 -13.26,-12.17 -13.26,-23.91 0,-16.32 11.99,-24.83 25.63,-24.83 8.65,0 14.69,2.48 17.03,3.25 l -0.71,13.98 c -3.59,-1.57 -8.4,-3.92 -15.27,-3.92 -7.46,0 -11.3,4.46 -11.3,10.72 0,6.8 4.06,9.41 8.61,12.28 l 8.75,5.48 c 9.56,6 14.11,11.79 14.11,24.6 0,18.54 -11.76,27.43 -27.28,27.43 -8.15,0 -14.46,-1.33 -18.53,-4.06"
   clip-path="url(#SVGID_2_)"
   id="path86"
   style="fill:#ffffff" />
		<path
   class="st1"
   d="m 4629.49,2481.65 c 4.07,-2.09 9.77,-4.96 18.99,-4.96 18.66,0 22.96,10.17 22.96,27.04 v 29.41 c 0,4.82 0.47,9.28 0.8,11.87 h -13.03 c -0.7,-2.59 -0.82,-5.85 -0.82,-9.12 h -0.25 c -3.61,5.48 -8.17,10.17 -16.78,10.17 -9.32,0 -17.95,-7.17 -17.95,-19.73 0,-18.27 13.28,-22.87 31.59,-22.87 h 2.92 v -2.48 c 0,-6.67 -2.92,-12.79 -11.2,-12.79 -7.19,0 -13.63,3.91 -16.41,6.52 m 27.61,17.39 h -1.29 c -12.34,0 -19.69,2.88 -19.69,12.68 0,6.15 3.61,10.33 9.2,10.33 8.64,0 11.78,-7.18 11.78,-19.23 z"
   clip-path="url(#SVGID_2_)"
   id="path88"
   style="fill:#ffffff" />
		<path
   class="st1"
   d="m 4728.88,2533.93 c 0,4.18 0.12,8.09 0.45,11.09 h -13.5 c -0.12,-3.39 -0.48,-6.92 -0.48,-10.3 l -0.34,-0.15 0.08,0.15 c -2.78,4.97 -6.51,11.35 -15.95,11.35 -13.63,0 -17.71,-11.35 -17.71,-24.95 v -43.4 h 14.45 v 40.39 c 0,10.34 2.57,14.63 8.62,14.63 7.7,0 9.92,-7.83 9.92,-16.47 v -38.54 h 14.45 m -23.07,-26.27 h 13.52 l -11.89,18.81 h -9.08 z"
   clip-path="url(#SVGID_2_)"
   id="path90"
   style="fill:#ffffff" />
		<path
   class="st1"
   d="m 4790.63,2447.01 v 86.52 c 0,4.84 0.12,9.04 0.47,11.5 h -13.53 c -0.21,-1.96 -0.46,-5.88 -0.46,-10.46 h -0.35 c -2.32,5.77 -6.65,11.5 -15.97,11.5 -14.92,0 -21.11,-15.95 -21.11,-34.62 0,-21.96 7.83,-34.77 20.74,-34.77 8.65,0 13.41,5.51 15.51,10.72 h 0.24 v -40.39 m -11.41,87.16 c 8.5,0 11.42,-10.31 11.42,-22.97 0,-13.09 -3.26,-22.62 -11.19,-22.62 -8.04,0 -10.83,8.75 -10.83,22.21 0,15.53 2.2,23.38 10.6,23.38"
   clip-path="url(#SVGID_2_)"
   id="path92"
   style="fill:#ffffff" />
		<path
   class="st1"
   d="m 4846.25,2541.77 c -3.03,1.44 -9.33,4.31 -17.93,4.31 -19.36,0 -27.75,-15.53 -27.75,-33.71 0,-20.13 9.44,-35.68 24.7,-35.68 12.95,0 24.01,8.49 24.01,35.93 v 3.16 h -34.74 c 0,11.5 4.08,18.43 15.27,18.43 8.86,0 13.07,-3.01 15.73,-5.25 m -10.24,-23.39 c 0,-11.89 -3.5,-17.91 -10.03,-17.91 -7.55,0 -10.73,9.02 -10.73,17.91 z"
   clip-path="url(#SVGID_2_)"
   id="path94"
   style="fill:#ffffff" />
		<polygon
   class="st1"
   points="3583.32,2661.86 3573.46,2661.86 3573.46,2671.09 3582.8,2671.09 3582.8,2676.15 3573.46,2676.15 3573.46,2686.36 3583.74,2686.36 3583.74,2691.43 3568.17,2691.43 3568.17,2656.8 3583.32,2656.8 "
   clip-path="url(#SVGID_2_)"
   id="polygon96"
   style="fill:#ffffff" />
		<path
   class="st1"
   d="m 3587.42,2684.74 c 1.03,0.79 3.3,2.13 6.11,2.13 2.33,0 4.39,-1.53 4.39,-5.01 0,-2.49 -1.2,-3.57 -3.75,-5.26 l -2.7,-1.79 c -2.85,-1.88 -4.69,-4.61 -4.69,-9.09 0,-6.19 4.24,-9.42 9.09,-9.42 3.04,0 5.19,0.93 6,1.24 l -0.23,5.31 c -1.28,-0.61 -2.98,-1.48 -5.41,-1.48 -2.66,0 -4.03,1.67 -4.03,4.06 0,2.57 1.47,3.57 3.07,4.65 l 3.11,2.08 c 3.37,2.29 4.98,4.49 4.98,9.34 0,7.05 -4.16,10.42 -9.65,10.42 -2.89,0 -5.13,-0.5 -6.56,-1.55 z"
   clip-path="url(#SVGID_2_)"
   id="path98"
   style="fill:#ffffff" />
		<path
   class="st1"
   d="m 3625.75,2690.69 c -1.07,0.69 -3.63,1.24 -6.25,1.24 -8.75,0 -13.25,-7.68 -13.25,-17.81 0,-10.11 4.5,-17.81 13.09,-17.81 2.92,0 5.34,0.93 6.41,1.45 l -0.29,5.7 c -1.09,-0.65 -2.8,-1.89 -5.45,-1.89 -4.4,0 -8.14,3.56 -8.14,12.55 0,8.98 3.74,12.56 8.14,12.56 2.56,0 4.25,-0.74 5.45,-1.8 z"
   clip-path="url(#SVGID_2_)"
   id="path100"
   style="fill:#ffffff" />
		<path
   class="st1"
   d="m 3629.1,2656.79 h 8.99 c 5.13,0 8.58,2.79 8.58,9.13 0,4.51 -2.35,7.55 -5.56,8.15 v 0.14 c 1.06,0.21 2.25,0.77 3.17,4.03 l 3.75,13.2 h -5.6 l -2.85,-11.26 c -0.71,-2.73 -2.06,-3.62 -4.02,-3.62 h -1.2 v 14.88 h -5.27 v -34.65 z m 7.44,15.1 c 2.79,0 4.7,-1.74 4.7,-5.26 0,-3.99 -1.74,-4.96 -4.7,-4.96 h -2.16 v 10.22 z"
   clip-path="url(#SVGID_2_)"
   id="path102"
   style="fill:#ffffff" />
		<rect
   x="3651.3701"
   y="2656.8"
   class="st1"
   width="5.27"
   height="34.610001"
   clip-path="url(#SVGID_2_)"
   id="rect104"
   style="fill:#ffffff" />
		<polygon
   class="st1"
   points="3659.62,2656.81 3677.74,2656.81 3677.74,2661.87 3671.33,2661.87 3671.33,2691.43 3666.06,2691.43 3666.06,2661.87 3659.62,2661.87 "
   clip-path="url(#SVGID_2_)"
   id="polygon106"
   style="fill:#ffffff" />
		<path
   class="st1"
   d="m 3689.18,2656.29 c 5.99,0 11.48,5.36 11.48,17.82 0,12.46 -5.49,17.82 -11.48,17.82 -5.99,0 -11.46,-5.36 -11.46,-17.82 0,-12.46 5.46,-17.82 11.46,-17.82 m 0,30.78 c 3.35,0 6.02,-3.43 6.02,-12.96 0,-9.53 -2.67,-12.94 -6.02,-12.94 -3.34,0 -6.01,3.41 -6.01,12.94 -0.01,9.53 2.66,12.96 6.01,12.96"
   clip-path="url(#SVGID_2_)"
   id="path108"
   style="fill:#ffffff" />
		<path
   class="st1"
   d="m 3704.39,2656.79 h 8.99 c 5.13,0 8.58,2.79 8.58,9.13 0,4.51 -2.35,7.55 -5.56,8.15 v 0.14 c 1.06,0.21 2.25,0.77 3.17,4.03 l 3.75,13.2 h -5.6 l -2.85,-11.26 c -0.71,-2.73 -2.06,-3.62 -4.02,-3.62 h -1.2 v 14.88 h -5.27 v -34.65 z m 7.43,15.1 c 2.79,0 4.71,-1.74 4.71,-5.26 0,-3.99 -1.74,-4.96 -4.71,-4.96 h -2.16 v 10.22 z"
   clip-path="url(#SVGID_2_)"
   id="path110"
   style="fill:#ffffff" />
		<rect
   x="3726.51"
   y="2656.8"
   class="st1"
   width="5.29"
   height="34.610001"
   clip-path="url(#SVGID_2_)"
   id="rect112"
   style="fill:#ffffff" />
		<path
   class="st1"
   d="m 3747.24,2656.29 c 5.99,0 11.48,5.36 11.48,17.82 0,12.46 -5.49,17.82 -11.48,17.82 -5.99,0 -11.46,-5.36 -11.46,-17.82 0,-12.46 5.47,-17.82 11.46,-17.82 m 0,30.78 c 3.35,0 6.02,-3.43 6.02,-12.96 0,-9.53 -2.67,-12.94 -6.02,-12.94 -3.34,0 -6.01,3.41 -6.01,12.94 0,9.53 2.67,12.96 6.01,12.96"
   clip-path="url(#SVGID_2_)"
   id="path114"
   style="fill:#ffffff" />
		<path
   class="st1"
   d="m 3772.12,2656.79 h 8.99 c 5.13,0 8.58,2.79 8.58,9.13 0,4.51 -2.35,7.55 -5.57,8.15 v 0.14 c 1.06,0.21 2.26,0.77 3.18,4.03 l 3.75,13.2 h -5.6 l -2.85,-11.26 c -0.72,-2.73 -2.06,-3.62 -4.02,-3.62 h -1.2 v 14.88 h -5.27 v -34.65 z m 7.43,15.1 c 2.79,0 4.7,-1.74 4.7,-5.26 0,-3.99 -1.74,-4.96 -4.7,-4.96 h -2.16 v 10.22 z"
   clip-path="url(#SVGID_2_)"
   id="path116"
   style="fill:#ffffff" />
		<polygon
   class="st1"
   points="3809.43,2661.86 3799.57,2661.86 3799.57,2671.09 3808.91,2671.09 3808.91,2676.15 3799.57,2676.15 3799.57,2686.36 3809.85,2686.36 3809.85,2691.43 3794.28,2691.43 3794.28,2656.8 3809.43,2656.8 "
   clip-path="url(#SVGID_2_)"
   id="polygon118"
   style="fill:#ffffff" />
		<path
   class="st1"
   d="m 3825.38,2672.03 h 9.32 v 18.11 c -1.48,0.94 -4.04,1.79 -7.8,1.79 -9.23,0 -14.14,-7.54 -14.14,-17.81 0,-10.27 4.91,-17.81 14.14,-17.81 3.3,0 5.91,0.89 7.03,1.48 l -0.29,5.72 c -1.7,-1.24 -3.99,-2.13 -6.65,-2.13 -5.61,0 -8.63,5.55 -8.63,12.75 0,7.79 2.95,12.75 8.35,12.75 1.24,0 2.34,-0.3 3.03,-0.64 v -9.34 h -4.36 z"
   clip-path="url(#SVGID_2_)"
   id="path120"
   style="fill:#ffffff" />
		<rect
   x="3839.6699"
   y="2656.8"
   class="st1"
   width="5.27"
   height="34.610001"
   clip-path="url(#SVGID_2_)"
   id="rect122"
   style="fill:#ffffff" />
		<path
   class="st1"
   d="m 3860.4,2656.29 c 5.99,0 11.47,5.36 11.47,17.82 0,12.46 -5.48,17.82 -11.47,17.82 -5.99,0 -11.47,-5.36 -11.47,-17.82 0,-12.46 5.47,-17.82 11.47,-17.82 m 0,30.78 c 3.35,0 6.02,-3.43 6.02,-12.96 0,-9.53 -2.67,-12.94 -6.02,-12.94 -3.35,0 -6.02,3.41 -6.02,12.94 -0.01,9.53 2.66,12.96 6.02,12.96"
   clip-path="url(#SVGID_2_)"
   id="path124"
   style="fill:#ffffff" />
		<polygon
   class="st1"
   points="3891.64,2683.99 3891.69,2683.99 3891.69,2656.8 3896.5,2656.8 3896.5,2691.43 3890.18,2691.43 3880.63,2664.45 3880.55,2664.45 3880.55,2691.43 3875.77,2691.43 3875.77,2656.8 3882.05,2656.8 "
   clip-path="url(#SVGID_2_)"
   id="polygon126"
   style="fill:#ffffff" />
		<path
   class="st1"
   d="m 3916.06,2683.1 h -9.9 l -2.06,8.34 h -5.28 l 9.68,-34.63 h 5.78 l 9.28,34.63 h -5.46 z m -1.09,-4.87 -3.64,-16.17 h -0.08 l -3.96,16.17 z"
   clip-path="url(#SVGID_2_)"
   id="path128"
   style="fill:#ffffff" />
		<polygon
   class="st1"
   points="3930.86,2686.36 3940.35,2686.36 3940.35,2691.43 3925.59,2691.43 3925.59,2656.8 3930.86,2656.8 "
   clip-path="url(#SVGID_2_)"
   id="polygon130"
   style="fill:#ffffff" />
		<path
   class="st1"
   d="m 3952.71,2656.81 h 8.26 c 5.93,0 9.05,3.96 9.05,10.52 0,6.55 -3.12,10.57 -9.05,10.57 H 3958 v 13.53 h -5.29 z m 7.26,16.21 c 3.3,0 4.75,-1.92 4.75,-5.7 0,-3.78 -1.45,-5.68 -4.75,-5.68 H 3958 v 11.37 h 1.97 z"
   clip-path="url(#SVGID_2_)"
   id="path132"
   style="fill:#ffffff" />
		<path
   class="st1"
   d="m 3984.74,2683.1 h -9.91 l -2.06,8.34 h -5.28 l 9.68,-34.63 h 5.78 l 9.28,34.63 h -5.46 z m -1.1,-4.87 -3.63,-16.17 h -0.09 l -3.96,16.17 z"
   clip-path="url(#SVGID_2_)"
   id="path134"
   style="fill:#ffffff" />
		<path
   class="st1"
   d="m 3994.12,2656.79 h 9 c 5.14,0 8.59,2.79 8.59,9.13 0,4.51 -2.36,7.55 -5.57,8.15 v 0.14 c 1.06,0.21 2.26,0.77 3.17,4.03 l 3.76,13.2 h -5.6 l -2.86,-11.26 c -0.71,-2.73 -2.05,-3.62 -4.02,-3.62 h -1.19 v 14.88 h -5.29 v -34.65 z m 7.43,15.1 c 2.81,0 4.72,-1.74 4.72,-5.26 0,-3.99 -1.74,-4.96 -4.72,-4.96 h -2.14 v 10.22 z"
   clip-path="url(#SVGID_2_)"
   id="path136"
   style="fill:#ffffff" />
		<path
   class="st1"
   d="m 4030.75,2683.1 h -9.9 l -2.06,8.34 h -5.29 l 9.68,-34.63 h 5.79 l 9.28,34.63 h -5.46 z m -1.12,-4.87 -3.62,-16.17 h -0.09 l -3.95,16.17 z"
   clip-path="url(#SVGID_2_)"
   id="path138"
   style="fill:#ffffff" />
		<path
   class="st1"
   d="m 4062.42,2683.1 h -9.91 l -2.06,8.34 h -5.28 l 9.68,-34.63 h 5.78 l 9.28,34.63 h -5.45 z m -1.11,-4.87 -3.62,-16.17 h -0.09 l -3.96,16.17 z"
   clip-path="url(#SVGID_2_)"
   id="path140"
   style="fill:#ffffff" />
		<path
   class="st1"
   d="m 4071.85,2684.74 c 1.03,0.79 3.3,2.13 6.1,2.13 2.33,0 4.4,-1.53 4.4,-5.01 0,-2.49 -1.2,-3.57 -3.75,-5.26 l -2.7,-1.79 c -2.85,-1.88 -4.69,-4.61 -4.69,-9.09 0,-6.19 4.24,-9.42 9.08,-9.42 3.05,0 5.19,0.93 6.01,1.24 l -0.23,5.31 c -1.28,-0.61 -2.98,-1.48 -5.41,-1.48 -2.66,0 -4.03,1.67 -4.03,4.06 0,2.57 1.47,3.57 3.06,4.65 l 3.12,2.08 c 3.36,2.29 4.97,4.49 4.97,9.34 0,7.05 -4.15,10.42 -9.64,10.42 -2.9,0 -5.14,-0.5 -6.57,-1.55 z"
   clip-path="url(#SVGID_2_)"
   id="path142"
   style="fill:#ffffff" />
		<polyline
   class="st1"
   points="4274.45,2627.78 4283.27,2606.51 4296.53,2606.51 4283.27,2627.78   "
   clip-path="url(#SVGID_2_)"
   id="polyline144"
   style="fill:#ffffff" />
		<polyline
   class="st1"
   points="3687.02,2654.04 3691.42,2643.41 3698.05,2643.41 3691.42,2654.04   "
   clip-path="url(#SVGID_2_)"
   id="polyline146"
   style="fill:#ffffff" />
		<path
   class="st1"
   d="m 2696.04,2313.35 c 20.35,0 39.02,16.15 39.02,53.7 0,37.56 -18.67,53.7 -39.02,53.7 -20.35,0 -39.02,-16.15 -39.02,-53.7 0,-37.54 18.67,-53.7 39.02,-53.7 m 0,92.75 c 11.37,0 20.48,-10.32 20.48,-39.05 0,-28.72 -9.11,-39.05 -20.48,-39.05 -11.37,0 -20.49,10.33 -20.49,39.05 0,28.73 9.12,39.05 20.49,39.05"
   clip-path="url(#SVGID_2_)"
   id="path148"
   style="fill:#ffffff" />
		<path
   class="st1"
   d="m 2747.82,2354.94 c 0,-4.79 -0.14,-9.28 -0.56,-12.71 h 15.71 c 0.15,4.64 0.57,9.43 0.57,14.07 h 0.28 c 2.11,-6 7.59,-15.26 18.39,-15.26 1.12,0 1.96,0.3 2.95,0.44 v 17.37 c -1.54,-0.46 -3.09,-0.75 -4.9,-0.75 -7.16,0 -15.02,4.62 -15.02,18.99 v 42.18 h -17.41"
   clip-path="url(#SVGID_2_)"
   id="path150"
   style="fill:#ffffff" />
		<path
   class="st1"
   d="m 2795.43,2431.24 c 4.06,2.39 12.2,6.58 21.32,6.58 16.42,0 19.08,-12.12 19.08,-24.24 v -7.31 h -0.28 c -2.81,5.98 -7.73,13 -19.08,13 -10.11,0 -25.24,-7.17 -25.24,-38.28 0,-21.26 7.14,-39.95 26.09,-39.95 10.51,0 15.43,6.44 19.08,13.17 h 0.55 c 0,-4.05 0.44,-7.93 0.59,-11.98 h 15.71 c -0.28,4.05 -0.56,8.08 -0.56,12.12 v 56.85 c 0,24.08 -6.88,41.3 -33.41,41.3 -11.49,0 -20.61,-3.15 -24.83,-4.8 m 26.1,-42.04 c 10.93,0 15.28,-8.38 15.28,-25.88 0,-16.16 -5.75,-24.84 -14.03,-24.69 -9.12,0.15 -12.62,9.13 -12.62,24.85 0,18.07 5.46,25.72 11.37,25.72"
   clip-path="url(#SVGID_2_)"
   id="path152"
   style="fill:#ffffff" />
		<path
   class="st1"
   d="m 2869.95,2346.71 c 4.91,-2.39 11.77,-5.68 22.86,-5.68 22.45,0 27.66,11.67 27.66,30.97 v 33.66 c 0,5.52 0.55,10.61 0.96,13.6 h -15.71 c -0.84,-3 -0.97,-6.74 -0.97,-10.48 h -0.3 c -4.35,6.3 -9.81,11.68 -20.19,11.68 -11.24,0 -21.62,-8.23 -21.62,-22.59 0,-20.95 16.02,-26.19 38.04,-26.19 h 3.51 v -2.84 c 0,-7.63 -3.51,-14.67 -13.47,-14.67 -8.7,0 -16.43,4.49 -19.82,7.47 m 33.28,19.93 h -1.55 c -14.88,0 -23.72,3.28 -23.72,14.53 0,7.03 4.34,11.81 11.08,11.81 10.39,0 14.18,-8.24 14.18,-22 v -4.34 z"
   clip-path="url(#SVGID_2_)"
   id="path154"
   style="fill:#ffffff" />
		<path
   class="st1"
   d="m 2934.48,2354.94 c 0,-4.79 -0.15,-9.28 -0.57,-12.71 h 16.28 c 0.15,3.88 0.57,7.92 0.57,11.82 h 0.44 -0.16 c 2.53,-4.63 7.44,-13.01 19.21,-13.01 16.43,0 21.34,13.01 21.34,28.57 v 49.66 h -17.42 v -46.22 c 0,-11.81 -2.79,-16.74 -9.96,-16.74 -9.12,0 -12.34,8.21 -12.34,18.09 v 44.87 h -17.4"
   clip-path="url(#SVGID_2_)"
   id="path156"
   style="fill:#ffffff" />
		<path
   class="st1"
   d="m 3006.61,2309.45 h 17.96 v 18.28 h -17.96 m 0.29,14.5 h 17.42 v 77.03 h -17.42 z"
   clip-path="url(#SVGID_2_)"
   id="path158"
   style="fill:#ffffff" />
		<polyline
   class="st1"
   points="3035.66,2403.26 3066.54,2356.3 3036.66,2356.3 3036.66,2342.24 3083.94,2342.24 3083.94,2358.08    3053.63,2405.2 3084.91,2405.2 3084.91,2419.26 3035.66,2419.26   "
   clip-path="url(#SVGID_2_)"
   id="polyline160"
   style="fill:#ffffff" />
		<path
   class="st1"
   d="m 3098.11,2346.71 c 4.91,-2.39 11.78,-5.68 22.86,-5.68 22.45,0 27.66,11.67 27.66,30.97 v 33.66 c 0,5.52 0.55,10.61 0.97,13.6 h -15.72 c -0.84,-3 -0.96,-6.74 -0.96,-10.48 h -0.3 c -4.35,6.3 -9.81,11.68 -20.2,11.68 -11.23,0 -21.61,-8.23 -21.61,-22.59 0,-20.95 16.01,-26.19 38.03,-26.19 h 3.51 v -2.84 c 0,-7.63 -3.51,-14.67 -13.48,-14.67 -8.69,0 -16.41,4.49 -19.79,7.47 m 33.27,19.93 h -1.54 c -14.87,0 -23.72,3.28 -23.72,14.53 0,7.03 4.34,11.81 11.07,11.81 10.39,0 14.18,-8.24 14.18,-22 v -4.34 z"
   clip-path="url(#SVGID_2_)"
   id="path162"
   style="fill:#ffffff" />
		<path
   class="st1"
   d="m 3211.78,2417.31 c -4.09,1.65 -10.12,3.15 -17.13,3.15 h -0.85 l -2.51,8.08 c 1.39,-0.45 3.09,-0.89 5.47,-0.89 7.73,0 12.22,4.63 12.22,11.06 0,9.43 -8.71,13.77 -15.59,13.77 -5.88,0 -11.93,-1.5 -14.73,-3 l 2.23,-5.98 c 2.82,1.05 5.64,2.1 9.83,2.1 4.63,0 7.29,-2.56 7.29,-6.15 0,-3.43 -2.66,-5.53 -6.45,-5.53 -2.53,0 -4.21,0.46 -5.48,1.04 l -2.52,-2.54 4.21,-12.56 c -19.08,-3.28 -27.09,-19.6 -27.09,-39.06 0,-21.98 10.67,-39.77 34.94,-39.77 5.48,0 11.93,1.79 15.16,3.13 l -0.97,14.67 c -3.1,-1.64 -7.44,-3.74 -12.23,-3.74 -13.18,0 -18.93,9.42 -18.93,25.89 0,14.36 6.45,25.41 19.78,25.41 4.22,0 9.96,-2.08 12.35,-3.73"
   clip-path="url(#SVGID_2_)"
   id="path164"
   style="fill:#ffffff" />
		<path
   class="st1"
   d="m 3223.85,2346.71 c 4.91,-2.39 11.78,-5.68 22.86,-5.68 22.46,0 27.66,11.67 27.66,30.97 v 33.66 c 0,5.52 0.55,10.61 0.97,13.6 h -15.72 c -0.84,-3 -0.96,-6.74 -0.96,-10.48 h -0.3 c -4.35,6.3 -9.81,11.68 -20.2,11.68 -11.23,0 -21.61,-8.23 -21.61,-22.59 0,-20.95 16.02,-26.19 38.03,-26.19 h 3.51 v -2.84 c 0,-7.63 -3.51,-14.67 -13.47,-14.67 -8.7,0 -16.42,4.49 -19.8,7.47 m 1.69,-29.58 c 0,-5.26 2.66,-17.22 13.18,-17.51 6.48,0 11.94,5.09 16.14,5.09 2.83,0 4.08,-2.83 4.08,-5.83 h 8.71 c 0,4.33 -2.68,17.5 -13.08,17.5 -5.46,0 -10.65,-5.1 -15.7,-5.1 -3.51,0 -5.19,2.7 -5.19,5.85 z m 31.57,49.51 h -1.54 c -14.87,0 -23.73,3.28 -23.73,14.53 0,7.03 4.35,11.81 11.09,11.81 10.38,0 14.17,-8.24 14.17,-22 v -4.34 z"
   clip-path="url(#SVGID_2_)"
   id="path166"
   style="fill:#ffffff" />
		<path
   class="st1"
   d="m 3318.28,2341.03 c 14.73,0 31.71,8.23 31.71,39.63 0,32.31 -16.99,39.8 -31.71,39.8 -14.74,0 -31.85,-7.49 -31.85,-39.8 0,-31.41 17.11,-39.63 31.85,-39.63 m 0,66.27 c 11.22,0 13.75,-13.77 13.75,-26.64 0,-12.85 -2.53,-26.46 -13.75,-26.46 -11.23,0 -13.89,13.61 -13.89,26.46 0,12.87 2.66,26.64 13.89,26.64"
   clip-path="url(#SVGID_2_)"
   id="path168"
   style="fill:#ffffff" />
		<path
   class="st1"
   d="m 2660.13,2446.06 h 28.05 c 20.2,0 30.75,11.98 30.75,31.72 0,19.75 -10.55,31.86 -30.75,31.86 h -10.1 v 40.83 h -17.95 m 24.69,-55.48 c 11.22,0 16.13,-5.83 16.13,-17.2 0,-11.37 -4.91,-17.06 -16.13,-17.06 h -6.74 v 34.25 h 6.74 z"
   clip-path="url(#SVGID_2_)"
   id="path170"
   style="fill:#ffffff" />
		<path
   class="st1"
   d="m 2724.97,2477.93 c 4.91,-2.4 11.78,-5.68 22.86,-5.68 22.45,0 27.65,11.66 27.65,30.96 v 33.67 c 0,5.54 0.56,10.61 0.97,13.6 h -15.72 c -0.83,-3 -0.96,-6.73 -0.96,-10.46 h -0.29 c -4.35,6.27 -9.82,11.65 -20.2,11.65 -11.23,0 -21.61,-8.22 -21.61,-22.58 0,-20.95 16,-26.17 38.03,-26.17 h 3.51 v -2.86 c 0,-7.63 -3.51,-14.65 -13.48,-14.65 -8.7,0 -16.42,4.47 -19.8,7.45 m 33.27,19.92 h -1.54 c -14.87,0 -23.73,3.3 -23.73,14.53 0,7.03 4.36,11.81 11.08,11.81 10.39,0 14.18,-8.24 14.18,-22 v -4.34 z"
   clip-path="url(#SVGID_2_)"
   id="path172"
   style="fill:#ffffff" />
		<path
   class="st1"
   d="m 2789.51,2486.17 c 0,-4.79 -0.15,-9.3 -0.58,-12.72 h 16.28 c 0.15,3.88 0.57,7.93 0.57,11.81 h 0.43 -0.15 c 2.53,-4.63 7.44,-13 19.21,-13 16.43,0 21.34,13 21.34,28.57 v 49.66 h -17.41 v -46.23 c 0,-11.81 -2.79,-16.75 -9.95,-16.75 -9.12,0 -12.35,8.24 -12.35,18.11 v 44.87 h -17.39"
   clip-path="url(#SVGID_2_)"
   id="path174"
   style="fill:#ffffff" />
		<rect
   x="2858.27"
   y="2500.3799"
   class="st1"
   width="32.43"
   height="15.26"
   clip-path="url(#SVGID_2_)"
   id="rect176"
   style="fill:#ffffff" />
		<path
   class="st1"
   d="m 2953.97,2525.37 h -33.69 l -7.02,25.12 h -17.95 l 32.84,-104.42 h 19.65 l 31.57,104.42 h -18.53 m -10.66,-39.8 -12.34,-48.77 h -0.29 l -13.47,48.77 z"
   clip-path="url(#SVGID_2_)"
   id="path178"
   style="fill:#ffffff" />
		<path
   class="st1"
   d="m 2985.54,2486.01 c 0,-5.55 -0.27,-9.71 -0.57,-12.57 h 17.4 c 0.15,4.05 0.57,8.08 0.57,12.13 h 0.28 c 2.68,-5.96 8.28,-13.33 18.24,-13.33 12.22,0 16.14,8.08 18.24,12.28 3.52,-5.4 8.71,-12.28 19.38,-12.28 15.71,0 20.77,11.98 20.77,30.68 v 47.56 h -17.41 v -48.61 c 0,-9.59 -2.81,-14.37 -9.28,-14.37 -7.7,0 -11.77,7.78 -11.77,16.32 v 46.66 h -17.41 v -48.61 c 0,-9.59 -2.8,-14.37 -9.27,-14.37 -7.71,0 -11.78,7.78 -11.78,16.32 v 46.66 h -17.4"
   clip-path="url(#SVGID_2_)"
   id="path180"
   style="fill:#ffffff" />
		<path
   class="st1"
   d="m 3146.06,2546.73 c -3.64,1.67 -11.21,4.94 -21.61,4.94 -23.27,0 -33.37,-17.79 -33.37,-38.58 0,-23.05 11.35,-40.85 29.74,-40.85 15.59,0 28.91,9.72 28.91,41.13 v 3.6 h -41.82 c 0,13.17 4.93,21.1 18.38,21.1 10.67,0 15.72,-3.44 18.95,-5.99 m -12.35,-26.77 c 0,-13.62 -4.22,-20.49 -12.08,-20.49 -9.14,0 -12.91,10.31 -12.91,20.49 z"
   clip-path="url(#SVGID_2_)"
   id="path182"
   style="fill:#ffffff" />
		<path
   class="st1"
   d="m 3161.66,2486.17 c 0,-4.79 -0.16,-9.3 -0.58,-12.72 h 15.72 c 0.14,4.64 0.58,9.42 0.58,14.05 h 0.27 c 2.1,-5.98 7.58,-15.24 18.38,-15.24 1.13,0 1.97,0.29 2.97,0.44 v 17.36 c -1.57,-0.44 -3.1,-0.75 -4.91,-0.75 -7.16,0 -15.03,4.65 -15.03,19.01 v 42.17 h -17.39"
   clip-path="url(#SVGID_2_)"
   id="path184"
   style="fill:#ffffff" />
		<path
   class="st1"
   d="m 3209.8,2440.68 h 17.95 v 18.27 h -17.95 m 0.26,14.49 h 17.4 v 77.05 h -17.4 z"
   clip-path="url(#SVGID_2_)"
   id="path186"
   style="fill:#ffffff" />
		<path
   class="st1"
   d="m 3291.88,2548.54 c -4.07,1.65 -10.11,3.14 -17.15,3.14 -23.83,0 -33.94,-17.79 -33.94,-39.64 0,-21.99 10.67,-39.77 34.95,-39.77 5.46,0 11.92,1.79 15.14,3.14 l -0.96,14.65 c -3.12,-1.64 -7.44,-3.73 -12.24,-3.73 -13.18,0 -18.93,9.43 -18.93,25.88 0,14.35 6.45,25.44 19.78,25.44 4.22,0 9.97,-2.11 12.35,-3.75"
   clip-path="url(#SVGID_2_)"
   id="path188"
   style="fill:#ffffff" />
		<path
   class="st1"
   d="m 3303.94,2477.93 c 4.92,-2.4 11.79,-5.68 22.87,-5.68 22.46,0 27.66,11.66 27.66,30.96 v 33.67 c 0,5.54 0.55,10.61 0.97,13.6 h -15.71 c -0.85,-3 -0.98,-6.73 -0.98,-10.46 h -0.29 c -4.35,6.27 -9.81,11.65 -20.2,11.65 -11.23,0 -21.61,-8.22 -21.61,-22.58 0,-20.95 16.01,-26.17 38.03,-26.17 h 3.51 v -2.86 c 0,-7.63 -3.51,-14.65 -13.48,-14.65 -8.7,0 -16.42,4.47 -19.79,7.45 m 33.26,19.92 h -1.54 c -14.87,0 -23.72,3.3 -23.72,14.53 0,7.03 4.35,11.81 11.07,11.81 10.4,0 14.18,-8.24 14.18,-22 v -4.34 z"
   clip-path="url(#SVGID_2_)"
   id="path190"
   style="fill:#ffffff" />
		<path
   class="st1"
   d="m 3368.5,2486.17 c 0,-4.79 -0.16,-9.3 -0.58,-12.72 h 16.3 c 0.14,3.88 0.56,7.93 0.56,11.81 h 0.43 -0.15 c 2.52,-4.63 7.43,-13 19.2,-13 16.44,0 21.35,13 21.35,28.57 v 49.66 h -17.41 v -46.23 c 0,-11.81 -2.81,-16.75 -9.96,-16.75 -9.12,0 -12.35,8.24 -12.35,18.11 v 44.87 h -17.4"
   clip-path="url(#SVGID_2_)"
   id="path192"
   style="fill:#ffffff" />
		<path
   class="st1"
   d="m 3442.73,2477.93 c 4.91,-2.4 11.78,-5.68 22.86,-5.68 22.46,0 27.66,11.66 27.66,30.96 v 33.67 c 0,5.54 0.55,10.61 0.97,13.6 h -15.73 c -0.83,-3 -0.95,-6.73 -0.95,-10.46 h -0.3 c -4.35,6.27 -9.81,11.65 -20.2,11.65 -11.23,0 -21.61,-8.22 -21.61,-22.58 0,-20.95 16.02,-26.17 38.03,-26.17 h 3.51 v -2.86 c 0,-7.63 -3.51,-14.65 -13.48,-14.65 -8.69,0 -16.41,4.47 -19.81,7.45 m 33.28,19.92 h -1.54 c -14.88,0 -23.73,3.3 -23.73,14.53 0,7.03 4.36,11.81 11.09,11.81 10.38,0 14.17,-8.24 14.17,-22 v -4.34 z"
   clip-path="url(#SVGID_2_)"
   id="path194"
   style="fill:#ffffff" />
		<path
   class="st1"
   d="m 2717.8,2569.5 v 99.05 c 0,5.52 0.13,10.3 0.55,13.15 h -16.26 c -0.3,-2.24 -0.58,-6.73 -0.58,-11.96 h -0.42 c -2.8,6.58 -8.01,13.16 -19.21,13.16 -17.97,0 -25.41,-18.26 -25.41,-39.64 0,-25.13 9.41,-39.8 25.01,-39.8 10.35,0 16.13,6.3 18.65,12.27 h 0.28 v -46.23 m -13.77,99.78 c 10.24,0 13.75,-11.81 13.75,-26.32 0,-14.96 -3.94,-25.88 -13.48,-25.88 -9.68,0 -13.05,10.01 -13.05,25.43 0.01,17.8 2.66,26.77 12.78,26.77"
   clip-path="url(#SVGID_2_)"
   id="path196"
   style="fill:#ffffff" />
		<path
   class="st1"
   d="m 2735.2,2609.16 c 4.9,-2.39 11.77,-5.7 22.85,-5.7 22.47,0 27.67,11.68 27.67,30.98 v 33.65 c 0,5.54 0.55,10.63 0.96,13.62 h -15.72 c -0.84,-3 -0.96,-6.74 -0.96,-10.48 h -0.3 c -4.34,6.29 -9.81,11.67 -20.19,11.67 -11.24,0 -21.62,-8.24 -21.62,-22.59 0,-20.95 16.02,-26.17 38.03,-26.17 h 3.5 v -2.85 c 0,-7.63 -3.5,-14.67 -13.47,-14.67 -8.7,0 -16.41,4.48 -19.8,7.48 m 33.28,19.92 h -1.54 c -14.87,0 -23.72,3.27 -23.72,14.5 0,7.05 4.36,11.82 11.08,11.82 10.39,0 14.17,-8.24 14.17,-21.98 v -4.34 z"
   clip-path="url(#SVGID_2_)"
   id="path198"
   style="fill:#ffffff" />
		<path
   class="st1"
   d="m 2835.39,2661.5 c 3.51,2.39 11.22,6.45 20.77,6.45 7.85,0 14.87,-4.65 14.87,-15.11 0,-7.48 -4.08,-10.77 -12.76,-15.87 l -9.13,-5.4 c -9.69,-5.67 -16.03,-13.88 -16.03,-27.34 0,-18.72 14.49,-28.44 30.89,-28.44 10.4,0 17.69,2.85 20.48,3.73 l -0.83,16.03 c -4.36,-1.8 -10.1,-4.5 -18.39,-4.5 -8.98,0 -13.59,5.1 -13.59,12.28 0,7.77 4.9,10.78 10.39,14.04 l 10.5,6.29 c 11.52,6.88 16.99,13.46 16.99,28.12 0,21.25 -14.18,31.43 -32.84,31.43 -9.82,0 -17.4,-1.5 -22.32,-4.62"
   clip-path="url(#SVGID_2_)"
   id="path200"
   style="fill:#ffffff" />
		<path
   class="st1"
   d="m 2905.69,2609.16 c 4.92,-2.39 11.78,-5.7 22.87,-5.7 22.45,0 27.65,11.68 27.65,30.98 v 33.65 c 0,5.54 0.56,10.63 0.97,13.62 h -15.72 c -0.83,-3 -0.96,-6.74 -0.96,-10.48 h -0.29 c -4.35,6.29 -9.81,11.67 -20.21,11.67 -11.22,0 -21.61,-8.24 -21.61,-22.59 0,-20.95 16.02,-26.17 38.04,-26.17 h 3.51 v -2.85 c 0,-7.63 -3.51,-14.67 -13.48,-14.67 -8.7,0 -16.42,4.48 -19.8,7.48 m 33.27,19.92 h -1.54 c -14.88,0 -23.73,3.27 -23.73,14.5 0,7.05 4.36,11.82 11.08,11.82 10.38,0 14.18,-8.24 14.18,-21.98 v -4.34 z"
   clip-path="url(#SVGID_2_)"
   id="path202"
   style="fill:#ffffff" />
		<path
   class="st1"
   d="m 3027.36,2668.99 c 0,4.78 0.13,9.26 0.54,12.72 h -16.25 c -0.16,-3.9 -0.58,-7.94 -0.58,-11.83 l -0.42,-0.14 0.14,0.14 c -3.36,5.7 -7.85,13.02 -19.22,13.02 -16.41,0 -21.31,-13.02 -21.31,-28.58 v -49.67 h 17.4 v 46.21 c 0,11.83 3.07,16.78 10.38,16.78 9.25,0 11.93,-8.98 11.93,-18.84 v -44.15 h 17.41 m -27.8,-30.06 h 16.26 l -14.32,21.55 h -10.92 z"
   clip-path="url(#SVGID_2_)"
   id="path204"
   style="fill:#ffffff" />
		<path
   class="st1"
   d="m 3100.33,2569.5 v 99.05 c 0,5.52 0.12,10.3 0.57,13.15 h -16.28 c -0.31,-2.24 -0.57,-6.73 -0.57,-11.96 h -0.43 c -2.8,6.58 -8,13.16 -19.2,13.16 -17.98,0 -25.41,-18.26 -25.41,-39.64 0,-25.13 9.39,-39.8 24.99,-39.8 10.36,0 16.13,6.3 18.65,12.27 h 0.3 v -46.23 m -13.78,99.78 c 10.23,0 13.76,-11.81 13.76,-26.32 0,-14.96 -3.95,-25.88 -13.49,-25.88 -9.69,0 -13.05,10.01 -13.05,25.43 0.01,17.8 2.66,26.77 12.78,26.77"
   clip-path="url(#SVGID_2_)"
   id="path206"
   style="fill:#ffffff" />
		<path
   class="st1"
   d="m 3167.24,2677.97 c -3.64,1.64 -11.21,4.94 -21.61,4.94 -23.28,0 -33.38,-17.82 -33.38,-38.61 0,-23.03 11.36,-40.85 29.74,-40.85 15.59,0 28.91,9.73 28.91,41.15 v 3.59 h -41.82 c 0,13.17 4.92,21.09 18.39,21.09 10.66,0 15.72,-3.43 18.94,-5.99 m -12.35,-26.76 c 0,-13.61 -4.21,-20.48 -12.08,-20.48 -9.13,0 -12.91,10.32 -12.91,20.48 z"
   clip-path="url(#SVGID_2_)"
   id="path208"
   style="fill:#ffffff" />
		<path
   class="st1"
   d="m 2408.57,2705.87 c -116.91,0 -212.02,-93.48 -212.02,-208.34 0,-114.88 95.1,-208.34 212.02,-208.34 116.9,0 212.01,93.46 212.01,208.34 0,114.86 -95.1,208.34 -212.01,208.34 m 0,-407.14 c -111.57,0 -202.31,89.17 -202.31,198.8 0,109.61 90.75,198.78 202.31,198.78 111.56,0 202.31,-89.17 202.31,-198.78 0.01,-109.63 -90.74,-198.8 -202.31,-198.8"
   clip-path="url(#SVGID_2_)"
   id="path210"
   style="fill:#ffffff" />
		<path
   class="st1"
   d="m 2408.57,2648.61 c -87.05,0 -157.85,-67.77 -157.85,-151.09 0,-83.3 70.8,-151.06 157.85,-151.06 87.05,0 157.86,67.76 157.86,151.06 0,83.32 -70.81,151.09 -157.86,151.09 m 0,-291.51 c -81.07,0 -147.03,62.99 -147.03,140.42 0,77.44 65.96,140.44 147.03,140.44 81.07,0 147.04,-63 147.04,-140.44 0,-77.43 -65.96,-140.42 -147.04,-140.42"
   clip-path="url(#SVGID_2_)"
   id="path212"
   style="fill:#ffffff" />
		<polyline
   class="st1"
   points="2241.11,2425.04 2243.88,2435.24 2254.01,2435.24 2246.65,2440.96 2249.39,2449.89 2240.68,2442.84    2232.15,2450.53 2235.58,2440.96 2226.85,2435.28 2236.98,2435.49   "
   clip-path="url(#SVGID_2_)"
   id="polyline214"
   style="fill:#ffffff" />
		<path
   class="st1"
   d="m 2250.45,2451.41 -9.75,-7.86 -8.18,7.37 -0.88,-0.57 3.29,-9.17 -9.94,-6.48 11.62,0.24 4.59,-11.62 3.1,11.37 h 11.27 l -8.3,6.46 m -18.57,-5.3 7.53,4.9 -2.86,7.95 7.28,-6.56 7.72,6.21 -2.34,-7.59 6.43,-5 h -8.99 l -2.46,-9.01 -3.65,9.27 z"
   clip-path="url(#SVGID_2_)"
   id="path216"
   style="fill:#ffffff" />
		<polyline
   class="st1"
   points="2564.5,2569.58 2567.27,2579.77 2577.4,2579.77 2570.05,2585.5 2572.8,2594.45 2564.04,2587.39    2555.53,2595.07 2558.97,2585.5 2550.21,2579.81 2560.37,2580.02   "
   clip-path="url(#SVGID_2_)"
   id="polyline218"
   style="fill:#ffffff" />
		<path
   class="st1"
   d="m 2573.85,2595.97 -9.77,-7.89 -8.2,7.39 -0.87,-0.58 3.32,-9.17 -9.97,-6.48 11.63,0.24 4.61,-11.61 3.08,11.37 h 11.26 l -8.31,6.46 m -18.55,-5.31 7.55,4.91 -2.86,7.94 7.24,-6.56 7.76,6.23 -2.36,-7.59 6.44,-5.02 h -9 l -2.46,-9.02 -3.68,9.3 z"
   clip-path="url(#SVGID_2_)"
   id="path220"
   style="fill:#ffffff" />
		<polyline
   class="st1"
   points="2251.93,2567.3 2254.71,2577.5 2264.84,2577.5 2257.48,2583.22 2260.23,2592.16 2251.5,2585.11    2242.96,2592.77 2246.42,2583.22 2237.68,2577.53 2247.81,2577.76   "
   clip-path="url(#SVGID_2_)"
   id="polyline222"
   style="fill:#ffffff" />
		<path
   class="st1"
   d="m 2261.27,2593.69 -9.75,-7.88 -8.19,7.38 -0.87,-0.59 3.3,-9.17 -9.93,-6.47 11.61,0.25 4.59,-11.63 3.1,11.38 h 11.27 l -8.31,6.44 m -18.56,-5.3 7.53,4.9 -2.86,7.96 7.26,-6.55 7.74,6.23 -2.34,-7.62 6.43,-4.99 h -9.01 l -2.44,-9.02 -3.65,9.29 z"
   clip-path="url(#SVGID_2_)"
   id="path224"
   style="fill:#ffffff" />
		<polyline
   class="st1"
   points="2577.06,2417.69 2580.76,2427.9 2589.98,2427.9 2582.61,2433.61 2585.35,2442.57 2577.06,2435    2568.11,2443.21 2571.54,2433.61 2562.79,2427.93 2572.94,2428.15   "
   clip-path="url(#SVGID_2_)"
   id="polyline226"
   style="fill:#ffffff" />
		<path
   class="st1"
   d="m 2586.45,2444.29 -9.39,-8.55 -8.6,7.86 -0.87,-0.57 3.31,-9.19 -9.96,-6.46 11.63,0.24 4.53,-11.44 4.04,11.21 h 10.4 l -8.31,6.42 m -18.59,-5.29 7.55,4.89 -2.86,7.93 7.72,-7.06 7.2,6.56 -2.29,-7.41 6.45,-4.99 h -8.05 l -3.33,-9.22 -3.75,9.49 z"
   clip-path="url(#SVGID_2_)"
   id="path228"
   style="fill:#ffffff" />
		<path
   class="st1"
   d="m 2421.04,2497.47 c 0.84,-0.03 1.73,-0.04 2.53,0"
   clip-path="url(#SVGID_2_)"
   id="path230"
   style="fill:#ffffff" />
		<polyline
   class="st1"
   points="2301.17,2615.9 2305.61,2619.89 2284.49,2642.33 2279.74,2638.02 2285.5,2613.65 2285.43,2613.59    2270.37,2629.58 2265.94,2625.58 2287.07,2603.15 2292.07,2607.69 2286.39,2631.45 2286.48,2631.51   "
   clip-path="url(#SVGID_2_)"
   id="polyline232"
   style="fill:#ffffff" />
		<path
   class="st1"
   d="m 2416.47,2338.03 -6.89,-0.67 14.24,-29.03 7.53,0.72 7.96,31.19 -7.09,-0.69 -1.39,-6.4 -11.56,-1.11 m 2.28,-5.04 7.99,0.76 -2.67,-12.27 h -0.08 z"
   clip-path="url(#SVGID_2_)"
   id="path234"
   style="fill:#ffffff" />
		<polyline
   class="st1"
   points="2458.77,2339.47 2473.62,2344.13 2471.81,2349.27 2450.72,2342.69 2460.67,2314.21 2466.92,2316.16      "
   clip-path="url(#SVGID_2_)"
   id="polyline236"
   style="fill:#ffffff" />
		<path
   class="st1"
   d="m 2506.6,2357.99 c -4.49,6.64 -10.55,6.88 -17.16,2.77 -2.38,-1.48 -5.58,-4.3 -6.2,-8.25 -0.37,-2.42 0.47,-4.79 2.08,-7.38 l 11.34,-16.7 5.58,3.47 -11.1,16.37 c -2.36,3.5 -1.31,6.36 1.2,7.95 3.78,2.36 6.5,1.56 8.57,-1.51 l 11.25,-16.61 5.56,3.51"
   clip-path="url(#SVGID_2_)"
   id="path238"
   style="fill:#ffffff" />
		<polyline
   class="st1"
   points="2520.81,2381.94 2515.73,2377.95 2532.34,2358.91 2525.04,2353.15 2528.6,2349.04 2548.29,2364.61    2544.71,2368.72 2537.42,2362.92   "
   clip-path="url(#SVGID_2_)"
   id="polyline240"
   style="fill:#ffffff" />
		<path
   class="st1"
   d="m 2381.73,2330.99 c 0.33,1.68 1.72,4.72 7.38,3.92 3.05,-0.45 6.34,-1.65 5.81,-4.83 -0.41,-2.34 -2.83,-2.65 -6.24,-2.93 l -3.46,-0.27 c -5.18,-0.4 -10.19,-0.79 -11.32,-7.4 -0.57,-3.34 0.31,-9.52 10.36,-10.99 9.49,-1.36 13.04,4.3 13.7,7.98 l -6.19,0.89 c -0.41,-1.33 -1.47,-4.42 -7.11,-3.59 -2.48,0.36 -5.25,1.66 -4.78,4.37 0.41,2.34 2.47,2.57 3.8,2.68 l 7.85,0.69 c 4.4,0.4 8.55,1.51 9.48,6.9 1.51,9.04 -7.84,11.21 -10.56,11.61 -11.29,1.64 -14.31,-4.4 -14.93,-8.13"
   clip-path="url(#SVGID_2_)"
   id="path242"
   style="fill:#ffffff" />
		<path
   class="st1"
   d="m 2310.77,2331.83 c 3.67,-1.87 14.14,-5.21 20.95,7.41 6.8,12.58 -2.04,19 -5.71,20.85 -3.68,1.85 -14.16,5.19 -20.96,-7.41 -6.78,-12.6 2.05,-19.01 5.72,-20.85 m 12.69,23.5 c 3.14,-1.57 6.52,-5.67 2.48,-13.17 -4.06,-7.52 -9.49,-7.17 -12.62,-5.59 -3.11,1.58 -6.5,5.68 -2.46,13.18 4.04,7.52 9.47,7.17 12.6,5.58"
   clip-path="url(#SVGID_2_)"
   id="path244"
   style="fill:#ffffff" />
		<path
   class="st1"
   d="m 2265.6,2368.34 10.9,-11.07 c 5.76,-5.83 11.17,-2.88 13.1,-1.11 2.46,2.28 3.36,5.44 1.97,8.31 2.57,-1.06 4.22,-1.41 8.4,2.44 3.25,2.98 4.06,3.73 5.41,3.11 l 0.59,0.53 -5.01,5.06 c -1.36,-0.65 -2.68,-1.53 -4.97,-3.62 -3.04,-2.83 -4.41,-3.73 -7.74,-0.34 l -4.65,4.74 8.71,8.04 -4.41,4.48 m -2.79,-21.39 c 2.35,-2.36 2.66,-4.32 0.46,-6.34 -1.19,-1.09 -3.44,-2.16 -6.08,0.55 l -5.64,5.68 5.95,5.51 z"
   clip-path="url(#SVGID_2_)"
   id="path246"
   style="fill:#ffffff" />
		<polyline
   class="st1"
   points="2493.68,2633.73 2498.98,2630.89 2514.17,2657.01 2508.46,2660.09 2486.53,2647.44 2486.44,2647.5    2497.25,2666.13 2491.94,2669 2476.78,2642.84 2482.77,2639.62 2504.18,2651.99 2504.25,2651.94   "
   clip-path="url(#SVGID_2_)"
   id="polyline248"
   style="fill:#ffffff" />
		<path
   class="st1"
   d="m 2505.03,2625.36 10.89,-8.15 c 8.32,-6.21 15.57,-0.66 19.2,3.86 4.14,5.1 7.97,14.01 -0.19,20.11 l -10.68,7.98 m 1.73,-7.89 5.03,-3.74 c 4.21,-3.13 2.31,-8.28 -0.86,-12.18 -5.67,-7.04 -9.59,-5 -11.8,-3.35 l -4.96,3.7 z"
   clip-path="url(#SVGID_2_)"
   id="path250"
   style="fill:#ffffff" />
		<polyline
   class="st1"
   points="2557.25,2620.97 2552.92,2625.73 2529.47,2605.86 2533.77,2601.12   "
   clip-path="url(#SVGID_2_)"
   id="polyline252"
   style="fill:#ffffff" />
		<polyline
   class="st1"
   points="2567.29,2396.85 2557.22,2384.08 2551.99,2387.93 2561.25,2399.62 2556.83,2402.84 2547.59,2391.14    2541.12,2395.84 2551.64,2409.16 2547.23,2412.39 2532.85,2394.16 2557.76,2375.95 2571.69,2393.63   "
   clip-path="url(#SVGID_2_)"
   id="polyline254"
   style="fill:#ffffff" />
		<path
   class="st1"
   d="m 2321.93,2631.49 c 3.38,2.3 11.28,9.72 2.94,21.33 -8.35,11.61 -18.29,7.01 -21.68,4.71 -3.39,-2.28 -11.29,-9.7 -2.94,-21.32 8.35,-11.6 18.29,-7 21.68,-4.72 m -15.59,21.68 c 2.89,1.95 8.19,2.98 13.18,-3.96 4.99,-6.93 2.15,-11.4 -0.75,-13.35 -2.89,-1.95 -8.19,-2.96 -13.16,3.95 -4.99,6.94 -2.15,11.42 0.73,13.36"
   clip-path="url(#SVGID_2_)"
   id="path256"
   style="fill:#ffffff" />
		<polyline
   class="st1"
   points="2355.1,2647.84 2361.37,2650.19 2340.16,2674.77 2334.41,2672.62 2336.02,2640.77 2342.5,2643.16    2340.1,2666.87 2340.17,2666.9   "
   clip-path="url(#SVGID_2_)"
   id="polyline258"
   style="fill:#ffffff" />
		<polyline
   class="st1"
   points="2365.7,2682.1 2359.36,2680.49 2367.42,2651.56 2373.76,2653.17   "
   clip-path="url(#SVGID_2_)"
   id="polyline260"
   style="fill:#ffffff" />
		<polyline
   class="st1"
   points="2439.8,2684.4 2433.69,2684.82 2431.91,2659.66 2431.82,2659.66 2427.77,2685.19 2421.35,2685.63    2413.86,2660.85 2413.77,2660.85 2415.53,2686.03 2409.46,2686.43 2407.32,2656.33 2416.87,2655.68 2424.21,2679.04    2424.3,2679.04 2428.21,2654.93 2437.69,2654.3   "
   clip-path="url(#SVGID_2_)"
   id="polyline262"
   style="fill:#ffffff" />
		<path
   class="st1"
   d="m 2476.07,2665.68 c 2.06,7.74 -1.87,12.25 -9.52,14.13 -2.8,0.68 -7.13,1.04 -10.6,-1.19 -2.13,-1.4 -3.42,-3.64 -4.28,-6.56 l -5.19,-19.48 6.47,-1.59 5.07,19.06 c 1.09,4.1 4.03,5.32 7.02,4.58 4.32,-1.07 5.57,-3.55 4.61,-7.11 l -5.16,-19.39 6.48,-1.58"
   clip-path="url(#SVGID_2_)"
   id="path264"
   style="fill:#ffffff" />
		<path
   class="st1"
   d="m 2268.78,2412.43 -3.65,5.27 -25.85,-17.03 8,-11.53 c 3.42,-4.88 8.67,-5.72 13.74,-2.37 2.34,1.55 7.37,6.71 2.66,13.49 l -4.21,6.04 m -1.07,-7.84 c 2.73,-3.93 -0.15,-5.8 -1.3,-6.58 -2.52,-1.68 -4.52,-0.99 -6.79,2.27 l -2.91,4.18 7.58,5.02 z"
   clip-path="url(#SVGID_2_)"
   id="path266"
   style="fill:#ffffff" />
		<path
   class="st1"
   d="m 2439.5,2616.24 c 2.27,5.17 -3.64,3.88 -5.94,5.73 h -1.92 c 0.37,-2.95 3.64,-7.75 7.86,-5.73"
   clip-path="url(#SVGID_2_)"
   id="path268"
   style="fill:#ffffff" />
		<path
   class="st1"
   d="m 2405.82,2524.21 v 2.03 h -8.03 c -0.77,-4.43 6.15,-5.15 8.03,-2.03"
   clip-path="url(#SVGID_2_)"
   id="path270"
   style="fill:#ffffff" />
		<polyline
   class="st1"
   points="2419.8,2471.51 2423.67,2466.86 2434,2466.02 2438.71,2465.14 2436.57,2469.41 2430.97,2471.51    2431.83,2469.41 2425.39,2468.98 2421.94,2471.51   "
   clip-path="url(#SVGID_2_)"
   id="polyline272"
   style="fill:#ffffff" />
		<polyline
   class="st1"
   points="2445.19,2465.6 2448.62,2465.17 2452.48,2466.87 2450.35,2469.41 2446.47,2470.26 2444.72,2472.37    2442.57,2470.68 2439.17,2471.53 2438.73,2469.83 2441.73,2469 2440.45,2467.29 2441.73,2466.03   "
   clip-path="url(#SVGID_2_)"
   id="polyline274"
   style="fill:#ffffff" />
		<polyline
   class="st1"
   points="2455.81,2469.59 2457.96,2467.89 2461.81,2468.31 2460.98,2470.44 2455.36,2471.69   "
   clip-path="url(#SVGID_2_)"
   id="polyline276"
   style="fill:#ffffff" />
		<polyline
   class="st1"
   points="2425.39,2474.48 2429.69,2474.07 2428.82,2476.6 2424.54,2476.6   "
   clip-path="url(#SVGID_2_)"
   id="polyline278"
   style="fill:#ffffff" />
		<polyline
   class="st1"
   points="2454.64,2473.85 2457.19,2471.92 2458.57,2473.27 2456.91,2474.68   "
   clip-path="url(#SVGID_2_)"
   id="polyline280"
   style="fill:#ffffff" />
		<polyline
   class="st1"
   points="2452.42,2477.96 2454.58,2480.5 2456.31,2479.67 2454.99,2475.42   "
   clip-path="url(#SVGID_2_)"
   id="polyline282"
   style="fill:#ffffff" />
		<polyline
   class="st1"
   points="2460.28,2479.57 2461.56,2477.86 2457.68,2475.75   "
   clip-path="url(#SVGID_2_)"
   id="polyline284"
   style="fill:#ffffff" />
		<line
   class="st1"
   x1="2460.28"
   y1="2479.5701"
   x2="2461.5601"
   y2="2477.8601"
   clip-path="url(#SVGID_2_)"
   id="line286"
   style="fill:#ffffff" />
		<polyline
   class="st1"
   points="2464.6,2477.67 2466.11,2478.27 2465.51,2484.49 2463.42,2478.85   "
   clip-path="url(#SVGID_2_)"
   id="polyline288"
   style="fill:#ffffff" />
		<path
   class="st1"
   d="m 2395.88,2382.59 c 1.53,-1.68 0.4,-8.86 -2.09,-9.6 -2.89,4.43 5.91,6.45 0,9.6 m 15.88,23.03 c -0.36,-3.45 -1.23,-10.77 2.03,-15.34 l 1.96,-1.98 c -0.75,0.59 -1.43,1.24 -1.96,1.98 l -3.96,-3.83 1.93,-2.02 c -2.9,0.93 -3.85,-2.39 -5.94,-3.68 -2.68,7.18 14.53,16.41 -1.92,17.15 -1.15,-1.1 -2.68,-2.03 -2.11,-3.89 h -1.91 v 2.04 h 1.91 c -1.11,0.93 -2.09,2.4 -3.82,1.85 -0.18,2.2 0.4,4.61 -2.09,5.73 h 4.01 c 1.14,1.09 2.68,2 1.91,3.86 2.68,0.75 6.7,-1.65 8.05,1.86 -0.59,-1.7 0.93,-2.62 1.91,-3.73 m 21.09,91.85 c 4.25,-2.6 6.63,-4.34 12.75,-5.71 -0.59,1.85 0.93,2.77 1.91,3.86 4.36,-4.92 7.06,-0.87 10.34,1.85 1.62,1.38 3.36,2.39 5.53,1.86 0.13,-0.62 0.41,-1.22 0.77,-1.86 h 2.11 c 2.96,7.1 14.12,11.29 15.09,19.22 6.87,3.31 16.44,0.52 21.79,7.52 13.96,15.31 -16.79,20.85 -11.85,36.55 -2.48,10.12 -10.32,11.8 -19.89,13.28 -3.07,7.72 -9.18,10.88 -15.87,15.3 -9.94,-0.38 -11.29,6.85 -19.9,9.59 -3.05,9.97 -11.49,12.73 -13.95,23.05 1.54,3.13 6.86,1.29 5.91,5.7 -6.88,0.2 -15.68,-3.86 -15.85,-11.42 2.66,-21.39 18.54,-37.63 19.88,-59.39 -10.72,-7.74 -12.44,-22.49 -11.86,-36.32 6.89,-3.48 5.37,-10.34 7.83,-15.32 l -3.83,-3.85 c -4,5.73 -6.69,-2.96 -12.02,0 -0.38,-1.45 -1.09,-2.71 -2,-3.9 -2.2,-2.76 -5.55,-5.02 -7.97,-7.73 -7.82,-2.4 -16.62,-2.95 -23.69,-7.57 -9.01,-0.72 -3.84,-10.69 -11.88,-13.44 -1.14,1.1 -2.67,2.01 -2.09,3.86 -12.8,-3.32 -7.66,-17.15 -13.78,-24.92 1.36,-5.43 1.59,-10.5 0.43,-15.32 -0.79,-3.29 -2.27,-6.47 -4.44,-9.56 -12.62,-13.65 -26.59,9.96 -41.69,1.84 5.55,-0.37 10.13,-2.97 13.76,-7.55 -1.15,-1.85 -4.59,-2.96 -3.84,-5.74 l 1.93,-2.01 -1.93,-1.86 1.93,-1.86 c -1.17,-1.09 -2.69,-2 -1.93,-3.87 7.46,-5.89 17.62,-14.02 29.65,-13.46 9.19,-3.32 21.61,7.37 29.85,-3.87 -4.2,-0.18 -8.6,-6.28 -4.03,-9.4 2.87,0.36 5.93,-4.61 8.06,0 2.46,-1.3 1.89,-3.69 1.89,-5.91 6.52,-3.5 13.59,7.38 15.89,-1.85 h 4.01 c -0.57,1.85 0.96,2.77 1.91,3.89 l 2.11,-2.04 1.92,2.04 c 5.35,-5.17 8.78,5.34 15.88,1.84 5.35,3.32 8.6,10.7 9.94,17.33 -2.1,0 -4.59,-0.56 -5.94,1.85 l 8.04,7.76 c 2.48,-1.31 1.92,-3.7 1.92,-5.92 9.56,4.81 15.29,14.59 19.9,23.08 -10.34,1.65 -19.71,6.08 -25.82,15.27 6.3,15.51 -20.27,15.14 -8.03,30.64 l -3.94,3.91 c -0.45,-3.58 -1.63,-6.81 -3.92,-9.64 -10.31,6.47 -28.3,-6.46 -25.79,13.48 2.66,2.2 2.49,5.53 5.92,7.56 4.97,2.2 6.71,-3.87 9.93,-5.72 v -1.85 h 7.86 c 4.19,7.02 -8.81,15.31 4,17.14 0,2.21 0.59,4.63 -1.93,5.73 1.01,2.67 2.71,3.62 4.7,3.86 1.44,0.23 3.02,0.1 4.58,0 h 2.53 c 1.58,0.14 3,0.59 4.07,1.86 1.17,-0.67 2.21,-1.28 3.14,-1.86"
   clip-path="url(#SVGID_2_)"
   id="path290"
   style="fill:#ffffff" />
		<path
   class="st1"
   d="m 2577.4,2459.6 c 1.51,-0.25 3.65,-0.42 6.81,-0.42 2.94,0 5.05,0.49 6.46,1.59 1.42,1 2.32,2.82 2.32,4.88 0,2.02 -0.67,3.83 -1.94,4.97 -1.7,1.45 -4.09,2.08 -6.84,2.08 -0.55,0 -1.02,-0.03 -1.36,-0.05 v 6.85 h -5.45 m 5.44,-10.98 c 0.31,0.02 0.66,0.06 1.25,0.06 2.17,0 3.5,-1.09 3.5,-2.82 0,-1.49 -1.03,-2.51 -3.11,-2.51 -0.83,0 -1.37,0.07 -1.65,0.11 v 5.16 z"
   clip-path="url(#SVGID_2_)"
   id="path292"
   style="fill:#ffffff" />
		<path
   class="st1"
   d="m 2586.31,2502.85 -1.16,4.68 h -5.69 l 5.95,-20.19 h 7.3 l 6.13,20.19 h -5.93 l -1.32,-4.68 m -0.74,-4.01 -0.94,-3.62 c -0.31,-1.14 -0.69,-2.79 -1,-3.99 h -0.06 c -0.3,1.2 -0.63,2.86 -0.92,4.02 l -0.88,3.59 z"
   clip-path="url(#SVGID_2_)"
   id="path294"
   style="fill:#ffffff" />
		<polyline
   class="st1"
   points="2581.89,2516.15 2581.89,2523.61 2588.55,2523.61 2588.55,2516.15 2594.03,2516.15 2594.03,2536.33    2588.55,2536.33 2588.55,2528.34 2581.89,2528.34 2581.89,2536.33 2576.37,2536.33 2576.37,2516.15   "
   clip-path="url(#SVGID_2_)"
   id="polyline296"
   style="fill:#ffffff" />
		<path
   class="st1"
   d="m 2589.15,2554.63 c 0,6.5 -3.94,10.63 -10.28,10.63 -6.35,0 -9.88,-4.68 -9.88,-10.31 0,-5.86 3.95,-10.53 10.21,-10.53 6.61,-0.01 9.95,4.82 9.95,10.21 m -14.32,0.23 c 0,3.78 1.68,6.1 4.34,6.1 2.62,0 4.18,-2.54 4.18,-6.15 0,-3.47 -1.59,-6.13 -4.23,-6.13 -2.61,0 -4.29,2.47 -4.29,6.18"
   clip-path="url(#SVGID_2_)"
   id="path298"
   style="fill:#ffffff" />
		<path
   class="st1"
   d="m 2242.61,2479.96 c 0,6.5 -3.96,10.63 -10.28,10.63 -6.36,0 -9.86,-4.7 -9.86,-10.3 0,-5.87 3.94,-10.54 10.19,-10.54 6.62,0 9.95,4.82 9.95,10.21 m -14.35,0.23 c 0,3.77 1.69,6.1 4.34,6.1 2.64,0 4.21,-2.54 4.21,-6.15 0,-3.47 -1.59,-6.11 -4.25,-6.11 -2.61,0 -4.3,2.46 -4.3,6.16"
   clip-path="url(#SVGID_2_)"
   id="path300"
   style="fill:#ffffff" />
		<path
   class="st1"
   d="m 2222.48,2502.57 c 1.47,-0.26 3.64,-0.42 6.78,-0.42 2.96,0 5.04,0.49 6.47,1.58 1.41,1.01 2.34,2.82 2.34,4.87 0,2.04 -0.68,3.84 -1.97,4.99 -1.68,1.45 -4.07,2.07 -6.84,2.07 -0.53,0 -1.02,-0.02 -1.34,-0.04 v 6.86 h -5.44 m 5.44,-10.99 c 0.3,0.02 0.64,0.06 1.24,0.06 2.15,0 3.5,-1.09 3.5,-2.82 0,-1.5 -1.02,-2.52 -3.1,-2.52 -0.83,0 -1.4,0.07 -1.65,0.12 v 5.16 z"
   clip-path="url(#SVGID_2_)"
   id="path302"
   style="fill:#ffffff" />
		<path
   class="st1"
   d="m 2231.3,2545.4 c 1.24,0.62 3.29,1.28 5.34,1.28 1.89,0 2.79,-0.67 2.79,-1.68 0,-0.98 -0.9,-1.54 -3.2,-2.33 -3.49,-1.19 -5.78,-3.08 -5.78,-6.08 0,-3.55 3.04,-6.31 8.21,-6.31 2.47,0 4.22,0.45 5.58,1.05 l -1.15,4.32 c -0.89,-0.39 -2.39,-0.96 -4.48,-0.96 -1.67,0 -2.58,0.6 -2.58,1.5 0,1.01 1.08,1.44 3.68,2.4 3.68,1.31 5.35,3.25 5.35,6.07 0,3.46 -2.77,6.47 -8.76,6.47 -2.47,0 -4.87,-0.66 -6.03,-1.27"
   clip-path="url(#SVGID_2_)"
   id="path304"
   style="fill:#ffffff" />
		<path
   class="st1"
   d="m 429.75,2712.23 c -157.96,0 -250.54,-71.11 -250.54,-208.7 0,-135.27 92.58,-208.67 250.54,-208.67 157.96,0 252.47,73.4 252.47,208.67 0.01,137.59 -94.51,208.7 -252.47,208.7 m 0,-97.13 c 68.62,0 70.56,-68.21 71.21,-111.58 -0.65,-37.56 -5.18,-111.56 -71.21,-111.56 -64.08,0 -69.27,74 -69.27,111.56 0,43.37 7.12,111.58 69.27,111.58"
   clip-path="url(#SVGID_2_)"
   id="path306"
   style="fill:#ffffff" />
		<path
   class="st1"
   d="m 726.93,2301.77 h 298.44 c 70.56,0 165.74,30.07 165.74,138.75 0,105.21 -75.74,148.58 -166.38,148.58 h -124.3 v 116.18 h -173.5 z m 168.97,193.67 h 38.19 c 41.43,0 83.51,-6.94 83.51,-52.03 0,-42.79 -42.08,-47.98 -84.16,-47.98 H 895.9 Z"
   clip-path="url(#SVGID_2_)"
   id="path308"
   style="fill:#ffffff" />
		<path
   class="st1"
   d="m 1310.91,2301.78 h 238.88 l 161.2,403.5 h -181.91 l -29.79,-87.29 h -146.31 l -27.83,87.29 H 1152.3 Z m 66.03,219.09 h 100.34 l -49.2,-132.38 h -1.3 z"
   clip-path="url(#SVGID_2_)"
   id="path310"
   style="fill:#ffffff" />
		<path
   class="st1"
   d="m 2099.45,2412.19 c -38.85,-12.14 -84.8,-20.23 -134,-20.23 -27.2,0 -74.45,0.6 -74.45,26.6 0,52.59 237.59,2.89 237.59,158.39 0,108.1 -119.77,135.27 -220.11,135.27 -66.68,0 -121.71,-5.79 -186.45,-19.08 v -104.63 c 46.61,17.35 103.59,26.58 155.38,26.58 40.78,0 77.68,-7.51 77.68,-27.76 0,-54.34 -237.59,-5.2 -237.59,-161.86 0,-110.99 129.49,-130.65 232.42,-130.65 48.54,0 102.28,5.2 149.54,13.87 v 103.5 z"
   clip-path="url(#SVGID_2_)"
   id="path312"
   style="fill:#ffffff" />
	</g>
</g>
</svg>
