<?xml version="1.0" encoding="utf-8"?>
<!-- Generator: Adobe Illustrator 24.1.2, SVG Export Plug-In . SVG Version: 6.00 Build 0)  -->
<svg version="1.1" id="Camada_1" xmlns="http://www.w3.org/2000/svg" xmlns:xlink="http://www.w3.org/1999/xlink" x="0px" y="0px"
	 viewBox="0 0 792 612" style="enable-background:new 0 0 792 612;" xml:space="preserve">
<style type="text/css">
	.st0{fill:#009ADE;}
</style>
<g>
	<path class="st0" d="M101.25,366.24h-3.12l-0.69,2.49H95.2l3.3-11.15h2.56l3.19,11.15h-2.39 M99.77,359.72h-0.03l-1.18,4.63h2.24
		L99.77,359.72z"/>
	<path class="st0" d="M113.19,363.6c0-0.96-0.36-1.31-0.86-1.31c-0.67,0-0.93,0.54-0.93,1.17v5.27h-2.25v-5.13
		c0-1.05-0.41-1.31-0.78-1.31c-0.74,0-1,0.72-1,1.77v4.66h-2.25v-6.58c0-0.8-0.01-1.31-0.06-1.74h2.05
		c0.03,0.37,0.06,0.83,0.06,1.39h0.03c0.34-0.91,0.91-1.52,2.09-1.52c1.07,0,1.61,0.56,1.92,1.39c0.33-0.78,0.85-1.39,2.04-1.39
		c1.64,0,2.18,1.34,2.18,3v5.44h-2.25"/>
	<path class="st0" d="M123.33,365.23h-4.37c0,0.99,0.57,1.9,1.84,1.9c0.77,0,1.54-0.32,2.09-0.66l0.04,1.9
		c-0.73,0.3-1.58,0.48-2.35,0.48c-2.61,0-3.76-1.77-3.76-4.31c0-2.23,1.16-4.26,3.29-4.26c0.67,0,3.22,0,3.22,4.34 M121.28,363.86
		c0-1.05-0.24-2.04-1.17-2.04c-1.15,0-1.15,1.6-1.15,2.04H121.28z"/>
	<path class="st0" d="M124.65,362.15c0-0.8-0.02-1.31-0.06-1.74h2.05c0.01,0.5,0.05,1,0.06,1.5h0.03c0.46-0.89,0.77-1.63,2.07-1.63
		h0.33v2.33c-0.24-0.07-0.44-0.09-0.75-0.09c-1.31,0-1.47,1.28-1.47,2.49v3.72h-2.25"/>
	<path class="st0" d="M130.26,356.75h2.25v2.24h-2.25 M130.26,360.41h2.25v8.31h-2.25V360.41z"/>
	<path class="st0" d="M139.39,368.51c-0.66,0.19-1.32,0.35-2.04,0.35c-2.86,0-3.5-2.68-3.5-4.2c0-2.55,1.31-4.37,3.67-4.37
		c0.74,0,1.14,0.21,1.8,0.4l-0.11,1.9c-0.41-0.17-0.84-0.35-1.31-0.35c-1.71,0-1.71,2.11-1.71,2.43c0,1.75,0.97,2.32,1.82,2.32
		c0.47,0,0.89-0.19,1.31-0.37"/>
	<path class="st0" d="M140.99,360.81c0.59-0.21,1.58-0.53,2.39-0.53c2.61,0,3.2,1.21,3.2,3.07v3.03c0,1.23,0.01,1.79,0.06,2.35
		h-2.05l-0.06-1.15h-0.03c-0.1,0.51-0.97,1.28-2.04,1.28c-1.38,0-2.29-1.01-2.29-2.52c0-2.78,2.89-2.79,3.67-2.79h0.68
		c0-1.6-1.05-1.6-1.38-1.6c-0.57,0-1.18,0.14-2.06,0.73 M144.53,364.72c-0.9,0-2.31,0.06-2.31,1.45c0,1.09,0.79,1.09,0.97,1.09
		c0.2,0,1.34-0.03,1.34-2.06V364.72z"/>
	<path class="st0" d="M152.53,362.5c-0.6-0.27-1.15-0.45-1.81-0.45c-0.59,0-0.84,0.32-0.84,0.61c0,0.51,0.33,0.69,1.55,1.2
		c0.77,0.32,1.55,0.86,1.55,2.43c0,1.85-1.24,2.57-2.73,2.57c-0.66,0-1.65-0.08-2.44-0.4l0.06-1.95c0.54,0.36,1.23,0.58,1.85,0.58
		c1.05,0,1.12-0.42,1.12-0.78c0-0.37-0.58-0.53-1.55-0.98c-0.78-0.37-1.55-1.07-1.55-2.55c0-0.9,0.57-2.49,2.78-2.49
		c0.93,0,1.7,0.19,2.06,0.34"/>
	<line class="st0" x1="200.44" y1="353.05" x2="80.65" y2="353.05"/>
	<rect x="80.65" y="352.53" class="st0" width="119.79" height="1.05"/>
	<path class="st0" d="M64.95,316.52c1.09,1.25,2.99,1.98,4.11,3.23c-0.8-3.7-3.77-6.72-7.27-7.43
		C63.48,313.55,63.86,315.27,64.95,316.52 M22.76,325.88c2.41-5.06,6.02-3.99,7.55-8.8c-0.86,1.48-4.8,2.1-6.63,5.89
		c0.93-2.25,0.47-5.69,2.05-7.55C21,318.77,23.02,324.18,22.76,325.88 M27.14,338.01c0.43,1.97-0.84,4.81,1.18,7.52
		c-2.1-2.26-6.54-2.83-8.35-6.27c2.27,8.4,8.17,6.67,10.83,8.49C28.61,344.74,30.4,342.72,27.14,338.01 M26.46,343.28
		c-1.31-4.69,1.01-6.31-0.75-10.82c-0.18,2.54-1.94,3.77-0.76,8.41c-2.1-3.93-5.34-5.39-6.28-8.09
		C18.74,340.16,24.9,341.25,26.46,343.28 M35.92,351.15c-1.81-2.41-0.57-3.78-5.67-8.16c1.08,1.6-0.03,3.61,3.4,6.74
		c-3.36-1.91-8-1.09-10.24-3.64C27.26,353.16,34.01,350.28,35.92,351.15 M60.58,349.74c3.44-3.13,2.32-5.14,3.4-6.74
		c-5.09,4.38-3.86,5.74-5.67,8.16c1.91-0.88,8.67,2.01,12.51-5.06C68.58,348.65,63.94,347.83,60.58,349.74 M65.91,345.53
		c2.02-2.71,0.75-5.55,1.18-7.52c-3.26,4.71-1.47,6.73-3.66,9.75c2.67-1.82,8.56-0.09,10.83-8.49
		C72.45,342.7,68.01,343.28,65.91,345.53 M57.77,351.49c-1.99-0.51-4.05-0.77-5.57-0.8c-1.91-0.05-3.61,0.3-5.08,0.83
		c-1.48-0.53-3.18-0.88-5.08-0.83c-1.52,0.03-3.58,0.29-5.57,0.8c-3.06,0.78-5.72,1.39-8.02,0.27c2.21,1.89,4.8,2.56,8.53,2.17
		c3.11-0.32,5.61-1.81,8.54-1.79c0.04,0,0.08,0,0.11,0c-3.09,1.5-6.77,3.61-6.77,3.61l1.41,0.19c0,0,3.43-2.87,6.85-3.62
		c3.42,0.75,2.96,3.62,2.96,3.62l1.41-0.19c0,0,0.2-2.11-2.88-3.61c0.04,0,0.08,0,0.11,0c2.93-0.01,5.44,1.48,8.54,1.79
		c3.73,0.39,6.32-0.29,8.53-2.17C63.48,352.88,60.84,352.27,57.77,351.49 M25.92,327.37c-1.27,2.33-3.23,2.87-3.02,7.68
		c-1.06-4.28-3.59-5.87-3.56-8.59c-1.76,7.12,2.94,7.97,4.15,10.96C23.31,333.14,26.16,332.27,25.92,327.37 M27.69,321.87
		c-0.44,0.59-0.75,0.84-1.92,1.78c-1.6,1.26-2.88,2.93-3.42,5.36c0.12-2.61-1.56-6.37-0.44-9.11c-4.33,5.87,0.25,9.39,0.41,11.51
		C23.43,327.32,26.01,327.28,27.69,321.87 M71.89,329c-0.54-2.43-1.82-4.09-3.42-5.36c-1.17-0.93-1.48-1.18-1.92-1.78
		c1.67,5.41,4.25,5.45,5.37,9.54c0.16-2.12,4.74-5.64,0.41-11.51C73.45,322.64,71.77,326.39,71.89,329 M75.56,332.79
		c-0.94,2.7-4.19,4.16-6.28,8.09c1.19-4.64-0.57-5.88-0.76-8.41c-1.76,4.5,0.56,6.12-0.75,10.82
		C69.34,341.25,75.5,340.16,75.56,332.79 M68.32,327.37c-0.24,4.9,2.6,5.76,2.43,10.04c1.21-2.99,5.91-3.83,4.15-10.96
		c0.04,2.72-2.5,4.32-3.56,8.59C71.55,330.24,69.58,329.71,68.32,327.37 M29.29,316.52c1.09-1.25,1.46-2.96,3.17-4.2
		c-3.51,0.71-6.48,3.74-7.27,7.43C26.3,318.5,28.2,317.76,29.29,316.52 M63.92,317.08c1.53,4.82,5.14,3.75,7.55,8.8
		c-0.25-1.7,1.76-7.12-2.96-10.47c1.58,1.86,1.11,5.3,2.05,7.55C68.73,319.18,64.78,318.56,63.92,317.08 M51.67,319.82
		c-0.91-0.36-1.87-0.62-2.88-0.75c0,0.2,0,0.41-0.01,0.62c0.92,0.13,1.81,0.37,2.65,0.7C51.55,320.22,51.63,320.03,51.67,319.82
		 M50.94,313.85l0.19-0.16l-0.36-0.15l-0.97-0.02l-0.25,0.17l-0.57-0.05l-0.01,0.13c0.36,0.03,0.71,0.05,1,0.1l0.47-0.04
		L50.94,313.85z M49.08,333.85c0-0.16-0.22-0.31-0.54-0.46h-0.06c0,0.12-0.01,0.76-0.02,1.06
		C48.86,334.28,49.08,334.09,49.08,333.85 M37.9,322.07c0.02-0.13,0.05-0.23,0.08-0.34c-0.12,0.03-0.26,0.04-0.39,0.04L37.9,322.07z
		 M47.14,349.34c10.85,0,19.68-8.48,19.68-18.91c0-9.78-7.77-17.85-17.68-18.81c-0.01,0.03-0.02,0.07-0.03,0.11
		c-0.04,0.18-0.07,0.35-0.1,0.5c4.44,0.42,8.44,2.31,11.46,5.15l-2.17,2.09l0.08-0.37l-0.28-0.12l-0.39-0.02l0.08-0.24l-0.26-0.85
		l-0.54-0.57l-1.7-0.86l-0.15,0.15l-0.31,0.08c0.58,0.82,0.9,1.78,0.9,2.74c0,0.12,0,0.25-0.01,0.37l0.84,1.02l-0.39,0.09l0.26,0.38
		l-0.74,0.71l-0.3-0.54c-0.14,0.38-0.33,0.73-0.56,1.06c0.05,0.05,0.11,0.1,0.17,0.15l-2.29,2.19c-0.14-0.12-0.28-0.24-0.43-0.36
		c-0.22,0.1-0.44,0.19-0.67,0.27c0.07,0.05,0.13,0.09,0.19,0.15l-0.11,0.11l-0.27,0.15l-0.1,0.26l-0.17-0.16l-0.49,0.15l0.14,0.2
		l0.33-0.09l0.22,0.01l0.02-0.11l0.17-0.08l0.05-0.09l0.3-0.08l0.24-0.01c0.04,0.04,0.09,0.08,0.13,0.11l-0.91,0.88l-0.07-0.09
		l-0.95,0.15l-0.21,0.2l-0.21,0.02l0.59-0.54l-0.21-0.1l-0.55,0.7l0.16-0.01l-0.01,0.26l0.2,0.07l0.04,0.28l-0.33-0.07l-0.35,0.07
		l-0.83-0.42c0,0-0.05,2.15-0.07,3.23c1.96,0.63,4.05,1.55,4.05,3.96c0,1.06-0.48,1.91-1.41,2.55h0.01
		c-0.02,0.01-0.03,0.02-0.05,0.03l0,0c-0.02,0.01-0.04,0.03-0.07,0.04c-0.79,0.51-1.81,0.78-2.7,1.04c-0.01,0-0.03,1.69-0.03,1.69
		c1.41,0.67,3.12,1.65,2.96,4.45c-0.02,0.69-0.3,0.88-0.54,0.94c-0.82,0.19-1.67,0.33-2.54,0.39c-0.01,0.22-0.01,0.43-0.01,0.62
		c3.79-0.25,7.22-1.79,9.81-4.17l2.29,2.2c-3.42,3.17-8.07,5.11-13.19,5.11c-5.09,0-9.71-1.93-13.14-5.06l2.29-2.2
		c2.56,2.33,5.94,3.84,9.67,4.11c0-0.19-0.01-0.39-0.01-0.62c-3.55-0.27-6.76-1.71-9.21-3.93l0.61-0.59l0.84,0.09l0.45-0.46
		l1.17,0.04l0.17-0.39l-0.04-0.17c1.69,1.23,3.74,2.05,5.96,2.27c0-0.24-0.01-0.45-0.01-0.62c-2.45-0.26-4.67-1.28-6.4-2.81
		l2.29-2.2c0.56,0.47,1.18,0.88,1.86,1.2c0.05-0.21,0.13-0.4,0.23-0.58c-0.59-0.28-1.14-0.63-1.63-1.05l2.29-2.2
		c0.36,0.28,0.77,0.5,1.22,0.66c-0.01-0.22-0.01-0.45-0.01-0.66c-0.27-0.11-0.53-0.26-0.76-0.43l0.65-0.62
		c-0.23-0.07-0.46-0.13-0.69-0.21l-0.43,0.41c-0.22-0.23-0.4-0.5-0.55-0.78c-0.39-0.17-0.78-0.36-1.13-0.58
		c-1.41-0.89-2.12-2.15-2.12-3.73c0-1.21,0.35-2.13,0.92-2.84l-2.28-2.19c1.64-1.51,3.76-2.55,6.11-2.89c0-0.22-0.01-0.42-0.01-0.62
		c-2.52,0.35-4.79,1.46-6.54,3.07l-0.38-0.37c-0.09,0.15-0.19,0.34-0.31,0.57l0.24,0.24c-1.96,2.01-3.18,4.69-3.24,7.65h-3.24
		c0.05-3.82,1.63-7.28,4.18-9.85l1.03,0.99c0.05,0,0.09,0,0.14,0c0.18-0.01,0.39-0.07,0.58-0.16l-1.31-1.26
		c0.69-0.64,1.44-1.22,2.25-1.73c0.07-0.21,0.12-0.39,0.16-0.46c0.04-0.08,0.24-0.34,0.49-0.64c-1.23,0.65-2.35,1.46-3.36,2.39
		l-2.29-2.2c3-2.81,6.95-4.67,11.34-5.1c-0.02-0.08-0.03-0.13-0.03-0.13c-0.03-0.14-0.07-0.3-0.1-0.47
		c-9.89,0.99-17.63,9.05-17.63,18.81C27.46,340.85,36.29,349.34,47.14,349.34 M51.39,336.27l0-0.01L51.39,336.27
		C51.39,336.27,51.39,336.27,51.39,336.27 M60.92,317.8c3.22,3.25,5.21,7.62,5.26,12.43h-3.24c-0.03-2.38-0.63-4.64-1.69-6.64
		l0.03-0.06l0.22,0.11l0.05-0.16l-0.58-0.97l-0.68-0.91l-0.8-0.65c-0.27-0.33-0.57-0.65-0.87-0.96L60.92,317.8z M56.8,321.79
		l0.78,0.03l0.18,0.22l-0.09,0.31l1.08,0.65l0.21-0.03l1.38,1.52l0.57-0.19c0.88,1.81,1.38,3.82,1.4,5.93h-3.24
		c-0.01-0.81-0.12-1.6-0.3-2.37l0.15-0.19l0.2-0.97l-0.15-1.05l-0.39-1.2l-0.9-1.27l0.22,0.11l0.11-0.11l-0.72-0.47l-0.05,0.16
		l0.72,0.99l0.41,0.82l0.29,0.81l0.09,0.54l0.15,0.92l-0.27,0.02c0,0-0.31-0.56-0.41-0.79l0.15-0.21l-0.28-0.38v-0.38l-0.2-0.24
		L57.65,325c-0.09-0.15-0.18-0.31-0.27-0.46l0.17,0.09l0.05-0.04l-0.09-0.2l0.21-0.12l-0.1-0.11l-0.31,0.11l0.11-0.47l-0.18-0.11
		l-0.17,0.38c-0.35-0.51-0.74-0.99-1.18-1.44L56.8,321.79z M56.15,329.07l0.58-0.31l0.59-0.09l0.13-0.28l0.33-0.19l0.13-0.26
		l0.1-0.46c0.05,0.16,0.09,0.32,0.13,0.49l-0.31,0.9l-0.01,0.31l0.46-0.59c0.09,0.53,0.15,1.08,0.16,1.63H55.6l-0.07-0.24l0.33-0.25
		l0.06-0.15l0.15-0.1l0.38-0.04l0.04-0.17L56.15,329.07z M52.26,326.93l0.29-0.06l-0.01-0.06l-0.29-0.19l0.1-0.59l0.35-0.33
		c0.22,0.23,0.42,0.49,0.6,0.75l-0.12,0.36l-0.32-0.22l-0.24,0.06l0.12,0.21h0.12l-0.13,0.32l-0.09-0.13L52.26,326.93z M53.5,337.26
		l-0.7-0.19l-0.21,0.08l-0.39-0.29l-0.37-0.13c0.18-0.13,0.36-0.26,0.53-0.4l0.57,0.39l0.44,0.22l0.22,0.21L53.5,337.26z
		 M53.15,325.27l2.29-2.2c0.54,0.56,1.01,1.17,1.42,1.83l-0.29,0.08l0.01,0.49l0.86,0.52c0.21,0.45,0.39,0.91,0.53,1.39l-0.15,0.21
		l-0.31,0.19l-0.08,0.46l-0.21,0.11l-0.18,0.2l-0.18-0.06l-0.32-0.01l0.18-0.24l0.13-0.62l0.21-0.12l-0.62-0.57L56,327.06l-0.1,0.42
		l-0.29,0.3l-0.3-0.24l-0.1-0.26l0.17-0.1l0.09,0.17l0.14-0.05l-0.06-0.28l-0.2-0.01l-0.01,0.11l-0.13,0.03l-0.71-0.8l-0.24-0.18
		l0.09-0.09l0.22-0.08l-0.2-0.07c0,0-0.25,0.05-0.28,0.05l0.14,0.17l-0.36-0.01C53.65,325.84,53.41,325.54,53.15,325.27
		 M54.32,336.97l-0.31-0.3l0.24-0.3l0.3-0.58l-0.12-0.17l0.2-0.43l-0.02-0.39l-0.12-0.41l-0.28-0.1l-0.11,0.23l-0.17-0.05
		c0.24-0.37,0.5-0.72,0.68-1.14l0.29-0.12l0.16-0.21l0.08,0.09l0.2-0.23l-0.16-0.19l0.14-0.04l0.27,0.1l0.5,0.01l0.3-0.15l0.79-0.2
		l-0.15-0.25l-0.05-0.31l0.43,0.18l0.16-0.09l-0.08-0.32l-0.52,0.19l-0.57-0.11l-0.43-0.85h2.47c-0.11,2.73-1.28,5.21-3.12,7.07
		l-0.34-0.32l0.15-0.44l-0.26-0.96L54.32,336.97z M54.75,343.03l0.3-0.63l-0.12-0.28l0.45-0.37v-0.23L55,341.29l0.31-0.6l0.48-0.6
		l-0.48-0.49h-0.35l-0.22-0.34c0.19-0.15,0.37-0.31,0.55-0.47l2.29,2.2C56.73,341.77,55.78,342.46,54.75,343.03 M57.6,340.13
		l0.25-0.27l-0.24-1.2l-0.16-0.06l0.1-0.2l-0.54-0.16l-0.11,0.43l-0.05,0.55l-0.12,0.1l-0.99-0.95c1.96-1.96,3.2-4.59,3.31-7.5h3.24
		c-0.11,3.76-1.72,7.17-4.26,9.7L57.6,340.13z M58.49,340.98c2.66-2.64,4.34-6.2,4.45-10.13h3.24c-0.11,4.79-2.15,9.13-5.39,12.33
		L58.49,340.98z M39.03,337.97c-0.24-0.24-0.46-0.48-0.67-0.73l0.1-0.79l-0.34-0.76l-0.08-1.18l-0.39-0.71l0.08-0.45l-0.46-0.85
		l-0.4-0.19l0.16-0.45l-0.17-0.36l0.17-0.41h0.44l0.16-0.25h0.76l0.12,0.21l-0.14,0.74l-0.09,0.12l0.28,0.6l-0.19,0.09l-0.13-0.16
		l-0.05,0.06l0.13,0.35l0.22,0.41l0.11-0.01l0.06-0.37l-0.11-0.13l-0.01-0.25L38.54,332l0.16-0.91l-0.15-0.24h0.54
		c0.11,1.9,0.93,3.63,2.23,4.93L39.03,337.97z M36.89,331.9l-0.3,0.46h-0.53l-0.04-0.03c-0.09-0.49-0.15-0.98-0.16-1.48h0.97
		l-0.24,0.75L36.89,331.9z M37.95,329.76l0.06-0.62l0.38-0.22l0.69,0.11l0.11,0.12c-0.06,0.35-0.1,0.71-0.11,1.07H38.3L37.95,329.76
		z M41.24,332.08L41.4,332l0.42,0.31l-0.18,0.14l0.47,0.31l-0.03-0.32l0.25-0.41l0.27,0.27l0.27,0.38l-0.49,0.1l0.22,0.43l0.34-0.17
		l-0.04-0.14l0.25-0.17l0.15-0.67c0.19,0.4,0.44,0.77,0.74,1.09l-2.29,2.2c-1.09-1.1-1.82-2.54-2-4.13l0.47,0.48l0.44-0.01
		L41.24,332.08z M38.89,323.01l2.29,2.2c-0.48,0.51-0.89,1.07-1.21,1.68l-0.16-0.01l-0.32,0.1l-0.11-0.01l-0.34,0.3l0.43-0.07
		l0.39-0.09c-0.03,0.05-0.05,0.09-0.07,0.14l-0.34,0.2h-0.16l-0.51,0.36l-0.48-0.04l-0.7,1.26l0.14,0.25l-0.38,0.4l-0.06,0.53h-1.44
		C35.9,327.45,37.05,324.91,38.89,323.01 M35.94,339.59l0.73,0.41l0.15,0.1l-0.53,0.51c-0.25-0.25-0.48-0.5-0.71-0.76L35.94,339.59z
		 M35.22,330.85c0.01,0.3,0.04,0.6,0.07,0.9l-0.39,0.08l-0.08,0.39l-0.83,1.01l0.02,1.38l-0.85,0.27l-0.46,0
		c-0.43-1.28-0.68-2.63-0.72-4.03H35.22z M32.02,334.87l-0.19-0.04l-0.18-0.19l-0.91-0.08l0.28,0.37l-0.84-0.15l0.22-0.19l-0.21-0.2
		l-0.61,0.25l-0.22,0.39l0.09,0.88l0.7,1.61l0.34,0.5l0.19,0.07l-0.53-0.96l-0.12-0.49l0.12-0.12l-0.07-0.27l0.32,0.04l0.49,0.71
		l0.12,0.05L31,336.53l0.2,0.11l0.04,0.28l0.51,0.13l0.22-0.15l0.07,0.05l-0.01,0.38l0.23,0.27l0.28,0.06l0.6,0.98l0.36,0.1
		l0.11-0.45c0.63,1,1.38,1.93,2.23,2.76l-2.29,2.2c-3.28-3.21-5.34-7.57-5.45-12.39h3.24C31.38,332.24,31.61,333.59,32.02,334.87
		 M33.41,317.75l2.29,2.19c-2.66,2.69-4.32,6.31-4.37,10.29H28.1C28.15,325.4,30.17,321,33.41,317.75 M56.83,316.62l-0.2-0.3
		l-0.42-0.2l-0.33,0.24l0.42,0.21l0.47,0.33L56.83,316.62z M54.87,325.39l0.01,0.24l0.56-0.16l0.17-0.33l-0.39-0.49l0.2-0.3
		l0.52,0.36l0.1-0.07l-0.1-0.07l-0.12-0.21l0.22-0.12l-0.21-0.27l-0.49,0.24l-0.17,0.29l-0.1,0.26l0.22,0.35l-0.08,0.16
		L54.87,325.39z M31.48,339.33l0.04-0.14l-0.29-0.61l-0.35-0.12L31.48,339.33z M44.71,327.65c0,0.52,0.33,0.89,0.93,1.2
		c0,0,0-0.09-0.01-0.23l-0.38-0.36l0.2-0.35l0.16-0.04c-0.01-0.61-0.03-1.29-0.03-1.39l-0.03,0
		C45.01,326.78,44.71,327.14,44.71,327.65"/>
	<path class="st0" d="M48.32,341.12c1.01,0.49,1.95,1.17,2.34,2.47c0.17-2.14-1.08-3.07-2.32-3.7
		C48.35,339.89,48.32,341.12,48.32,341.12"/>
	<path class="st0" d="M55.06,319.4c0-1.95-1.47-4.1-5.06-4.87c-0.26-0.06-0.67-0.1-1.1-0.12c-0.01,0.29-0.03,0.96-0.03,0.96
		c-0.01,0.21-0.02,0.99-0.03,1.16c0.33,0.03,0.58,0.07,0.69,0.09c2.09,0.48,2.84,1.63,2.84,2.77c0,1.84-1.64,2.54-3.66,3.07
		c-0.22,0.05-0.44,0.11-0.67,0.17c-0.61,0.15-1.24,0.29-1.86,0.45c-0.22,0.05-0.45,0.12-0.66,0.19c-2.24,0.66-4.16,1.69-4.16,4.35
		c0,2.63,2.2,3.61,4.34,4.25c-0.01-0.76-0.03-1.52-0.05-2.28c-0.94-0.43-1.61-0.99-1.61-1.93c0-0.92,0.61-1.48,1.54-1.88
		c0.2-0.09,0.43-0.17,0.66-0.25c0.53-0.17,1.13-0.32,1.76-0.47c0.22-0.05,0.45-0.1,0.67-0.16C51.68,324.19,55.06,323.29,55.06,319.4
		"/>
	<path class="st0" d="M44.23,337.96c0.01,1.07,0.82,1.65,1.63,2.08c0-0.18-0.03-1.82-0.03-1.85c0.02-0.33,0.35-0.53,0.61-0.65
		c0.39-0.18,0.79-0.31,1.29-0.48c0.24-0.08,0.45-0.16,0.68-0.23c1.64-0.47,3.53-1.08,3.53-2.99c0-1.92-1.62-2.7-3.4-3.29
		c-0.01,0.61-0.03,1.5-0.04,2.12c0.75,0.28,1.25,0.63,1.25,1.17c0,0.68-0.76,1.08-1.3,1.28c-0.22,0.09-0.57,0.19-0.66,0.22
		c-0.44,0.13-0.9,0.28-1.34,0.44c-0.23,0.08-0.45,0.17-0.66,0.27C45.01,336.44,44.22,336.99,44.23,337.96"/>
	<path class="st0" d="M45.33,314.72c-1.09,0.3-1.73,0.69-1.97,0.77c-0.71,0.22-1.7,0.27-2.73,1.34c-0.18,0.19-0.63,0.73-0.94,1.17
		c-0.31,0.43-0.32,1.12-0.55,1.49c-0.33,0.54-0.25,0.84-0.25,0.84l0.01,0.02c-0.01,0.07-0.08,0.35-0.38,0.67
		c-0.34,0.37-0.79,0.57-1.33,0.49c0.47,0.23,1.11-0.09,1.11-0.09s-0.12,0.34-0.25,0.9c0.53-1.14,1.01-1.56,1.16-1.68
		c0.22,0.05,0.69,0.03,1.56-0.45c0.98-0.54,2.46-1.43,2.87-1.98c0.45-0.6,1.07-1,1.74-1.26C45.37,316.1,45.35,315.35,45.33,314.72
		 M41.19,318.28l-0.51,0.11l0.61-0.96l0.71,0.02L41.19,318.28z"/>
	<path class="st0" d="M47.36,337.83c-0.09,0.03-0.34,0.13-0.49,0.19c-0.16,0.05-0.37,0.13-0.37,0.19c0,0.01,0.16,8.25,0.16,8.43
		c0,1.69,0.9,1.7,0.9,0c0-0.12,0.18-8.92,0.18-8.92S47.51,337.77,47.36,337.83"/>
	<path class="st0" d="M46.43,335.11c0.28-0.09,0.56-0.17,0.82-0.25c0.19-0.06,0.37-0.11,0.54-0.16c0.01-0.51,0.16-7.68,0.19-8.98
		c-0.67,0.16-1.25,0.31-1.73,0.48C46.27,327.17,46.41,334.33,46.43,335.11"/>
	<path class="st0" d="M47.18,307.68c-2.52,0-1.45,3.59-1.25,4.77c0.01,0.05,0.21,8.12,0.24,9.97c0.38-0.09,0.77-0.19,1.14-0.27
		c0.26-0.06,0.52-0.12,0.76-0.19c0.04-1.78,0.22-9.48,0.23-9.53C48.45,311.18,49.77,307.68,47.18,307.68"/>
	<path class="st0" d="M84.17,316.81c2.4,0,4.61,2.01,4.61,6.67c0,4.66-2.2,6.67-4.61,6.67c-2.4,0-4.61-2.01-4.61-6.67
		C79.56,318.81,81.77,316.81,84.17,316.81 M84.17,328.33c1.34,0,2.42-1.28,2.42-4.85s-1.07-4.85-2.42-4.85
		c-1.34,0-2.42,1.28-2.42,4.85S82.83,328.33,84.17,328.33"/>
	<path class="st0" d="M90.21,321.97c0-0.59-0.02-1.15-0.07-1.58H92c0.02,0.58,0.07,1.17,0.07,1.75h0.03
		c0.25-0.74,0.89-1.89,2.17-1.89c0.13,0,0.23,0.03,0.35,0.05v2.16c-0.18-0.06-0.36-0.09-0.58-0.09c-0.85,0-1.77,0.57-1.77,2.36v5.24
		h-2.06"/>
	<path class="st0" d="M95.67,331.45c0.48,0.3,1.44,0.82,2.52,0.82c1.94,0,2.25-1.51,2.25-3.01v-0.91h-0.03
		c-0.33,0.74-0.91,1.62-2.25,1.62c-1.19,0-2.98-0.89-2.98-4.76c0-2.64,0.85-4.96,3.08-4.96c1.24,0,1.83,0.8,2.25,1.63h0.07
		c0-0.5,0.05-0.98,0.06-1.49h1.86c-0.04,0.5-0.07,1-0.07,1.51v7.06c0,2.99-0.81,5.13-3.94,5.13c-1.36,0-2.44-0.39-2.94-0.59
		 M98.64,328.27c1.29,0,1.8-1.04,1.8-3.21c0-2.01-0.68-3.09-1.66-3.07c-1.08,0.02-1.49,1.14-1.49,3.09
		C97.29,327.32,97.94,328.27,98.64,328.27"/>
	<path class="st0" d="M104.47,320.95c0.58-0.3,1.39-0.71,2.7-0.71c2.65,0,3.26,1.45,3.26,3.85v4.18c0,0.69,0.07,1.32,0.12,1.69
		h-1.86c-0.1-0.37-0.12-0.84-0.12-1.3h-0.03c-0.51,0.78-1.16,1.45-2.39,1.45c-1.33,0-2.55-1.02-2.55-2.81c0-2.6,1.89-3.25,4.49-3.25
		h0.42v-0.35c0-0.95-0.42-1.82-1.59-1.82c-1.02,0-1.94,0.56-2.33,0.93 M108.51,325.28h-0.18c-1.76,0-2.8,0.41-2.8,1.8
		c0,0.88,0.51,1.47,1.31,1.47c1.23,0,1.67-1.02,1.67-2.73V325.28z"/>
	<path class="st0" d="M112.09,321.97c0-0.59-0.02-1.15-0.07-1.58h1.92c0.01,0.48,0.07,0.99,0.07,1.47h0.05h-0.02
		c0.3-0.58,0.88-1.62,2.27-1.62c1.94,0,2.52,1.62,2.52,3.55v6.17h-2.05v-5.74c0-1.47-0.33-2.08-1.18-2.08
		c-1.08,0-1.46,1.02-1.46,2.25v5.57h-2.05"/>
	<path class="st0" d="M120.53,316.32h2.12v2.27h-2.12 M120.56,320.39h2.05v9.57h-2.05V320.39z"/>
	<polyline class="st0" points="124.12,327.97 127.77,322.14 124.24,322.14 124.24,320.39 129.83,320.39 129.83,322.36 
		126.24,328.21 129.94,328.21 129.94,329.96 124.12,329.96 	"/>
	<path class="st0" d="M131.66,320.95c0.58-0.3,1.39-0.71,2.7-0.71c2.65,0,3.27,1.45,3.27,3.85v4.18c0,0.69,0.06,1.32,0.12,1.69
		h-1.86c-0.1-0.37-0.12-0.84-0.12-1.3h-0.03c-0.52,0.78-1.16,1.45-2.39,1.45c-1.33,0-2.55-1.02-2.55-2.81c0-2.6,1.89-3.25,4.49-3.25
		h0.41v-0.35c0-0.95-0.41-1.82-1.59-1.82c-1.03,0-1.94,0.56-2.34,0.93 M135.7,325.28h-0.18c-1.75,0-2.8,0.41-2.8,1.8
		c0,0.88,0.51,1.47,1.31,1.47c1.23,0,1.67-1.02,1.67-2.73V325.28z"/>
	<path class="st0" d="M144.68,329.72c-0.48,0.2-1.19,0.39-2.02,0.39h-0.1l-0.3,1c0.17-0.05,0.36-0.11,0.65-0.11
		c0.91,0,1.44,0.58,1.44,1.38c0,1.17-1.03,1.71-1.84,1.71c-0.7,0-1.41-0.19-1.74-0.37l0.27-0.75c0.33,0.13,0.66,0.26,1.16,0.26
		c0.55,0,0.86-0.31,0.86-0.76c0-0.43-0.31-0.69-0.76-0.69c-0.3,0-0.5,0.06-0.65,0.13l-0.3-0.31l0.5-1.56
		c-2.25-0.41-3.2-2.43-3.2-4.85c0-2.73,1.26-4.94,4.13-4.94c0.64,0,1.41,0.22,1.79,0.39l-0.11,1.82c-0.36-0.2-0.88-0.47-1.44-0.47
		c-1.55,0-2.24,1.17-2.24,3.22c0,1.78,0.76,3.16,2.34,3.16c0.5,0,1.18-0.26,1.46-0.46"/>
	<path class="st0" d="M146.5,320.95c0.58-0.3,1.39-0.71,2.7-0.71c2.65,0,3.27,1.45,3.27,3.85v4.18c0,0.69,0.07,1.32,0.12,1.69h-1.86
		c-0.1-0.37-0.12-0.84-0.12-1.3h-0.03c-0.51,0.78-1.16,1.45-2.39,1.45c-1.33,0-2.55-1.02-2.55-2.81c0-2.6,1.89-3.25,4.49-3.25h0.41
		v-0.35c0-0.95-0.41-1.82-1.59-1.82c-1.03,0-1.94,0.56-2.33,0.93 M146.82,319.13c0-0.65,0.31-2.14,1.56-2.17
		c0.76,0,1.41,0.63,1.9,0.63c0.33,0,0.48-0.35,0.48-0.73h1.03c0,0.54-0.32,2.17-1.54,2.17c-0.64,0-1.26-0.63-1.85-0.63
		c-0.41,0-0.61,0.33-0.61,0.73H146.82z M150.55,325.28h-0.18c-1.76,0-2.8,0.41-2.8,1.8c0,0.88,0.51,1.47,1.31,1.47
		c1.23,0,1.67-1.02,1.67-2.73V325.28z"/>
	<path class="st0" d="M157.66,320.24c1.74,0,3.75,1.02,3.75,4.92c0,4.01-2.01,4.94-3.75,4.94c-1.74,0-3.76-0.93-3.76-4.94
		C153.9,321.27,155.92,320.24,157.66,320.24 M157.66,328.48c1.33,0,1.63-1.71,1.63-3.31c0-1.6-0.3-3.29-1.63-3.29
		c-1.32,0-1.64,1.69-1.64,3.29C156.02,326.76,156.33,328.48,157.66,328.48"/>
	<polyline class="st0" points="89.69,337 89.65,337 86.75,347.81 85.25,347.81 82.48,337 82.44,337 82.44,347.81 80.52,347.81 
		80.52,334.84 83.69,334.84 86.07,344.52 86.11,344.52 88.54,334.84 91.61,334.84 91.61,347.81 89.69,347.81 	"/>
	<path class="st0" d="M100.01,346.23c0,0.6,0.02,1.15,0.07,1.58h-1.92c-0.02-0.48-0.07-0.98-0.07-1.47l-0.05-0.02l0.01,0.02
		c-0.39,0.71-0.93,1.61-2.27,1.61c-1.94,0-2.52-1.61-2.52-3.55v-6.17h2.05v5.74c0,1.47,0.36,2.08,1.23,2.08
		c1.09,0,1.41-1.11,1.41-2.34v-5.48h2.06"/>
	<path class="st0" d="M101.78,339.82c0-0.59-0.02-1.15-0.07-1.58h1.92c0.02,0.48,0.07,0.98,0.07,1.47h0.05h-0.02
		c0.3-0.57,0.88-1.62,2.27-1.62c1.94,0,2.52,1.62,2.52,3.55v6.17h-2.05v-5.74c0-1.47-0.33-2.08-1.18-2.08
		c-1.08,0-1.46,1.02-1.46,2.25v5.57h-2.06"/>
	<path class="st0" d="M117.22,333.87v12.3c0,0.69,0.02,1.28,0.07,1.63h-1.92c-0.03-0.27-0.07-0.84-0.07-1.49h-0.05
		c-0.33,0.82-0.95,1.64-2.27,1.64c-2.12,0-3-2.27-3-4.92c0-3.12,1.11-4.94,2.95-4.94c1.23,0,1.91,0.78,2.2,1.52h0.03v-5.74
		 M113.54,346.27c1.21,0,1.62-1.47,1.62-3.27c0-1.86-0.46-3.21-1.59-3.21c-1.15,0-1.54,1.24-1.54,3.16
		C112.03,345.15,112.35,346.27,113.54,346.27"/>
	<path class="st0" d="M118.87,334.17h2.12v2.26h-2.12 M118.91,338.24h2.06v9.57h-2.06V338.24z"/>
	<path class="st0" d="M123.27,338.8c0.58-0.3,1.39-0.71,2.7-0.71c2.65,0,3.26,1.45,3.26,3.85v4.18c0,0.69,0.07,1.32,0.12,1.69h-1.86
		c-0.1-0.37-0.12-0.84-0.12-1.3h-0.03c-0.51,0.78-1.16,1.45-2.39,1.45c-1.33,0-2.55-1.02-2.55-2.81c0-2.6,1.89-3.25,4.49-3.25h0.41
		v-0.35c0-0.95-0.41-1.82-1.59-1.82c-1.03,0-1.94,0.55-2.33,0.93 M127.31,343.13h-0.18c-1.76,0-2.8,0.41-2.8,1.8
		c0,0.88,0.51,1.47,1.31,1.47c1.23,0,1.67-1.02,1.67-2.74V343.13z"/>
	<rect x="131.17" y="333.88" class="st0" width="2.05" height="13.93"/>
	<path class="st0" d="M146.75,333.87v12.3c0,0.69,0.02,1.28,0.07,1.63h-1.92c-0.03-0.27-0.06-0.84-0.06-1.49h-0.05
		c-0.33,0.82-0.94,1.64-2.27,1.64c-2.12,0-3-2.27-3-4.92c0-3.12,1.11-4.94,2.95-4.94c1.23,0,1.91,0.78,2.2,1.52h0.03v-5.74
		 M143.07,346.27c1.21,0,1.62-1.47,1.62-3.27c0-1.86-0.46-3.21-1.59-3.21c-1.15,0-1.55,1.24-1.55,3.16
		C141.56,345.15,141.87,346.27,143.07,346.27"/>
	<path class="st0" d="M148.89,338.8c0.58-0.3,1.39-0.71,2.7-0.71c2.65,0,3.26,1.45,3.26,3.85v4.18c0,0.69,0.07,1.32,0.12,1.69h-1.86
		c-0.1-0.37-0.12-0.84-0.12-1.3h-0.03c-0.52,0.78-1.16,1.45-2.39,1.45c-1.32,0-2.55-1.02-2.55-2.81c0-2.6,1.89-3.25,4.49-3.25h0.41
		v-0.35c0-0.95-0.41-1.82-1.59-1.82c-1.03,0-1.94,0.55-2.33,0.93 M152.93,343.13h-0.18c-1.76,0-2.8,0.41-2.8,1.8
		c0,0.88,0.51,1.47,1.31,1.47c1.22,0,1.67-1.02,1.67-2.74V343.13z"/>
	<path class="st0" d="M160.88,345.3c0.41,0.3,1.32,0.8,2.45,0.8c0.93,0,1.76-0.58,1.76-1.87c0-0.93-0.48-1.34-1.51-1.97l-1.08-0.67
		c-1.14-0.71-1.89-1.73-1.89-3.4c0-2.32,1.71-3.53,3.65-3.53c1.23,0,2.09,0.35,2.42,0.46l-0.1,1.99c-0.51-0.22-1.19-0.56-2.17-0.56
		c-1.06,0-1.61,0.63-1.61,1.52c0,0.97,0.58,1.34,1.23,1.75l1.24,0.78c1.36,0.85,2.01,1.67,2.01,3.49c0,2.64-1.68,3.9-3.88,3.9
		c-1.16,0-2.05-0.19-2.63-0.58"/>
	<path class="st0" d="M169.19,338.8c0.58-0.3,1.39-0.71,2.7-0.71c2.65,0,3.27,1.45,3.27,3.85v4.18c0,0.69,0.07,1.32,0.12,1.69h-1.86
		c-0.1-0.37-0.12-0.84-0.12-1.3h-0.03c-0.51,0.78-1.16,1.45-2.39,1.45c-1.33,0-2.55-1.02-2.55-2.81c0-2.6,1.89-3.25,4.49-3.25h0.41
		v-0.35c0-0.95-0.41-1.82-1.59-1.82c-1.03,0-1.94,0.55-2.33,0.93 M173.23,343.13h-0.18c-1.76,0-2.8,0.41-2.8,1.8
		c0,0.88,0.51,1.47,1.31,1.47c1.23,0,1.67-1.02,1.67-2.74V343.13z"/>
	<path class="st0" d="M183.32,346.23c0,0.6,0.01,1.15,0.06,1.58h-1.92c-0.02-0.49-0.07-0.98-0.07-1.47l-0.05-0.02l0.02,0.02
		c-0.4,0.71-0.93,1.62-2.27,1.62c-1.94,0-2.52-1.62-2.52-3.55v-6.17h2.06v5.74c0,1.47,0.36,2.08,1.23,2.08
		c1.1,0,1.41-1.11,1.41-2.34v-5.48h2.06 M180.04,334.51h1.92l-1.69,2.68h-1.29L180.04,334.51z"/>
	<path class="st0" d="M192.1,333.87v12.3c0,0.69,0.02,1.28,0.06,1.63h-1.92c-0.03-0.27-0.07-0.84-0.07-1.49h-0.05
		c-0.33,0.82-0.95,1.64-2.27,1.64c-2.12,0-3-2.27-3-4.92c0-3.12,1.11-4.94,2.95-4.94c1.23,0,1.91,0.78,2.2,1.52h0.04v-5.74
		 M188.43,346.27c1.21,0,1.62-1.47,1.62-3.27c0-1.86-0.47-3.21-1.59-3.21c-1.14,0-1.54,1.24-1.54,3.16
		C186.92,345.15,187.23,346.27,188.43,346.27"/>
	<path class="st0" d="M200.01,347.34c-0.43,0.21-1.33,0.61-2.55,0.61c-2.75,0-3.94-2.21-3.94-4.79c0-2.86,1.34-5.07,3.51-5.07
		c1.84,0,3.41,1.21,3.41,5.11v0.45h-4.94c0,1.63,0.58,2.62,2.17,2.62c1.26,0,1.86-0.42,2.24-0.74 M198.45,342.2
		c0-1.69-0.5-2.55-1.43-2.55c-1.08,0-1.52,1.28-1.52,2.55H198.45z"/>
	<polygon class="st0" points="18.3,363.7 20.45,363.7 20.45,364.42 19.05,364.42 19.05,365.73 20.37,365.73 20.37,366.45 
		19.05,366.45 19.05,367.9 20.51,367.9 20.51,368.62 18.3,368.62 	"/>
	<path class="st0" d="M21.03,367.67c0.15,0.11,0.47,0.3,0.87,0.3c0.33,0,0.62-0.22,0.62-0.71c0-0.35-0.17-0.51-0.53-0.75l-0.38-0.25
		c-0.4-0.27-0.67-0.66-0.67-1.29c0-0.88,0.6-1.34,1.29-1.34c0.43,0,0.74,0.13,0.86,0.18l-0.04,0.76c-0.18-0.09-0.42-0.21-0.77-0.21
		c-0.38,0-0.57,0.24-0.57,0.58c0,0.37,0.21,0.51,0.43,0.66l0.44,0.29c0.48,0.33,0.71,0.64,0.71,1.33c0,1-0.59,1.48-1.37,1.48
		c-0.41,0-0.73-0.07-0.93-0.22L21.03,367.67z"/>
	<path class="st0" d="M26.48,368.52c-0.15,0.1-0.52,0.18-0.89,0.18c-1.24,0-1.88-1.09-1.88-2.53c0-1.44,0.64-2.53,1.86-2.53
		c0.42,0,0.76,0.13,0.91,0.2l-0.04,0.81c-0.15-0.09-0.39-0.27-0.77-0.27c-0.62,0-1.16,0.51-1.16,1.79c0,1.28,0.53,1.78,1.16,1.78
		c0.36,0,0.6-0.11,0.77-0.26L26.48,368.52z"/>
	<path class="st0" d="M26.96,363.7h1.28c0.73,0,1.22,0.39,1.22,1.3c0,0.64-0.34,1.07-0.79,1.15v0.02c0.15,0.03,0.32,0.11,0.45,0.57
		l0.53,1.87h-0.8l-0.4-1.6c-0.1-0.39-0.3-0.52-0.57-0.52h-0.17v2.12h-0.75V363.7z M28.01,365.85c0.4,0,0.67-0.25,0.67-0.75
		c0-0.57-0.25-0.71-0.67-0.71h-0.31v1.45H28.01z"/>
	<rect x="30.12" y="363.7" class="st0" width="0.75" height="4.92"/>
	<polygon class="st0" points="32.21,364.42 31.3,364.42 31.3,363.7 33.87,363.7 33.87,364.42 32.96,364.42 32.96,368.62 
		32.21,368.62 	"/>
	<path class="st0" d="M35.5,363.63c0.85,0,1.63,0.76,1.63,2.53c0,1.77-0.78,2.53-1.63,2.53c-0.85,0-1.63-0.76-1.63-2.53
		C33.87,364.39,34.65,363.63,35.5,363.63 M35.5,368c0.48,0,0.86-0.49,0.86-1.84c0-1.35-0.38-1.84-0.86-1.84
		c-0.48,0-0.86,0.49-0.86,1.84C34.64,367.52,35.02,368,35.5,368"/>
	<path class="st0" d="M37.66,363.7h1.28c0.73,0,1.22,0.39,1.22,1.3c0,0.64-0.34,1.07-0.79,1.15v0.02c0.15,0.03,0.32,0.11,0.45,0.57
		l0.53,1.87h-0.8l-0.4-1.6c-0.1-0.39-0.29-0.52-0.57-0.52h-0.17v2.12h-0.75V363.7z M38.72,365.85c0.4,0,0.67-0.25,0.67-0.75
		c0-0.57-0.25-0.71-0.67-0.71h-0.31v1.45H38.72z"/>
	<rect x="40.81" y="363.7" class="st0" width="0.75" height="4.92"/>
	<path class="st0" d="M43.76,363.63c0.85,0,1.63,0.76,1.63,2.53c0,1.77-0.78,2.53-1.63,2.53c-0.85,0-1.63-0.76-1.63-2.53
		C42.13,364.39,42.91,363.63,43.76,363.63 M43.76,368c0.48,0,0.86-0.49,0.86-1.84c0-1.35-0.38-1.84-0.86-1.84
		c-0.48,0-0.86,0.49-0.86,1.84C42.9,367.52,43.28,368,43.76,368"/>
	<path class="st0" d="M47.29,363.7h1.28c0.73,0,1.22,0.39,1.22,1.3c0,0.64-0.34,1.07-0.79,1.15v0.02c0.15,0.03,0.32,0.11,0.45,0.57
		l0.53,1.87h-0.8l-0.4-1.6c-0.1-0.39-0.29-0.52-0.57-0.52h-0.17v2.12h-0.75V363.7z M48.35,365.85c0.4,0,0.67-0.25,0.67-0.75
		c0-0.57-0.25-0.71-0.67-0.71h-0.31v1.45H48.35z"/>
	<polygon class="st0" points="50.44,363.7 52.6,363.7 52.6,364.42 51.19,364.42 51.19,365.73 52.52,365.73 52.52,366.45 
		51.19,366.45 51.19,367.9 52.66,367.9 52.66,368.62 50.44,368.62 	"/>
	<path class="st0" d="M54.87,365.87h1.33v2.58c-0.21,0.13-0.58,0.26-1.11,0.26c-1.32,0-2.01-1.07-2.01-2.53
		c0-1.46,0.7-2.54,2.01-2.54c0.47,0,0.84,0.13,1,0.21l-0.04,0.81c-0.24-0.18-0.57-0.3-0.95-0.3c-0.8,0-1.23,0.79-1.23,1.81
		c0,1.11,0.42,1.81,1.19,1.81c0.18,0,0.33-0.04,0.43-0.09v-1.33h-0.62V365.87z"/>
	<rect x="56.9" y="363.7" class="st0" width="0.75" height="4.92"/>
	<path class="st0" d="M59.84,363.63c0.85,0,1.63,0.76,1.63,2.53c0,1.77-0.78,2.53-1.63,2.53c-0.85,0-1.63-0.76-1.63-2.53
		C58.21,364.39,58.99,363.63,59.84,363.63 M59.84,368c0.48,0,0.86-0.49,0.86-1.84c0-1.35-0.38-1.84-0.86-1.84
		c-0.48,0-0.86,0.49-0.86,1.84C58.99,367.52,59.37,368,59.84,368"/>
	<polygon class="st0" points="62.03,363.7 62.92,363.7 64.28,367.57 64.29,367.57 64.29,363.7 64.98,363.7 64.98,368.62 
		64.08,368.62 62.72,364.79 62.71,364.79 62.71,368.62 62.03,368.62 	"/>
	<path class="st0" d="M67.76,367.44h-1.41l-0.29,1.19h-0.75l1.37-4.92h0.82l1.32,4.92h-0.77L67.76,367.44z M67.6,366.75l-0.52-2.3
		h-0.01l-0.57,2.3H67.6z"/>
	<polygon class="st0" points="69.11,363.7 69.86,363.7 69.86,367.9 71.21,367.9 71.21,368.62 69.11,368.62 	"/>
	<path class="st0" d="M72.97,363.7h1.17c0.85,0,1.29,0.57,1.29,1.5c0,0.93-0.44,1.5-1.29,1.5h-0.42v1.93h-0.75V363.7z M74,366.01
		c0.47,0,0.67-0.27,0.67-0.81c0-0.54-0.2-0.81-0.67-0.81h-0.28v1.62H74z"/>
	<path class="st0" d="M77.52,367.44h-1.41l-0.29,1.19h-0.75l1.37-4.92h0.82l1.32,4.92h-0.77L77.52,367.44z M77.36,366.75l-0.52-2.3
		h-0.01l-0.57,2.3H77.36z"/>
	<path class="st0" d="M78.86,363.7h1.28c0.73,0,1.22,0.39,1.22,1.3c0,0.64-0.34,1.07-0.79,1.15v0.02c0.15,0.03,0.32,0.11,0.45,0.57
		l0.54,1.87h-0.8l-0.4-1.6c-0.1-0.39-0.29-0.52-0.57-0.52h-0.17v2.12h-0.75V363.7z M79.91,365.85c0.4,0,0.67-0.25,0.67-0.75
		c0-0.57-0.24-0.71-0.67-0.71h-0.31v1.45H79.91z"/>
	<path class="st0" d="M84.06,367.44h-1.41l-0.29,1.19h-0.75l1.37-4.92h0.82l1.32,4.92h-0.77L84.06,367.44z M83.91,366.75l-0.52-2.3
		h-0.01l-0.57,2.3H83.91z"/>
	<path class="st0" d="M88.57,367.44h-1.41l-0.29,1.19h-0.75l1.38-4.92h0.82l1.32,4.92h-0.78L88.57,367.44z M88.41,366.75l-0.52-2.3
		h-0.01l-0.56,2.3H88.41z"/>
	<path class="st0" d="M89.91,367.67c0.15,0.11,0.47,0.3,0.87,0.3c0.33,0,0.62-0.22,0.62-0.71c0-0.35-0.17-0.51-0.53-0.75l-0.38-0.25
		c-0.4-0.27-0.67-0.66-0.67-1.29c0-0.88,0.61-1.34,1.29-1.34c0.43,0,0.74,0.13,0.86,0.18l-0.04,0.76c-0.18-0.09-0.42-0.21-0.77-0.21
		c-0.38,0-0.57,0.24-0.57,0.58c0,0.37,0.21,0.51,0.43,0.66l0.44,0.29c0.48,0.33,0.71,0.64,0.71,1.33c0,1-0.59,1.48-1.37,1.48
		c-0.41,0-0.73-0.07-0.93-0.22L89.91,367.67z"/>
	<polyline class="st0" points="118.71,359.58 119.97,356.55 121.85,356.55 119.97,359.58 	"/>
	<polyline class="st0" points="35.19,363.31 35.82,361.8 36.76,361.8 35.82,363.31 	"/>
	<path class="st0" d="M84.4,250.25c2.73,0,5.24,2.12,5.24,7.04c0,4.92-2.51,7.04-5.24,7.04c-2.73,0-5.23-2.12-5.23-7.04
		C79.17,252.37,81.67,250.25,84.4,250.25 M84.4,262.42c1.53,0,2.75-1.35,2.75-5.12c0-3.77-1.23-5.12-2.75-5.12
		c-1.52,0-2.75,1.35-2.75,5.12C81.65,261.06,82.88,262.42,84.4,262.42"/>
	<path class="st0" d="M91.36,255.71c0-0.63-0.02-1.21-0.08-1.67h2.11c0.02,0.61,0.07,1.24,0.07,1.84h0.04c0.28-0.78,1.02-2,2.47-2
		c0.15,0,0.26,0.04,0.4,0.06v2.28c-0.21-0.06-0.41-0.1-0.66-0.1c-0.96,0-2.02,0.61-2.02,2.49v5.53h-2.33"/>
	<path class="st0" d="M97.75,265.71c0.55,0.31,1.64,0.86,2.87,0.86c2.2,0,2.56-1.59,2.56-3.18v-0.96h-0.04
		c-0.38,0.78-1.04,1.71-2.56,1.71c-1.36,0-3.39-0.94-3.39-5.02c0-2.78,0.96-5.24,3.51-5.24c1.41,0,2.07,0.84,2.56,1.73h0.08
		c0-0.53,0.05-1.04,0.08-1.57h2.11c-0.04,0.53-0.07,1.06-0.07,1.59v7.45c0,3.16-0.93,5.41-4.49,5.41c-1.54,0-2.77-0.41-3.33-0.63
		 M101.12,262.36c1.47,0,2.05-1.1,2.05-3.39c0-2.12-0.77-3.26-1.89-3.24c-1.22,0.02-1.7,1.2-1.7,3.26
		C99.59,261.35,100.33,262.36,101.12,262.36"/>
	<path class="st0" d="M107.75,254.63c0.66-0.31,1.58-0.75,3.07-0.75c3.01,0,3.71,1.53,3.71,4.06v4.41c0,0.73,0.07,1.39,0.13,1.79
		h-2.11c-0.11-0.39-0.13-0.88-0.13-1.38h-0.04c-0.59,0.82-1.32,1.53-2.71,1.53c-1.51,0-2.9-1.08-2.9-2.96
		c0-2.75,2.15-3.43,5.11-3.43h0.47v-0.37c0-1-0.47-1.92-1.81-1.92c-1.17,0-2.21,0.59-2.66,0.98 M112.35,259.2h-0.21
		c-2,0-3.18,0.43-3.18,1.9c0,0.92,0.58,1.55,1.49,1.55c1.4,0,1.9-1.08,1.9-2.88V259.2z"/>
	<path class="st0" d="M116.42,255.71c0-0.63-0.02-1.21-0.07-1.67h2.18c0.02,0.51,0.07,1.04,0.07,1.55h0.06h-0.02
		c0.34-0.61,1-1.7,2.58-1.7c2.21,0,2.87,1.7,2.87,3.75v6.51h-2.34v-6.06c0-1.55-0.37-2.2-1.34-2.2c-1.23,0-1.66,1.08-1.66,2.37v5.88
		h-2.33"/>
	<path class="st0" d="M126.1,249.74h2.41v2.39h-2.41 M126.14,254.04h2.33v10.1h-2.33V254.04z"/>
	<polyline class="st0" points="130,262.04 134.14,255.88 130.13,255.88 130.13,254.04 136.48,254.04 136.48,256.12 132.41,262.3 
		136.61,262.3 136.61,264.14 130,264.14 	"/>
	<path class="st0" d="M138.38,254.63c0.66-0.31,1.58-0.75,3.07-0.75c3.02,0,3.71,1.53,3.71,4.06v4.41c0,0.73,0.07,1.39,0.13,1.79
		h-2.11c-0.11-0.39-0.13-0.88-0.13-1.38h-0.04c-0.58,0.82-1.32,1.53-2.71,1.53c-1.51,0-2.9-1.08-2.9-2.96
		c0-2.75,2.15-3.43,5.11-3.43h0.47v-0.37c0-1-0.47-1.92-1.81-1.92c-1.17,0-2.2,0.59-2.66,0.98 M142.98,259.2h-0.21
		c-2,0-3.18,0.43-3.18,1.9c0,0.92,0.58,1.55,1.49,1.55c1.39,0,1.9-1.08,1.9-2.88V259.2z"/>
	<path class="st0" d="M153.64,263.89c-0.55,0.22-1.36,0.41-2.3,0.41h-0.11l-0.34,1.06c0.19-0.06,0.42-0.12,0.73-0.12
		c1.04,0,1.64,0.61,1.64,1.45c0,1.24-1.17,1.81-2.09,1.81c-0.79,0-1.6-0.2-1.98-0.39l0.3-0.78c0.38,0.14,0.76,0.28,1.32,0.28
		c0.62,0,0.98-0.33,0.98-0.81c0-0.45-0.36-0.73-0.87-0.73c-0.34,0-0.57,0.06-0.74,0.14l-0.34-0.34l0.57-1.65
		c-2.56-0.43-3.64-2.57-3.64-5.12c0-2.88,1.43-5.21,4.69-5.21c0.73,0,1.6,0.23,2.04,0.41l-0.13,1.92c-0.42-0.21-1-0.49-1.64-0.49
		c-1.77,0-2.54,1.24-2.54,3.39c0,1.88,0.86,3.33,2.65,3.33c0.57,0,1.34-0.27,1.66-0.49"/>
	<path class="st0" d="M155.26,254.63c0.66-0.31,1.58-0.75,3.07-0.75c3.01,0,3.71,1.53,3.71,4.06v4.41c0,0.73,0.07,1.39,0.13,1.79
		h-2.11c-0.11-0.39-0.13-0.88-0.13-1.38h-0.04c-0.58,0.82-1.32,1.53-2.71,1.53c-1.51,0-2.9-1.08-2.9-2.96
		c0-2.75,2.15-3.43,5.11-3.43h0.47v-0.37c0-1-0.47-1.92-1.81-1.92c-1.17,0-2.21,0.59-2.66,0.98 M155.62,252.71
		c0-0.69,0.36-2.26,1.77-2.3c0.87,0,1.6,0.67,2.17,0.67c0.38,0,0.55-0.37,0.55-0.76h1.17c0,0.57-0.36,2.29-1.75,2.29
		c-0.73,0-1.43-0.67-2.11-0.67c-0.47,0-0.7,0.35-0.7,0.77H155.62z M159.86,259.2h-0.21c-2,0-3.18,0.43-3.18,1.9
		c0,0.92,0.58,1.55,1.49,1.55c1.39,0,1.9-1.08,1.9-2.88V259.2z"/>
	<path class="st0" d="M167.94,253.88c1.98,0,4.26,1.08,4.26,5.2c0,4.24-2.28,5.22-4.26,5.22c-1.98,0-4.28-0.98-4.28-5.22
		C163.67,254.96,165.96,253.88,167.94,253.88 M167.94,262.57c1.51,0,1.85-1.8,1.85-3.49c0-1.69-0.34-3.47-1.85-3.47
		c-1.51,0-1.87,1.79-1.87,3.47C166.08,260.77,166.43,262.57,167.94,262.57"/>
	<path class="st0" d="M79.58,267.66h3.77c2.71,0,4.13,1.57,4.13,4.16c0,2.59-1.41,4.18-4.13,4.18h-1.36v5.35h-2.41 M82.9,274.07
		c1.51,0,2.17-0.76,2.17-2.25c0-1.49-0.66-2.24-2.17-2.24h-0.9v4.49H82.9z"/>
	<path class="st0" d="M88.29,271.83c0.66-0.31,1.58-0.74,3.07-0.74c3.01,0,3.71,1.53,3.71,4.06v4.41c0,0.73,0.08,1.39,0.13,1.78
		h-2.11c-0.11-0.39-0.13-0.88-0.13-1.37h-0.04c-0.59,0.82-1.32,1.53-2.71,1.53c-1.51,0-2.9-1.08-2.9-2.96
		c0-2.75,2.15-3.43,5.11-3.43h0.47v-0.38c0-1-0.47-1.92-1.81-1.92c-1.17,0-2.2,0.59-2.66,0.98 M92.88,276.4h-0.21
		c-2,0-3.18,0.43-3.18,1.9c0,0.92,0.58,1.55,1.49,1.55c1.39,0,1.9-1.08,1.9-2.88V276.4z"/>
	<path class="st0" d="M96.95,272.91c0-0.63-0.02-1.22-0.08-1.67h2.18c0.02,0.51,0.08,1.04,0.08,1.55h0.05h-0.02
		c0.34-0.61,1-1.7,2.58-1.7c2.21,0,2.87,1.7,2.87,3.75v6.51h-2.34v-6.06c0-1.55-0.37-2.2-1.34-2.2c-1.23,0-1.66,1.08-1.66,2.37v5.88
		h-2.33"/>
	<rect x="106.19" y="274.78" class="st0" width="4.35" height="2"/>
	<path class="st0" d="M119.03,278.05h-4.52l-0.94,3.3h-2.41l4.41-13.69h2.64l4.23,13.69h-2.48 M118.52,276.13l-1.66-6.39h-0.04
		l-1.81,6.39H118.52z"/>
	<path class="st0" d="M123.27,272.89c0-0.73-0.04-1.27-0.08-1.65h2.34c0.02,0.53,0.07,1.06,0.07,1.59h0.04
		c0.36-0.78,1.11-1.74,2.45-1.74c1.64,0,2.16,1.05,2.45,1.6c0.47-0.71,1.17-1.6,2.6-1.6c2.11,0,2.79,1.57,2.79,4.02v6.24h-2.34
		v-6.38c0-1.25-0.38-1.88-1.24-1.88c-1.04,0-1.58,1.02-1.58,2.14v6.12h-2.34v-6.38c0-1.25-0.38-1.88-1.24-1.88
		c-1.03,0-1.58,1.02-1.58,2.14v6.12h-2.33"/>
	<path class="st0" d="M144.82,280.85c-0.49,0.22-1.51,0.65-2.9,0.65c-3.13,0-4.48-2.33-4.48-5.06c0-3.02,1.52-5.35,3.99-5.35
		c2.09,0,3.88,1.28,3.88,5.39v0.47h-5.61c0,1.73,0.66,2.76,2.47,2.76c1.43,0,2.11-0.45,2.54-0.78 M143.05,275.42
		c0-1.79-0.57-2.69-1.62-2.69c-1.23,0-1.73,1.35-1.73,2.69H143.05z"/>
	<path class="st0" d="M146.92,272.91c0-0.63-0.02-1.22-0.08-1.67h2.11c0.02,0.61,0.07,1.24,0.07,1.84h0.04c0.28-0.78,1.02-2,2.47-2
		c0.15,0,0.26,0.04,0.39,0.06v2.28c-0.21-0.06-0.41-0.1-0.66-0.1c-0.96,0-2.02,0.61-2.02,2.49v5.53h-2.33"/>
	<path class="st0" d="M153.38,266.95h2.41v2.4h-2.41 M153.41,271.24h2.33v10.1h-2.33V271.24z"/>
	<path class="st0" d="M164.4,281.09c-0.55,0.22-1.36,0.41-2.3,0.41c-3.2,0-4.56-2.33-4.56-5.2c0-2.88,1.43-5.22,4.69-5.22
		c0.73,0,1.6,0.23,2.04,0.41l-0.13,1.92c-0.42-0.22-1-0.49-1.64-0.49c-1.77,0-2.54,1.24-2.54,3.39c0,1.88,0.86,3.34,2.65,3.34
		c0.57,0,1.34-0.28,1.66-0.49"/>
	<path class="st0" d="M166.02,271.83c0.66-0.31,1.58-0.74,3.07-0.74c3.01,0,3.71,1.53,3.71,4.06v4.41c0,0.73,0.08,1.39,0.13,1.78
		h-2.11c-0.11-0.39-0.13-0.88-0.13-1.37h-0.04c-0.59,0.82-1.32,1.53-2.72,1.53c-1.5,0-2.9-1.08-2.9-2.96c0-2.75,2.15-3.43,5.11-3.43
		h0.47v-0.38c0-1-0.47-1.92-1.81-1.92c-1.17,0-2.2,0.59-2.66,0.98 M170.61,276.4h-0.21c-2,0-3.18,0.43-3.18,1.9
		c0,0.92,0.58,1.55,1.49,1.55c1.39,0,1.9-1.08,1.9-2.88V276.4z"/>
	<path class="st0" d="M174.68,272.91c0-0.63-0.02-1.22-0.08-1.67h2.19c0.02,0.51,0.07,1.04,0.07,1.55h0.06h-0.02
		c0.34-0.61,1-1.7,2.58-1.7c2.21,0,2.87,1.7,2.87,3.75v6.51h-2.34v-6.06c0-1.55-0.37-2.2-1.34-2.2c-1.23,0-1.66,1.08-1.66,2.37v5.88
		h-2.33"/>
	<path class="st0" d="M184.65,271.83c0.66-0.31,1.58-0.74,3.07-0.74c3.01,0,3.71,1.53,3.71,4.06v4.41c0,0.73,0.08,1.39,0.13,1.78
		h-2.11c-0.11-0.39-0.13-0.88-0.13-1.37h-0.04c-0.59,0.82-1.32,1.53-2.72,1.53c-1.5,0-2.9-1.08-2.9-2.96c0-2.75,2.15-3.43,5.11-3.43
		h0.47v-0.38c0-1-0.47-1.92-1.81-1.92c-1.17,0-2.2,0.59-2.66,0.98 M189.25,276.4h-0.21c-2,0-3.18,0.43-3.18,1.9
		c0,0.92,0.58,1.55,1.49,1.55c1.39,0,1.9-1.08,1.9-2.88V276.4z"/>
	<path class="st0" d="M87.32,283.84v12.99c0,0.72,0.02,1.35,0.08,1.73h-2.19c-0.04-0.3-0.08-0.88-0.08-1.57h-0.05
		c-0.38,0.86-1.08,1.73-2.58,1.73c-2.41,0-3.41-2.39-3.41-5.2c0-3.3,1.26-5.22,3.35-5.22c1.39,0,2.17,0.83,2.51,1.61h0.04v-6.06
		 M83.14,296.92c1.38,0,1.85-1.55,1.85-3.45c0-1.96-0.53-3.39-1.81-3.39c-1.3,0-1.75,1.31-1.75,3.33
		C81.43,295.75,81.79,296.92,83.14,296.92"/>
	<path class="st0" d="M89.66,289.04c0.66-0.31,1.58-0.75,3.07-0.75c3.01,0,3.71,1.53,3.71,4.06v4.41c0,0.73,0.08,1.39,0.13,1.79
		h-2.11c-0.11-0.39-0.13-0.88-0.13-1.38H94.3c-0.59,0.82-1.32,1.53-2.71,1.53c-1.51,0-2.9-1.08-2.9-2.96c0-2.75,2.15-3.43,5.11-3.43
		h0.47v-0.37c0-1-0.47-1.92-1.81-1.92c-1.17,0-2.2,0.59-2.66,0.98 M94.26,293.61h-0.21c-2,0-3.18,0.43-3.18,1.9
		c0,0.92,0.58,1.55,1.49,1.55c1.39,0,1.9-1.08,1.9-2.89V293.61z"/>
	<path class="st0" d="M103.11,295.9c0.47,0.31,1.51,0.85,2.79,0.85c1.05,0,2-0.61,2-1.98c0-0.98-0.55-1.41-1.71-2.08l-1.23-0.71
		c-1.3-0.74-2.15-1.82-2.15-3.59c0-2.45,1.94-3.72,4.14-3.72c1.39,0,2.37,0.37,2.75,0.49l-0.11,2.1c-0.58-0.23-1.35-0.59-2.47-0.59
		c-1.2,0-1.82,0.67-1.82,1.61c0,1.02,0.66,1.41,1.39,1.84l1.41,0.82c1.55,0.9,2.28,1.77,2.28,3.69c0,2.79-1.9,4.12-4.41,4.12
		c-1.32,0-2.33-0.19-2.99-0.61"/>
	<path class="st0" d="M112.55,289.04c0.66-0.31,1.58-0.75,3.07-0.75c3.01,0,3.71,1.53,3.71,4.06v4.41c0,0.73,0.07,1.39,0.13,1.79
		h-2.11c-0.11-0.39-0.13-0.88-0.13-1.38h-0.04c-0.59,0.82-1.32,1.53-2.71,1.53c-1.51,0-2.9-1.08-2.9-2.96
		c0-2.75,2.15-3.43,5.11-3.43h0.47v-0.37c0-1-0.47-1.92-1.81-1.92c-1.17,0-2.2,0.59-2.66,0.98 M117.15,293.61h-0.21
		c-2,0-3.18,0.43-3.18,1.9c0,0.92,0.58,1.55,1.49,1.55c1.39,0,1.9-1.08,1.9-2.89V293.61z"/>
	<path class="st0" d="M128.89,296.88c0,0.63,0.02,1.21,0.08,1.67h-2.18c-0.02-0.51-0.08-1.04-0.08-1.55l-0.05-0.02l0.02,0.02
		c-0.45,0.74-1.05,1.71-2.58,1.71c-2.2,0-2.86-1.71-2.86-3.75v-6.51h2.33v6.06c0,1.55,0.42,2.2,1.39,2.2c1.24,0,1.6-1.17,1.6-2.47
		v-5.79h2.34 M125.15,284.51h2.18l-1.92,2.82h-1.47L125.15,284.51z"/>
	<path class="st0" d="M138.68,283.84v12.99c0,0.72,0.02,1.35,0.08,1.73h-2.19c-0.04-0.3-0.08-0.88-0.08-1.57h-0.06
		c-0.38,0.86-1.07,1.73-2.58,1.73c-2.41,0-3.41-2.39-3.41-5.2c0-3.3,1.27-5.22,3.36-5.22c1.39,0,2.17,0.83,2.5,1.61h0.04v-6.06
		 M134.5,296.92c1.38,0,1.85-1.55,1.85-3.45c0-1.96-0.53-3.39-1.81-3.39c-1.3,0-1.75,1.31-1.75,3.33
		C132.79,295.75,133.14,296.92,134.5,296.92"/>
	<path class="st0" d="M147.67,298.06c-0.49,0.22-1.51,0.65-2.9,0.65c-3.13,0-4.48-2.34-4.48-5.06c0-3.02,1.53-5.35,3.99-5.35
		c2.09,0,3.88,1.28,3.88,5.4v0.47h-5.61c0,1.73,0.66,2.76,2.47,2.76c1.43,0,2.11-0.45,2.54-0.78 M145.9,292.63
		c0-1.79-0.57-2.69-1.62-2.69c-1.23,0-1.73,1.35-1.73,2.69H145.9z"/>
	<path class="st0" d="M45.81,301.72c-15.7,0-28.47-12.26-28.47-27.32c0-15.06,12.77-27.32,28.47-27.32
		c15.69,0,28.46,12.26,28.46,27.32C74.28,289.46,61.5,301.72,45.81,301.72 M45.81,248.34c-14.98,0-27.16,11.69-27.16,26.07
		c0,14.38,12.18,26.07,27.16,26.07c14.98,0,27.16-11.69,27.16-26.07C72.97,260.03,60.79,248.34,45.81,248.34"/>
	<path class="st0" d="M45.81,294.21c-11.69,0-21.19-8.89-21.19-19.81c0-10.92,9.51-19.81,21.19-19.81
		c11.68,0,21.19,8.89,21.19,19.81C67.01,285.32,57.5,294.21,45.81,294.21 M45.81,255.99c-10.88,0-19.74,8.26-19.74,18.41
		c0,10.16,8.86,18.41,19.74,18.41c10.88,0,19.74-8.26,19.74-18.41C65.55,264.25,56.7,255.99,45.81,255.99"/>
	<polyline class="st0" points="23.33,264.9 23.7,266.24 25.06,266.24 24.08,266.99 24.44,268.16 23.27,267.23 22.13,268.24 
		22.59,266.99 21.42,266.24 22.78,266.27 	"/>
	<path class="st0" d="M24.58,268.36l-1.31-1.03l-1.1,0.97l-0.12-0.08l0.44-1.2l-1.33-0.85l1.56,0.03l0.62-1.52l0.41,1.49h1.51
		l-1.11,0.85 M21.66,266.32l1.01,0.64L22.29,268l0.98-0.86l1.04,0.81l-0.31-0.99l0.86-0.66h-1.21l-0.33-1.18l-0.49,1.21
		L21.66,266.32z"/>
	<polyline class="st0" points="66.75,283.85 67.12,285.19 68.48,285.19 67.49,285.94 67.86,287.11 66.68,286.18 65.54,287.19 
		66,285.94 64.83,285.19 66.19,285.22 	"/>
	<path class="st0" d="M68,287.31l-1.31-1.03l-1.1,0.97l-0.12-0.07l0.45-1.2l-1.34-0.85l1.56,0.03l0.62-1.52l0.41,1.49h1.51
		l-1.11,0.85 M65.08,285.27l1.01,0.65l-0.38,1.04l0.97-0.86l1.04,0.82l-0.32-1l0.86-0.66h-1.21l-0.33-1.18l-0.49,1.21L65.08,285.27z
		"/>
	<polyline class="st0" points="24.78,283.55 25.16,284.89 26.52,284.89 25.53,285.64 25.9,286.81 24.73,285.89 23.58,286.89 
		24.04,285.64 22.87,284.89 24.23,284.92 	"/>
	<path class="st0" d="M26.04,287.01l-1.31-1.03l-1.1,0.97l-0.12-0.08l0.44-1.2l-1.33-0.85l1.56,0.03l0.62-1.52l0.42,1.49h1.51
		l-1.11,0.85 M23.12,284.97l1.01,0.64l-0.38,1.04l0.97-0.86l1.04,0.82l-0.31-1l0.86-0.66H25.1l-0.33-1.18l-0.49,1.22L23.12,284.97z"
		/>
	<polyline class="st0" points="68.43,263.94 68.93,265.27 70.16,265.27 69.18,266.02 69.55,267.2 68.43,266.2 67.23,267.28 
		67.69,266.02 66.52,265.28 67.88,265.31 	"/>
	<path class="st0" d="M69.7,267.42l-1.26-1.12l-1.16,1.03l-0.12-0.07l0.44-1.2l-1.34-0.85l1.56,0.03l0.61-1.5l0.54,1.47h1.4
		l-1.11,0.84 M66.77,265.35l1.01,0.64l-0.38,1.04l1.04-0.93l0.97,0.86L69.09,266l0.86-0.66h-1.08l-0.45-1.21l-0.5,1.24L66.77,265.35
		z"/>
	<path class="st0" d="M47.49,274.39c0.12,0,0.23-0.01,0.34,0"/>
	<polyline class="st0" points="31.39,289.92 31.99,290.45 29.15,293.39 28.52,292.83 29.29,289.63 29.28,289.62 27.26,291.72 
		26.66,291.19 29.5,288.25 30.17,288.85 29.41,291.96 29.42,291.97 	"/>
	<path class="st0" d="M46.87,253.49l-0.92-0.08l1.91-3.81l1.01,0.1l1.07,4.09l-0.95-0.09l-0.19-0.84l-1.55-0.15 M47.55,252.04
		l1.07,0.1l-0.36-1.61h-0.01L47.55,252.04z"/>
	<polyline class="st0" points="52.55,253.68 54.54,254.29 54.3,254.96 51.47,254.1 52.81,250.37 53.65,250.62 	"/>
	<path class="st0" d="M58.97,256.11c-0.6,0.87-1.42,0.9-2.3,0.36c-0.32-0.2-0.75-0.57-0.83-1.08c-0.05-0.32,0.06-0.63,0.28-0.97
		l1.52-2.19l0.75,0.46l-1.49,2.15c-0.32,0.46-0.18,0.83,0.16,1.04c0.5,0.31,0.87,0.2,1.15-0.2l1.51-2.18l0.75,0.46"/>
	<polyline class="st0" points="60.88,259.25 60.2,258.72 62.43,256.23 61.45,255.47 61.93,254.93 64.57,256.97 64.09,257.51 
		63.11,256.75 	"/>
	<path class="st0" d="M42.21,252.57c0.04,0.22,0.23,0.62,0.99,0.51c0.41-0.06,0.85-0.22,0.78-0.63c-0.06-0.31-0.38-0.35-0.84-0.38
		l-0.46-0.04c-0.7-0.05-1.37-0.11-1.52-0.97c-0.08-0.44,0.04-1.25,1.39-1.44c1.28-0.18,1.75,0.56,1.84,1.04l-0.83,0.12
		c-0.05-0.17-0.2-0.58-0.96-0.47c-0.33,0.05-0.7,0.22-0.64,0.57c0.05,0.31,0.33,0.34,0.51,0.35l1.05,0.09
		c0.59,0.05,1.15,0.2,1.27,0.9c0.2,1.18-1.05,1.47-1.42,1.52c-1.52,0.22-1.92-0.58-2.01-1.07"/>
	<path class="st0" d="M32.68,252.68c0.5-0.24,1.9-0.68,2.81,0.97c0.91,1.65-0.27,2.49-0.77,2.73c-0.49,0.24-1.9,0.68-2.81-0.97
		C31,253.76,32.19,252.92,32.68,252.68 M34.38,255.76c0.42-0.21,0.88-0.74,0.33-1.73c-0.54-0.99-1.27-0.94-1.7-0.73
		c-0.42,0.2-0.87,0.74-0.33,1.73C33.24,256.01,33.97,255.97,34.38,255.76"/>
	<path class="st0" d="M26.62,257.46l1.46-1.46c0.77-0.76,1.5-0.38,1.76-0.14c0.33,0.3,0.45,0.71,0.26,1.09
		c0.35-0.14,0.57-0.19,1.13,0.32c0.44,0.39,0.55,0.49,0.73,0.41l0.08,0.07l-0.67,0.67c-0.18-0.09-0.36-0.2-0.67-0.48
		c-0.41-0.37-0.59-0.49-1.04-0.04l-0.63,0.62l1.17,1.05l-0.59,0.59 M29.24,257.35c0.31-0.31,0.36-0.57,0.06-0.83
		c-0.16-0.14-0.46-0.28-0.82,0.07l-0.76,0.74l0.8,0.72L29.24,257.35z"/>
	<polyline class="st0" points="57.24,292.26 57.95,291.89 59.99,295.31 59.22,295.72 56.28,294.06 56.27,294.06 57.72,296.51 
		57.01,296.88 54.97,293.46 55.77,293.03 58.65,294.66 58.66,294.65 	"/>
	<path class="st0" d="M58.76,291.16l1.46-1.07c1.12-0.82,2.09-0.09,2.58,0.5c0.55,0.67,1.07,1.84-0.03,2.64l-1.43,1.05
		 M61.58,293.25l0.67-0.49c0.57-0.41,0.31-1.09-0.11-1.6c-0.76-0.92-1.29-0.66-1.58-0.44l-0.67,0.49L61.58,293.25z"/>
	<polyline class="st0" points="65.77,290.59 65.2,291.21 62.04,288.61 62.62,287.99 	"/>
	<polyline class="st0" points="67.12,261.2 65.77,259.53 65.07,260.03 66.31,261.57 65.72,261.99 64.47,260.46 63.61,261.07 
		65.02,262.82 64.43,263.24 62.5,260.85 65.84,258.46 67.71,260.78 	"/>
	<path class="st0" d="M34.18,291.97c0.45,0.3,1.51,1.28,0.39,2.8c-1.12,1.52-2.45,0.92-2.91,0.62c-0.46-0.3-1.51-1.27-0.4-2.8
		C32.39,291.07,33.72,291.67,34.18,291.97 M32.09,294.81c0.39,0.26,1.1,0.39,1.77-0.52c0.67-0.91,0.29-1.5-0.1-1.75
		c-0.39-0.26-1.1-0.39-1.77,0.52C31.32,293.97,31.7,294.56,32.09,294.81"/>
	<polyline class="st0" points="38.63,294.11 39.48,294.42 36.63,297.64 35.86,297.36 36.07,293.19 36.94,293.5 36.62,296.61 
		36.63,296.61 	"/>
	<polyline class="st0" points="40.06,298.6 39.21,298.39 40.29,294.6 41.14,294.81 	"/>
	<polyline class="st0" points="50,298.91 49.18,298.96 48.95,295.66 48.94,295.66 48.39,299.01 47.53,299.07 46.52,295.82 
		46.51,295.82 46.75,299.12 45.93,299.17 45.65,295.23 46.93,295.14 47.91,298.2 47.93,298.2 48.45,295.04 49.72,294.96 	"/>
	<path class="st0" d="M54.87,296.45c0.28,1.01-0.25,1.61-1.28,1.85c-0.38,0.09-0.96,0.14-1.43-0.15c-0.28-0.18-0.46-0.48-0.57-0.86
		l-0.7-2.55l0.87-0.21l0.68,2.5c0.15,0.54,0.54,0.7,0.94,0.6c0.58-0.14,0.75-0.47,0.62-0.93l-0.69-2.54l0.87-0.2"/>
	<path class="st0" d="M27.04,263.25l-0.49,0.69l-3.47-2.23l1.08-1.51c0.46-0.64,1.16-0.75,1.84-0.31c0.31,0.2,0.99,0.88,0.36,1.77
		l-0.56,0.79 M25.65,261.41c0.37-0.51-0.02-0.76-0.18-0.86c-0.34-0.22-0.61-0.13-0.91,0.3l-0.39,0.55l1.02,0.66L25.65,261.41z"/>
	<path class="st0" d="M49.96,289.97c0.31,0.68-0.49,0.51-0.8,0.75h-0.26C48.96,290.33,49.4,289.7,49.96,289.97"/>
	<path class="st0" d="M45.44,277.9v0.27h-1.08C44.26,277.59,45.19,277.49,45.44,277.9"/>
	<polyline class="st0" points="47.32,270.99 47.84,270.38 49.23,270.27 49.86,270.16 49.57,270.72 48.82,270.99 48.94,270.72 
		48.07,270.66 47.61,270.99 	"/>
	<polyline class="st0" points="50.73,270.22 51.19,270.16 51.71,270.38 51.42,270.71 50.9,270.83 50.67,271.1 50.38,270.88 
		49.92,270.99 49.86,270.77 50.26,270.66 50.09,270.44 50.26,270.27 	"/>
	<polyline class="st0" points="52.16,270.74 52.44,270.52 52.96,270.57 52.85,270.85 52.1,271.01 	"/>
	<polyline class="st0" points="48.07,271.38 48.64,271.33 48.53,271.66 47.96,271.66 	"/>
	<polyline class="st0" points="52,271.3 52.34,271.05 52.53,271.22 52.3,271.41 	"/>
	<polyline class="st0" points="51.7,271.84 51.99,272.17 52.22,272.06 52.04,271.5 	"/>
	<polyline class="st0" points="52.75,272.05 52.93,271.83 52.41,271.55 	"/>
	<line class="st0" x1="52.75" y1="272.05" x2="52.93" y2="271.83"/>
	<polyline class="st0" points="53.34,271.8 53.54,271.87 53.46,272.69 53.18,271.96 	"/>
	<path class="st0" d="M44.11,259.33c0.21-0.22,0.05-1.16-0.28-1.26c-0.39,0.58,0.8,0.85,0,1.26 M45.96,262.35
		c-0.05-0.46-0.16-1.41,0.27-2.01l0.26-0.26c-0.1,0.08-0.19,0.16-0.26,0.26l-0.53-0.5l0.26-0.26c-0.39,0.12-0.52-0.31-0.8-0.49
		c-0.36,0.94,1.95,2.15-0.26,2.25c-0.15-0.14-0.36-0.27-0.28-0.51h-0.26v0.27h0.26c-0.15,0.12-0.28,0.32-0.51,0.24
		c-0.02,0.29,0.05,0.61-0.28,0.75h0.54c0.15,0.14,0.36,0.26,0.26,0.51c0.36,0.1,0.9-0.22,1.08,0.24
		C45.62,262.62,45.83,262.5,45.96,262.35 M48.79,274.39c0.57-0.34,0.89-0.57,1.71-0.75c-0.08,0.24,0.12,0.36,0.26,0.51
		c0.58-0.65,0.95-0.12,1.39,0.24c0.22,0.18,0.45,0.31,0.74,0.24c0.01-0.08,0.06-0.16,0.1-0.24h0.28c0.4,0.93,1.89,1.48,2.03,2.52
		c0.92,0.43,2.21,0.07,2.93,0.99c1.87,2.01-2.26,2.73-1.59,4.79c-0.33,1.33-1.39,1.55-2.67,1.74c-0.41,1.01-1.23,1.43-2.13,2.01
		c-1.33-0.05-1.51,0.9-2.67,1.26c-0.41,1.31-1.54,1.67-1.87,3.02c0.21,0.41,0.92,0.17,0.8,0.75c-0.92,0.03-2.1-0.51-2.13-1.5
		c0.36-2.81,2.49-4.93,2.67-7.79c-1.44-1.02-1.67-2.95-1.59-4.76c0.92-0.46,0.72-1.36,1.05-2.01l-0.51-0.51
		c-0.54,0.75-0.9-0.39-1.62,0c-0.05-0.19-0.15-0.35-0.27-0.51c-0.29-0.36-0.74-0.66-1.07-1.01c-1.05-0.32-2.23-0.39-3.18-1
		c-1.21-0.09-0.51-1.4-1.59-1.76c-0.15,0.14-0.36,0.27-0.28,0.51c-1.72-0.43-1.03-2.25-1.85-3.26c0.18-0.71,0.21-1.38,0.06-2.01
		c-0.11-0.43-0.3-0.85-0.6-1.25c-1.69-1.79-3.57,1.31-5.6,0.24c0.74-0.05,1.36-0.39,1.85-0.99c-0.16-0.24-0.62-0.39-0.52-0.75
		l0.26-0.26l-0.26-0.24l0.26-0.24c-0.15-0.14-0.36-0.26-0.26-0.51c1-0.77,2.37-1.84,3.98-1.76c1.23-0.44,2.9,0.97,4.01-0.51
		c-0.57-0.03-1.16-0.82-0.54-1.23c0.39,0.05,0.8-0.6,1.08,0c0.33-0.17,0.25-0.49,0.25-0.77c0.88-0.46,1.82,0.97,2.13-0.24h0.54
		c-0.08,0.24,0.13,0.36,0.26,0.51l0.28-0.26l0.26,0.26c0.72-0.68,1.18,0.7,2.13,0.24c0.72,0.43,1.16,1.4,1.34,2.27
		c-0.28,0-0.61-0.07-0.8,0.24l1.08,1.02c0.33-0.18,0.26-0.49,0.26-0.78c1.28,0.63,2.05,1.91,2.67,3.03c-1.39,0.22-2.65,0.8-3.47,2
		c0.85,2.03-2.72,1.99-1.08,4.02l-0.53,0.51c-0.06-0.47-0.22-0.89-0.52-1.26c-1.39,0.85-3.8-0.85-3.47,1.77
		c0.36,0.29,0.34,0.73,0.8,0.99c0.67,0.29,0.9-0.51,1.34-0.75v-0.24h1.05c0.56,0.92-1.18,2.01,0.54,2.25c0,0.29,0.08,0.61-0.26,0.75
		c0.13,0.35,0.36,0.47,0.63,0.5c0.19,0.03,0.4,0.01,0.62,0h0.34c0.21,0.02,0.4,0.08,0.55,0.24
		C48.53,274.55,48.67,274.47,48.79,274.39"/>
	<path class="st0" d="M68.48,269.43c0.2-0.03,0.49-0.05,0.91-0.05c0.39,0,0.68,0.07,0.87,0.21c0.19,0.13,0.31,0.37,0.31,0.64
		c0,0.27-0.09,0.51-0.26,0.65c-0.23,0.19-0.55,0.27-0.92,0.27c-0.07,0-0.14,0-0.18-0.01v0.9h-0.73 M69.21,270.6
		c0.04,0,0.09,0.01,0.17,0.01c0.29,0,0.47-0.14,0.47-0.37c0-0.2-0.14-0.33-0.42-0.33c-0.11,0-0.18,0.01-0.22,0.01V270.6z"/>
	<path class="st0" d="M69.67,275.1l-0.16,0.61h-0.76l0.8-2.65h0.98l0.82,2.65h-0.8l-0.18-0.61 M70.28,274.58l-0.13-0.48
		c-0.04-0.15-0.09-0.36-0.13-0.52h-0.01c-0.04,0.16-0.08,0.38-0.12,0.53l-0.12,0.47H70.28z"/>
	<polyline class="st0" points="69.08,276.85 69.08,277.82 69.98,277.82 69.98,276.85 70.71,276.85 70.71,279.49 69.98,279.49 
		69.98,278.44 69.08,278.44 69.08,279.49 68.34,279.49 68.34,276.85 	"/>
	<path class="st0" d="M70.06,281.89c0,0.85-0.53,1.39-1.38,1.39c-0.85,0-1.33-0.62-1.33-1.35c0-0.77,0.53-1.38,1.37-1.38
		C69.61,280.55,70.06,281.18,70.06,281.89 M68.13,281.92c0,0.5,0.22,0.8,0.58,0.8c0.35,0,0.57-0.33,0.57-0.81
		c0-0.46-0.22-0.8-0.57-0.8C68.36,281.11,68.13,281.43,68.13,281.92"/>
	<path class="st0" d="M23.53,272.1c0,0.85-0.53,1.39-1.38,1.39c-0.86,0-1.32-0.62-1.32-1.35c0-0.77,0.53-1.38,1.37-1.38
		C23.08,270.76,23.53,271.39,23.53,272.1 M21.6,272.13c0,0.49,0.23,0.8,0.58,0.8c0.35,0,0.57-0.33,0.57-0.81
		c0-0.46-0.22-0.8-0.57-0.8C21.83,271.32,21.6,271.64,21.6,272.13"/>
	<path class="st0" d="M20.83,275.06c0.2-0.03,0.49-0.05,0.91-0.05c0.39,0,0.68,0.07,0.87,0.21c0.19,0.13,0.31,0.37,0.31,0.64
		c0,0.27-0.09,0.5-0.26,0.65c-0.23,0.19-0.55,0.27-0.92,0.27c-0.07,0-0.13,0-0.18-0.01v0.9h-0.73 M21.56,276.23
		c0.04,0,0.09,0.01,0.17,0.01c0.29,0,0.47-0.14,0.47-0.37c0-0.2-0.14-0.33-0.42-0.33c-0.11,0-0.18,0.01-0.22,0.02V276.23z"/>
	<path class="st0" d="M22.01,280.68c0.17,0.08,0.44,0.17,0.72,0.17c0.25,0,0.38-0.08,0.38-0.22c0-0.13-0.12-0.2-0.43-0.31
		c-0.47-0.15-0.77-0.4-0.77-0.8c0-0.47,0.41-0.83,1.11-0.83c0.33,0,0.56,0.06,0.75,0.14l-0.15,0.57c-0.12-0.05-0.32-0.13-0.6-0.13
		c-0.23,0-0.35,0.08-0.35,0.2c0,0.13,0.15,0.19,0.49,0.31c0.5,0.17,0.72,0.43,0.72,0.8c0,0.45-0.37,0.84-1.17,0.84
		c-0.33,0-0.65-0.08-0.81-0.16"/>
	<path class="st0" d="M285.4,361.58c-44.83,0-71.1-20.18-71.1-59.22c0-38.38,26.27-59.22,71.1-59.22
		c44.82,0,71.64,20.83,71.64,59.22C357.05,341.41,330.23,361.58,285.4,361.58 M285.4,334.02c19.47,0,20.02-19.36,20.21-31.66
		c-0.18-10.66-1.47-31.66-20.21-31.66c-18.19,0-19.66,21-19.66,31.66C265.75,314.67,267.77,334.02,285.4,334.02"/>
	<path class="st0" d="M369.73,245.11h84.69c20.02,0,47.03,8.53,47.03,39.37c0,29.86-21.5,42.16-47.21,42.16h-35.27v32.97h-49.23
		V245.11z M417.68,300.07h10.84c11.76,0,23.7-1.97,23.7-14.76c0-12.14-11.94-13.62-23.88-13.62h-10.65V300.07z"/>
	<path class="st0" d="M535.45,245.11h67.79l45.74,114.5h-51.62l-8.45-24.77h-41.52l-7.9,24.77h-49.05L535.45,245.11z M554.18,307.28
		h28.48l-13.96-37.57h-0.37L554.18,307.28z"/>
	<path class="st0" d="M759.21,276.45c-11.03-3.45-24.07-5.74-38.03-5.74c-7.71,0-21.13,0.16-21.13,7.54
		c0,14.93,67.42,0.82,67.42,44.95c0,30.68-33.99,38.39-62.46,38.39c-18.92,0-34.54-1.64-52.91-5.41v-29.69
		c13.23,4.92,29.39,7.55,44.09,7.55c11.57,0,22.04-2.13,22.04-7.88c0-15.42-67.42-1.47-67.42-45.93c0-31.5,36.75-37.07,65.95-37.07
		c13.78,0,29.03,1.48,42.44,3.94V276.45z"/>
</g>
</svg>
